<svg width="200" height="61" viewBox="0 0 200 61" fill="none" xmlns="http://www.w3.org/2000/svg">
<path d="M130.931 0.000353546C130.661 0.000353546 130.392 0.047678 130.122 0.139347L123.249 1.98937C122.51 2.18062 121.973 2.33392 121.637 2.45223C121.303 2.57143 121.136 2.74932 121.136 2.98594C121.136 3.31864 121.386 3.53381 121.889 3.62811C122.391 3.7224 122.964 3.85233 123.601 4.01867C124.238 4.18502 124.809 4.47051 125.312 4.87348C125.817 5.27734 126.067 5.95357 126.067 6.90273V42.6451C126.067 43.4039 125.949 43.9735 125.713 44.3534C125.479 44.7323 125.127 45.0192 124.658 45.2096C124.187 45.3982 123.649 45.5406 123.046 45.6349C122.443 45.7292 121.807 45.848 121.136 45.9921C120.6 46.0855 120.164 46.193 119.827 46.3104C119.491 46.4296 119.324 46.6551 119.324 46.9887C119.324 47.3196 119.643 47.5208 120.279 47.5919C120.917 47.6613 121.404 47.6989 121.739 47.6989C122.612 47.6989 123.739 47.6535 125.114 47.5627C126.492 47.472 127.79 47.4251 129.007 47.4251C130.154 47.4251 131.266 47.472 132.342 47.5627C133.422 47.6535 134.565 47.6989 135.774 47.6989C136.311 47.6989 136.83 47.6505 137.334 47.5572C137.836 47.462 138.089 47.2738 138.089 46.9901C138.089 46.6574 137.803 46.4571 137.234 46.3869C136.664 46.3157 135.974 46.1848 135.171 45.9935C134.699 45.901 134.213 45.6999 133.708 45.393C133.206 45.0844 132.958 44.5288 132.958 43.7237V33.6423C132.958 33.4066 133.192 33.2865 133.661 33.2865C133.862 33.2865 134.165 33.4295 134.569 33.7132L149.764 43.8649C150.501 44.3861 150.868 44.7656 150.868 45.0005C150.868 45.238 150.684 45.4513 150.316 45.6399C149.945 45.8293 149.495 45.9475 148.956 45.9929C148.084 46.0889 147.38 46.1965 146.843 46.314C146.307 46.4332 146.041 46.6568 146.041 46.9895C146.041 47.3213 146.273 47.5201 146.745 47.5913C147.214 47.6607 147.985 47.6983 149.058 47.6983C150.264 47.6983 151.472 47.6529 152.68 47.5621C153.887 47.4714 155.163 47.4245 156.505 47.4245C158.048 47.4245 159.457 47.4714 160.732 47.5621C162.006 47.6528 163.181 47.6983 164.254 47.6983C165.999 47.6983 166.87 47.4622 166.87 46.9881C166.87 46.7514 166.654 46.5605 166.218 46.4182C165.78 46.2768 165.194 46.1002 164.457 45.8859C163.718 45.6724 162.861 45.399 161.888 45.0672C160.914 44.7336 159.926 44.238 158.92 43.5744L141.511 32.4051C141.375 32.3117 141.206 32.1809 141.008 32.0146C140.805 31.8482 140.705 31.6475 140.705 31.4099C140.705 31.2205 141.577 30.711 143.321 29.881C145.064 29.051 147.061 28.1629 149.309 27.2137C151.557 26.2655 153.735 25.3764 155.85 24.5465C157.963 23.7165 159.389 23.1837 160.128 22.9453C160.462 22.851 160.914 22.7439 161.486 22.6256C162.056 22.5082 162.609 22.3774 163.149 22.235C163.684 22.0936 164.134 21.9385 164.505 21.7722C164.874 21.6058 165.057 21.4279 165.057 21.2384C165.057 20.8595 164.859 20.6211 164.456 20.5268C164.052 20.4325 163.617 20.3836 163.149 20.3836C162.14 20.3836 160.949 20.4077 159.574 20.4531C158.198 20.4985 156.87 20.5226 155.598 20.5226C154.254 20.5226 152.896 20.4985 151.522 20.4531C150.147 20.4077 148.923 20.3836 147.849 20.3836C147.513 20.3836 147.196 20.4562 146.894 20.5977C146.592 20.7409 146.442 20.9063 146.442 21.0967C146.442 21.3822 146.64 21.6077 147.045 21.7749C147.446 21.9404 147.884 22.1057 148.354 22.2712C148.824 22.4375 149.258 22.6518 149.663 22.9133C150.063 23.1748 150.264 23.5437 150.264 24.0169C150.264 24.2553 149.878 24.5986 149.107 25.0496C148.336 25.4997 147.381 26.0114 146.239 26.5799C145.101 27.151 143.842 27.7435 142.466 28.3618C141.09 28.9791 139.8 29.5361 138.592 30.0352C137.385 30.5342 136.328 30.9371 135.422 31.2458C134.516 31.5545 133.996 31.7086 133.862 31.7086C133.259 31.7086 132.957 31.3286 132.957 30.5689V1.28292C132.957 0.76075 132.841 0.417049 132.602 0.251573C132.368 0.0843364 132.114 6.33027e-07 131.843 6.33027e-07L130.931 0.000353546ZM29.209 3.43352C25.9827 3.43352 23.111 3.50087 20.5929 3.63785C18.0722 3.77573 15.5707 3.84493 13.0852 3.84493H3.92478C3.58768 3.84493 3.20296 3.85572 2.76522 3.87973C2.32876 3.90286 1.91186 3.95169 1.50936 4.02288C1.10686 4.09493 0.754606 4.21465 0.453987 4.38011C0.149607 4.54646 0 4.77095 0 5.05561C0 5.43545 0.216015 5.66272 0.652479 5.73388C1.08894 5.80416 1.8779 5.88701 3.01868 5.9813C3.68784 6.02934 4.40834 6.06574 5.18064 6.08973C5.95294 6.11286 6.69115 6.16123 7.39553 6.23149C8.09865 6.30266 8.6853 6.42146 9.15447 6.58869C9.6249 6.75415 9.86004 7.00241 9.86004 7.3351V40.8172C9.86004 41.8615 9.72631 42.6677 9.45714 43.237C9.18923 43.8081 8.83818 44.2451 8.40173 44.5546C7.96527 44.8633 7.47928 45.0785 6.94342 45.1968C6.40633 45.316 5.86894 45.3998 5.33192 45.447C3.78857 45.6364 2.78358 45.8739 2.31316 46.1586C1.84273 46.4424 1.60955 46.7288 1.60955 47.0134C1.60955 47.3799 1.84273 47.5852 2.31316 47.6306C2.78358 47.6759 3.15045 47.6987 3.41962 47.6987C4.62713 47.6987 6.06874 47.6532 7.74541 47.5625C9.42334 47.4708 11.002 47.4249 12.48 47.4249H36.2628C40.562 47.4249 44.6093 46.914 48.4067 45.8946C52.204 44.8742 55.5124 43.4872 58.3337 41.7304C61.1537 39.9744 63.3871 37.9102 65.0336 35.5368C66.6801 33.1653 67.5041 30.6494 67.5041 27.9923C67.5041 23.7207 66.4964 20.0305 64.4814 16.9218C62.4651 13.8145 59.7266 11.2636 56.2663 9.27015C52.806 7.27754 48.7583 5.8063 44.1245 4.85714C39.4869 3.90798 34.5172 3.43352 29.209 3.43352ZM26.9802 5.56009C29.0669 5.56009 31.2895 5.738 33.6467 6.09383C36.0026 6.44965 38.3265 7.00847 40.6157 7.76726C42.905 8.52694 45.1104 9.47522 47.2311 10.6139C49.3505 11.7525 51.2219 13.1068 52.8382 14.6725C54.4558 16.239 55.7325 18.0186 56.6746 20.0112C57.618 22.0038 58.0896 24.2114 58.0896 26.6301C58.0896 29.0514 57.618 31.1996 56.6746 33.0738C55.7325 34.9473 54.4887 36.5857 52.9404 37.9859C51.3907 39.3861 49.6403 40.583 47.687 41.5802C45.7336 42.5774 43.7817 43.372 41.8283 43.9653C39.8762 44.5586 37.9895 44.9969 36.172 45.2816C34.3532 45.568 32.7716 45.7097 31.4257 45.7097C29.8082 45.7097 28.2279 45.568 26.6795 45.2816C25.1286 44.9969 23.7492 44.5587 22.5366 43.9653C21.3241 43.372 20.3479 42.6254 19.6083 41.7234C18.8687 40.8222 18.4979 39.7529 18.4979 38.5182V7.83825C18.4979 7.60163 18.5473 7.34039 18.6492 7.05573C18.7498 6.77196 19.0687 6.52232 19.6083 6.30794C20.1466 6.09444 20.9891 5.91603 22.1337 5.77281C23.2771 5.63137 24.8922 5.56009 26.9802 5.56009ZM184.522 19.2175C181.373 19.2175 178.656 19.6935 176.38 20.6435C174.102 21.5936 172.208 22.7935 170.7 24.2435C169.192 25.6935 168.072 27.3089 167.335 29.0916C166.598 30.8733 166.229 32.5945 166.229 34.2579C166.229 38.7262 167.744 42.2533 170.777 44.8437C173.808 47.4332 178.109 48.7285 183.679 48.7285C186.296 48.7285 188.526 48.4542 190.371 47.9071C192.215 47.36 193.74 46.739 194.949 46.0487C196.156 45.3584 197.029 44.7147 197.565 44.1223C198.104 43.529 198.372 43.1619 198.372 43.0187C198.372 42.6398 198.067 42.4502 197.464 42.4502C197.062 42.4502 196.691 42.6049 196.358 42.9145C196.021 43.2223 195.551 43.553 194.949 43.9097C194.345 44.2664 193.507 44.5846 192.433 44.8702C191.358 45.1557 189.851 45.2969 187.905 45.2969C184.818 45.2969 182.317 44.9539 180.405 44.2628C178.493 43.5734 177.019 42.6799 175.979 41.5857C174.939 40.4933 174.235 39.2328 173.866 37.8051C173.497 36.3791 173.314 34.9061 173.314 33.3823V31.884C173.314 31.457 173.377 31.123 173.507 30.8846H197.991C198.863 30.8846 199.414 30.7784 199.648 30.5649C199.881 30.3514 200 29.9132 200 29.2487C200 28.4908 199.731 27.5412 199.194 26.4035C198.658 25.2649 197.788 24.162 196.582 23.0954C195.376 22.0279 193.784 21.1146 191.806 20.3558C189.829 19.5962 187.403 19.2175 184.522 19.2175ZM72.6731 20.3836C71.9347 20.3836 71.3321 20.4087 70.8629 20.4559C70.3925 20.5039 70.1574 20.6922 70.1574 21.0258C70.1574 21.2633 70.357 21.4421 70.7607 21.5595C71.1632 21.6787 71.9699 21.8558 73.1761 22.0933C73.7799 22.1884 74.4192 22.3076 75.0884 22.4491C75.7588 22.5914 76.0946 22.9249 76.0946 23.4471C76.0946 24.4923 76.0782 25.667 76.0455 26.972C76.0128 28.2769 75.9983 29.6188 75.9983 30.9958C75.9983 32.3266 75.9806 33.6545 75.9491 34.9835C75.9164 36.3143 75.902 37.5239 75.902 38.6154C75.902 40.1356 76.0844 41.5138 76.4542 42.7476C76.824 43.9814 77.4596 45.049 78.3665 45.9528C79.2734 46.8548 80.5147 47.5405 82.0908 48.0155C83.6681 48.4896 85.6325 48.7285 87.9809 48.7285C89.9959 48.7285 91.7906 48.5058 93.3679 48.0628C94.9452 47.6198 96.3202 47.1264 97.495 46.5811C98.6686 46.0358 99.6261 45.5487 100.364 45.1217C101.103 44.6956 101.673 44.4809 102.076 44.4809C102.547 44.4809 102.78 44.7659 102.78 45.3344V46.9717C102.78 47.3044 102.811 47.576 102.878 47.7904C102.942 48.0047 103.17 48.1101 103.56 48.1101C104.034 48.1101 105.287 47.9705 107.32 47.6903C109.352 47.4092 112.145 47.0807 115.702 46.7063C116.439 46.6111 116.961 46.5193 117.262 46.4241C117.562 46.3316 117.716 46.1437 117.716 45.8626C117.716 45.4881 117.328 45.2778 116.557 45.2315C115.785 45.1835 114.427 45.1593 112.481 45.1593C112.012 45.1593 111.457 45.067 110.82 44.8758C110.181 44.6863 109.865 44.2116 109.865 43.451C109.865 39.8439 109.929 36.2497 110.06 32.6669C110.188 29.0829 110.254 25.4868 110.254 21.8793C110.254 21.2157 109.985 20.8011 109.442 20.6339C108.905 20.4675 108.467 20.3837 108.132 20.3837C107.119 20.3837 106.127 20.4078 105.148 20.4532C104.172 20.4985 103.178 20.5213 102.171 20.5213C101.298 20.5213 100.442 20.4985 99.6038 20.4532C98.7636 20.4078 97.9094 20.3837 97.039 20.3837C96.5019 20.3837 95.9981 20.421 95.5276 20.4921C95.0585 20.5633 94.8241 20.7161 94.8241 20.9536C94.8241 21.2382 95.2093 21.4749 95.9816 21.6652C96.7527 21.8547 97.3401 21.9981 97.7426 22.0933C98.9501 22.3308 99.8898 22.5087 100.559 22.6271C101.229 22.7463 101.75 22.8525 102.119 22.9467C102.488 23.041 102.724 23.1598 102.825 23.3039C102.924 23.4454 102.976 23.6121 102.976 23.8016C102.976 26.3635 102.942 28.9017 102.878 31.4156C102.811 33.9313 102.78 36.4693 102.78 39.0339C102.78 39.7446 102.662 40.4823 102.428 41.2411C102.195 42.0007 101.675 42.6756 100.872 43.269C100.069 43.8614 98.878 44.3472 97.3045 44.7271C95.7309 45.1078 93.5377 45.2983 90.7264 45.2983C88.2485 45.2983 86.3055 44.9052 84.8992 44.1224C83.4917 43.3396 82.7904 42.2134 82.7904 40.7421C82.7904 37.5628 82.8219 34.3958 82.8886 31.2407C82.9515 28.0846 82.9829 24.9174 82.9829 21.7367C82.9829 21.2163 82.8999 20.861 82.7314 20.6706C82.5616 20.4803 82.1392 20.3843 81.4637 20.3843C80.7216 20.3843 79.9784 20.4084 79.235 20.4538C78.4929 20.4992 77.7496 20.5219 77.0063 20.5219C76.2642 20.5219 75.5396 20.4992 74.8365 20.4538C74.1334 20.4084 73.4102 20.3836 72.6731 20.3836ZM185.954 20.9326C188.101 20.9326 189.877 21.348 191.287 22.178C192.695 23.0079 193.4 24.0382 193.4 25.272C193.4 25.9365 193.284 26.481 193.046 26.9079C192.813 27.3349 192.327 27.6894 191.59 27.974C190.852 28.2587 189.81 28.4617 188.469 28.58C187.127 28.6992 185.349 28.7579 183.135 28.7579C180.988 28.7579 179.327 28.7449 178.153 28.7218C176.98 28.6987 176.107 28.6628 175.537 28.6148C174.967 28.5685 174.63 28.508 174.529 28.4369C174.431 28.3666 174.38 28.2595 174.38 28.1172C174.38 27.5488 174.648 26.8613 175.185 26.0545C175.721 25.2486 176.475 24.4656 177.45 23.7068C178.423 22.9489 179.631 22.2974 181.074 21.7512C182.515 21.2068 184.142 20.9326 185.954 20.9326ZM134.373 53.0092C132.355 53.0092 130.761 53.8281 130.761 55.1678C130.761 56.5519 131.869 56.9607 134.186 57.4473C136.016 57.8351 136.658 58.1338 136.658 58.7316C136.658 59.4851 135.924 59.8603 134.391 59.8603C133.358 59.8603 132.277 59.5064 131.541 58.9415L130.369 59.7491C131.29 60.5132 132.669 61 134.265 61C137.066 61 138.315 60.0477 138.315 58.6538C138.315 57.2705 136.971 56.783 134.809 56.3187C132.917 55.9211 132.417 55.6549 132.417 55.1123C132.417 54.5928 132.965 54.1491 134.249 54.1491C135.328 54.1491 136.11 54.3931 136.798 54.8913L137.958 54.0601C136.988 53.3965 135.858 53.0092 134.373 53.0092ZM7.08153 53.1301V57.6251C7.08153 59.7601 8.49014 60.9999 11.197 60.9999C13.9201 60.9999 15.4068 59.817 15.4068 57.6474V53.1301H13.7618V57.6696C13.7618 59.0858 12.9492 59.8365 11.2284 59.8365C9.58447 59.8365 8.72463 59.0519 8.72463 57.5903V53.13L7.08153 53.1301ZM51.3354 53.1301V60.8776H52.9784V53.1301H51.3354ZM151.801 53.1301V60.8776H153.444V53.1301H151.801ZM186.993 53.1301L190.921 57.8128V60.8776H192.566V57.8128L196.491 53.1301H194.598L192.877 55.2776C192.487 55.7766 191.938 56.5187 191.75 56.8051C191.562 56.5187 191 55.7438 190.624 55.2679L188.918 53.1302L186.993 53.1301ZM29.1361 53.1319V60.878H30.73V56.8611C30.73 56.4297 30.7163 55.3554 30.7163 55.0681C30.8874 55.2673 31.2646 55.7329 31.53 56.0202L35.895 60.878H37.4614V53.1319H35.8636V57.1265C35.8636 57.5589 35.8813 58.6647 35.8813 58.9529C35.7241 58.7536 35.2551 58.1788 34.9733 57.8577L30.8107 53.1319H29.1361ZM66.1764 53.1319L69.9774 60.878H71.7147L75.4705 53.1319H73.7193L71.465 58.0564C71.2613 58.5101 70.9469 59.2068 70.8538 59.4852C70.7595 59.2068 70.4471 58.5211 70.2446 58.0674L67.9589 53.1318L66.1764 53.1319ZM88.5832 53.1319V60.878H95.8766V59.7493H90.2282V57.3044H93.3727V56.1758H90.2282V54.2605H95.6407V53.1318L88.5832 53.1319ZM109.162 53.1319V60.878H110.774V57.8132H113.246L115.42 60.878H117.317L115.078 57.7131C116.565 57.4471 117.488 56.6839 117.488 55.4447C117.488 53.8497 115.877 53.1319 113.968 53.1319H109.162ZM166.641 53.1319V54.2716H169.833V60.878H171.476V54.2716H174.668V53.1319H166.641ZM110.774 54.2271H113.967C115.078 54.2271 115.829 54.6703 115.829 55.478C115.829 56.3195 115.063 56.7179 113.967 56.7179H110.774V54.2271Z" fill="#004EFF"/>
</svg>
