<svg width="200" height="61" viewBox="0 0 200 61" fill="none" xmlns="http://www.w3.org/2000/svg">
<path d="M147.359 4.36966C147.359 1.95702 149.101 3.8147e-06 151.249 3.8147e-06H196.11C198.258 3.8147e-06 200 1.95702 200 4.36966V56.6303C200 59.0438 198.258 61 196.11 61H151.249C149.101 61 147.359 59.0438 147.359 56.6303V4.36966Z" fill="#006699"/>
<path fill-rule="evenodd" clip-rule="evenodd" d="M0 51.0959H21.9686V42.791H7.95016V11.1055H0V51.0959Z" fill="#006699"/>
<path fill-rule="evenodd" clip-rule="evenodd" d="M33.091 51.0959V23.5518H25.1401V51.0959H33.091ZM29.1155 19.791C31.8882 19.791 33.6139 17.6759 33.6139 15.0309C33.5622 12.3289 31.8882 10.2733 29.1684 10.2733C26.4483 10.2733 24.67 12.3289 24.67 15.0309C24.67 17.6759 26.3954 19.791 29.0636 19.791H29.1155Z" fill="#006699"/>
<path fill-rule="evenodd" clip-rule="evenodd" d="M36.7826 51.0959H44.7336V35.7137C44.7336 34.8904 44.7852 34.068 44.9955 33.4795C45.57 31.8355 46.8781 30.132 49.0747 30.132C51.952 30.132 53.103 32.6587 53.103 36.3592V51.0959H61.0531V35.3021C61.0531 26.8415 57.1302 22.9046 51.8991 22.9046C47.6102 22.9046 45.7269 25.6653 44.6806 27.5457H44.7337V23.5518H36.7828C36.8872 26.1364 36.7826 51.0959 36.7826 51.0959Z" fill="#006699"/>
<path fill-rule="evenodd" clip-rule="evenodd" d="M72.2695 11.1055H64.3183V51.0959H72.2695V42.1659L74.2566 39.2854L80.4814 51.0959H90.2624L79.8015 33.9979L88.9552 22.3651H79.3833C79.3833 22.3651 72.845 32.7729 72.2695 34.0069V11.1055Z" fill="#006699"/>
<path fill-rule="evenodd" clip-rule="evenodd" d="M111.525 39.6065C111.63 38.899 111.787 37.5419 111.787 36.0079C111.787 28.8873 108.648 21.6592 100.384 21.6592C91.5436 21.6592 87.4638 29.7098 87.4638 37.0113C87.4638 46.0424 92.4329 51.6828 101.116 51.6828C104.568 51.6828 107.759 51.0959 110.374 49.8619L109.328 43.8156C107.183 44.6347 104.987 45.0439 102.267 45.0439C98.553 45.0439 95.3103 43.289 95.0483 39.5478L111.525 39.6049V39.6065ZM94.9965 33.4127C95.2056 31.062 96.5656 27.5946 99.9656 27.5946C103.574 27.5946 104.411 31.2975 104.411 33.4127H94.9965Z" fill="#006699"/>
<path fill-rule="evenodd" clip-rule="evenodd" d="M131.412 11.1055V24.9489H131.308C130.157 23.0114 127.75 21.7187 124.56 21.7187C118.44 21.7187 113.053 27.3591 113.104 36.9942C113.104 45.9258 117.969 51.7423 124.037 51.7423C127.332 51.7423 130.47 50.0966 132.039 46.9235H132.197L132.51 51.0959H139.572C139.468 49.1568 139.362 45.8077 139.362 42.518V11.1055H131.412ZM131.412 38.3464C131.412 39.0506 131.36 39.7565 131.255 40.3433C130.785 42.8701 128.901 44.6323 126.6 44.6323C123.305 44.6323 121.16 41.5774 121.16 36.7594C121.16 32.2357 122.991 28.5931 126.652 28.5931C129.11 28.5931 130.837 30.5314 131.308 32.9399C131.412 33.4697 131.412 34.0574 131.412 34.5856V38.3464Z" fill="#006699"/>
<path fill-rule="evenodd" clip-rule="evenodd" d="M163.316 51.0633V23.5184H155.365V51.0633H163.316ZM159.341 19.7576C162.113 19.7576 163.839 17.6425 163.839 14.9992C163.787 12.2963 162.113 10.2399 159.393 10.2399C156.674 10.2399 154.895 12.2963 154.895 14.9992C154.895 17.6425 156.621 19.7576 159.289 19.7576H159.341Z" fill="white"/>
<path fill-rule="evenodd" clip-rule="evenodd" d="M167.716 51.0633H175.667V35.6811C175.667 34.8578 175.718 34.0354 175.928 33.4469C176.503 31.8021 177.811 30.0986 180.008 30.0986C182.885 30.0986 184.036 32.6245 184.036 36.3274V51.0633H191.986V35.2695C191.986 26.8089 188.063 22.8721 182.832 22.8721C178.543 22.8721 176.66 25.6327 175.614 27.5131H175.667V23.5184H167.716C167.82 26.103 167.716 51.0633 167.716 51.0633Z" fill="white"/>
</svg>
