<svg width="200" height="61" viewBox="0 0 200 61" fill="none" xmlns="http://www.w3.org/2000/svg">
<path d="M68.1919 16.8785C58.9232 16.8936 51.805 23.5419 51.8306 32.1598C51.8561 40.7387 59.03 47.3288 68.3382 47.3072C77.5952 47.2878 84.7505 40.6093 84.7134 32.0239C84.6762 23.4384 77.5047 16.8612 68.1919 16.8785ZM71.8473 40.5748C68.3776 42.0093 65.0961 41.4377 62.2465 39.1295C58.5562 36.1354 57.9478 30.3844 60.8322 26.5317C61.6251 25.4522 62.6796 24.5605 63.9109 23.9282C65.1422 23.2958 66.5159 22.9405 67.9219 22.8908C69.3278 22.8411 70.7267 23.0983 72.0062 23.6419C73.2857 24.1854 74.4101 25.0001 75.2891 26.0205C76.7359 27.6686 77.4884 29.7567 77.4861 32.8328C77.3491 35.9434 75.7234 38.9699 71.8473 40.5748Z" fill="#DB4437"/>
<path d="M103.982 16.8677C94.6532 16.8807 87.4933 23.529 87.5188 32.1835C87.5374 40.7236 94.7484 47.3224 104.047 47.3116C113.269 47.3008 120.432 40.6848 120.441 32.177C120.448 23.5031 113.3 16.8569 103.982 16.8677ZM102.793 41.2176C99.2841 40.8531 96.2905 38.3702 95.1966 34.9295C93.8032 30.5376 95.7772 25.7897 99.788 23.8634C105.608 21.0591 112.443 24.6335 113.13 30.8309C113.177 31.2624 113.186 31.6938 113.193 31.8146C113.19 37.764 108.553 41.8173 102.793 41.2176Z" fill="#F4B400"/>
<path d="M178.153 36.6811C185.387 33.8984 192.626 31.1135 199.997 28.2812C199.43 27.0732 198.991 25.9968 198.439 24.9721C194.277 17.297 185.326 14.5855 177.591 18.7725C172.516 21.5207 170.252 25.9083 169.927 31.2279C169.251 42.7341 181.035 50.5322 192.424 46.1251C195.415 44.9668 197.765 43.0598 199.646 40.5619L194.073 37.132C189.488 43.4524 180.373 42.0179 178.153 36.6811ZM183.424 23.0415C186.699 22.1786 190.083 23.3823 191.455 25.9968L176.933 31.6054C176.573 27.7613 179.407 24.0985 183.424 23.0415Z" fill="#DB4437"/>
<path d="M49.197 21.5229H47.8732C41.1011 21.5229 34.329 21.5229 27.5569 21.5229C27.1342 21.5229 26.7138 21.5725 26.2912 21.5983H26.0589C25.9939 21.6329 25.8755 21.6652 25.8755 21.7019C25.8453 23.6822 25.8174 25.6646 25.8337 27.647C25.8337 27.7398 26.247 27.8282 26.4677 27.9188C26.7339 27.9568 27.0022 27.982 27.2712 27.9943C32.2876 27.9943 37.3055 27.9943 42.325 27.9943C41.972 32.0929 40.0723 35.3761 36.4865 37.8417C29.0386 42.9671 14.5956 42.0891 9.26337 30.7943C6.17226 24.2473 7.07335 17.9226 12.0874 12.4262C17.0295 7.00524 24.7445 5.11341 31.7674 7.49275C34.1176 8.28874 36.238 9.66284 38.3212 10.7026L43.2122 6.44653C43.2122 6.44653 42.8591 6.20278 42.7221 6.08413C33.7948 -1.59963 20.0857 -2.05695 10.0623 5.00556C-1.97935 13.4983 -3.45639 29.5474 6.94794 39.7227C13.0744 45.7131 20.7012 48.0687 29.4752 47.1627C39.206 46.1575 46.7863 39.932 48.9229 31.3336C49.7406 28.1157 49.8339 24.7757 49.197 21.5229Z" fill="#4285F4"/>
<path d="M154.673 17.873H147.917C147.88 18.6409 147.848 19.3614 147.806 20.2156L146.38 19.2104L144.754 18.2008C141.698 16.6197 138.467 16.5183 135.193 17.3747C128.948 19.0055 124.127 24.2128 123.481 30.1666C122.763 36.761 125.469 41.9209 131.568 45.3896C136.549 48.2219 143.363 48.1335 147.546 44.0953C147.581 44.0629 147.683 44.0953 147.778 44.0953C147.778 45.3464 147.894 46.6019 147.757 47.8314C147.351 51.449 145.27 53.7917 141.842 54.6567C138.184 55.5799 134.531 54.4755 132.304 51.7316C131.772 51.0844 131.345 50.3532 130.817 49.5744L124.677 51.9473C128.137 59.6569 137.195 62.8538 145.442 59.9287L149.287 57.8644C149.299 57.8672 149.312 57.8677 149.324 57.8658C149.336 57.8639 149.348 57.8597 149.358 57.8534C149.368 57.8471 149.377 57.8389 149.384 57.8292C149.39 57.8196 149.395 57.8088 149.397 57.7975L149.61 57.6141L149.843 57.3984L150.628 56.6369L150.616 56.611C151.206 55.9143 151.891 55.2693 152.365 54.51C154.076 51.7683 154.715 48.7569 154.717 45.6139C154.717 36.6315 154.717 27.6484 154.717 18.6646C154.724 18.4274 154.694 18.1814 154.673 17.873ZM147.488 36.2886C145.913 39.8176 142.511 41.6297 138.519 41.2349C134.845 40.8725 131.644 38.0531 130.815 34.4097C130.641 33.6439 130.583 32.8522 130.52 32.3431C130.657 28.7385 131.955 25.9774 135.049 24.1352C135.964 23.5747 136.99 23.1888 138.067 23C139.144 22.8112 140.25 22.8232 141.322 23.0354C142.394 23.2476 143.41 23.6557 144.311 24.2359C145.211 24.8162 145.978 25.557 146.568 26.4153C148.739 29.5302 149.006 32.8824 147.488 36.2886Z" fill="#4285F4"/>
<path d="M159.578 1.65335V46.3452H166.661V1.65335H159.578Z" fill="#0F9D58"/>
</svg>
