<svg id="home-img" width="706" height="742" viewBox="0 0 706 742" fill="none" xmlns="http://www.w3.org/2000/svg">
<g id="img-container">
<g id="img" clip-path="url(#clip0_1_274)">
<g id="img-background">
<path id="Vector" d="M674.47 342.567C667.071 304.532 654.081 267.402 638.634 233.27C612.003 174.385 568.372 125.487 512.556 96.46C375.592 25.228 276.752 54.908 223.096 112.784C169.44 170.66 184.972 270.088 127.08 313.124C69.188 356.16 28.24 375.452 25.416 454.104C22.592 532.756 59.304 592.116 118.608 611.408C177.912 630.7 266.868 693.028 444.78 657.412C622.692 621.796 666.464 522.368 677.76 451.136C683.408 415.297 681.459 378.524 674.47 342.567Z" fill="#8002F5"/>
<path id="Vector_2" opacity="0.7" d="M674.47 342.567C667.071 304.532 654.081 267.402 638.634 233.27C612.003 174.385 568.372 125.487 512.556 96.46C375.592 25.228 276.752 54.908 223.096 112.784C169.44 170.66 184.972 270.088 127.08 313.124C69.188 356.16 28.24 375.452 25.416 454.104C22.592 532.756 59.304 592.116 118.608 611.408C177.912 630.7 266.868 693.028 444.78 657.412C622.692 621.796 666.464 522.368 677.76 451.136C683.408 415.297 681.459 378.524 674.47 342.567Z" fill="white"/>
</g>
<g id="sub-img">
<g id="freepik--Device--inject-2">
<path id="Vector_3" d="M408.054 414.615H371.78V428.965H408.054V414.615Z" fill="#263238" stroke="#263238" stroke-linecap="round" stroke-linejoin="round"/>
<path id="Vector_4" d="M456.725 416.781H312.348L319.183 299.16H463.574L456.725 416.781Z" fill="#919191" stroke="#263238" stroke-linecap="round" stroke-linejoin="round"/>
<path id="Vector_5" d="M452.588 416.781H308.211L315.045 299.16H459.422L452.588 416.781Z" fill="#263238" stroke="#263238" stroke-linecap="round" stroke-linejoin="round"/>
<path id="Vector_6" d="M444.949 410.237H316.613L322.684 305.689H451.021L444.949 410.237Z" fill="white" stroke="#263238" stroke-linecap="round" stroke-linejoin="round"/>
<path id="Vector_7" d="M407.616 394.655H320.439L325.113 314.089H412.304L407.616 394.655Z" fill="#919191" stroke="#263238" stroke-linecap="round" stroke-linejoin="round"/>
<path id="Vector_8" d="M354.836 360.048C354.836 360.048 336.677 367.602 336.564 369.635C336.451 371.668 332.893 394.655 332.893 394.655H386.888L382.341 368.18L362.361 359.454L354.836 360.048Z" fill="white" stroke="#263238" stroke-linecap="round" stroke-linejoin="round"/>
<path id="Vector_9" d="M355.372 355.388C354.006 355.767 352.737 356.462 351.659 357.421C350.247 358.905 348.524 363.817 348.524 363.817L348.453 369.635L355.612 365.569L362.884 365.064L369.69 371.757L370.565 361.577C370.565 361.577 369.52 355.759 367.318 355.463C365.115 355.166 355.372 355.388 355.372 355.388Z" fill="white" stroke="#263238" stroke-linecap="round" stroke-linejoin="round"/>
<path id="Vector_10" d="M355.146 349.868L354.836 360.048L359.114 367.32L366.188 359.751L367.289 350.447L355.146 349.868Z" fill="white" stroke="#263238" stroke-linecap="round" stroke-linejoin="round"/>
<path id="Vector_11" d="M372.599 337.966C372.09 346.499 366.696 356.843 360.78 356.843C354.864 356.843 350.67 346.455 351.164 337.966C351.659 329.478 356.812 322.518 362.771 322.518C368.73 322.518 373.093 329.448 372.599 337.966Z" fill="white" stroke="#263238" stroke-linecap="round" stroke-linejoin="round"/>
<path id="Vector_12" d="M351.065 339.094C351.065 339.094 349.159 333.87 348.369 337.936C347.578 342.003 351.475 346.366 351.475 346.366L351.065 339.094Z" fill="white" stroke="#263238" stroke-linecap="round" stroke-linejoin="round"/>
<path id="Vector_13" d="M372.599 337.966C372.599 337.966 377.272 335.903 375.903 340.266C375.555 341.501 374.948 342.638 374.127 343.593C373.306 344.549 372.292 345.298 371.158 345.787L372.599 337.966Z" fill="white" stroke="#263238" stroke-linecap="round" stroke-linejoin="round"/>
<path id="Vector_14" d="M360.201 339.094C360.238 338.57 360.172 338.044 360.005 337.548C359.838 337.053 359.575 336.6 359.232 336.217C358.889 335.835 358.475 335.532 358.014 335.327C357.554 335.122 357.058 335.02 356.558 335.028C355.518 335.057 354.523 335.487 353.766 336.237C353.008 336.987 352.539 338.004 352.449 339.094C352.412 339.619 352.479 340.146 352.646 340.642C352.812 341.138 353.075 341.592 353.418 341.975C353.76 342.359 354.175 342.664 354.635 342.87C355.096 343.077 355.592 343.181 356.092 343.175C357.135 343.146 358.131 342.713 358.889 341.96C359.647 341.207 360.115 340.187 360.201 339.094Z" fill="white" stroke="#263238" stroke-linecap="round" stroke-linejoin="round"/>
<path id="Vector_15" d="M369.605 339.094L373.827 337.936" stroke="#263238" stroke-linecap="round" stroke-linejoin="round"/>
<path id="Vector_16" d="M369.605 339.094C369.642 338.571 369.576 338.046 369.41 337.552C369.244 337.058 368.982 336.605 368.641 336.223C368.299 335.841 367.886 335.537 367.428 335.331C366.969 335.126 366.475 335.022 365.976 335.028C364.933 335.053 363.936 335.482 363.175 336.232C362.414 336.982 361.943 338.002 361.853 339.094C361.816 339.619 361.883 340.146 362.05 340.642C362.216 341.138 362.479 341.592 362.822 341.976C363.164 342.359 363.579 342.664 364.039 342.87C364.499 343.077 364.996 343.181 365.496 343.175C366.539 343.146 367.535 342.713 368.293 341.96C369.051 341.207 369.518 340.187 369.605 339.094Z" fill="white" stroke="#263238" stroke-linecap="round" stroke-linejoin="round"/>
<path id="Vector_17" d="M361.811 320.767C361.811 320.767 357.575 318.452 354.398 319.906C351.221 321.36 348.877 329.211 349.032 331.244C349.53 333.908 350.21 336.532 351.066 339.094L354.426 328.914L363.237 324.848L361.811 320.767Z" fill="#263238" stroke="#263238" stroke-linecap="round" stroke-linejoin="round"/>
<path id="Vector_18" d="M357.547 322.815C357.547 322.815 364.522 316.997 370.17 319.847C371.899 320.636 373.327 322.009 374.23 323.748C375.133 325.487 375.458 327.493 375.154 329.448C375.07 330.932 374.957 337.58 374.957 337.58L371.596 338.174L369.944 332.698C368.035 331.904 366.177 330.982 364.381 329.938C364.381 329.938 356.911 328.914 357.547 322.815Z" fill="#263238" stroke="#263238" stroke-linecap="round" stroke-linejoin="round"/>
<g id="Vector_19">
<path d="M360.201 339.094L359.707 347.538H361.641" fill="white"/>
<path d="M360.201 339.094L359.707 347.538H361.641" stroke="#263238" stroke-linecap="round" stroke-linejoin="round"/>
</g>
<path id="Vector_20" d="M358.69 350.729H362.842" stroke="#263238" stroke-linecap="round" stroke-linejoin="round"/>
<path id="Vector_21" d="M359.114 367.32L357.575 393.779" stroke="#263238" stroke-linecap="round" stroke-linejoin="round"/>
<path id="Vector_22" d="M382.313 368.18C382.313 368.18 376.538 381.863 376.369 384.771C376.199 387.68 375.55 394.076 375.55 394.076" stroke="#263238" stroke-linecap="round" stroke-linejoin="round"/>
<path id="Vector_23" d="M336.564 369.635C336.564 369.635 342.311 380.112 343.059 381.507C343.808 382.902 342.89 394.017 342.89 394.017" stroke="#263238" stroke-linecap="round" stroke-linejoin="round"/>
<path id="Vector_24" d="M386.168 378.079L388.074 369.056L391.322 365.569L394.386 360.33H395.769L394.075 365.865L398.368 363.239L401.135 358.594L402.745 359.454L398.791 370.228L392.522 373.419L391.435 377.782L386.168 378.079Z" fill="white" stroke="#263238" stroke-linecap="round" stroke-linejoin="round"/>
<path id="Vector_25" d="M391.533 394.655L392.056 376.624L385.758 375.452L380.788 394.655H391.533Z" fill="white" stroke="#263238" stroke-linecap="round" stroke-linejoin="round"/>
<path id="Vector_26" d="M407.235 401.348H320.044L320.439 394.655H407.616L407.235 401.348Z" fill="white" stroke="#263238" stroke-linecap="round" stroke-linejoin="round"/>
<path id="Vector_27" d="M323.602 397.282H403.592" stroke="#263238" stroke-linecap="round" stroke-linejoin="round"/>
<path id="Vector_28" d="M445.091 335.592H415.749L416.992 314.356H446.333L445.091 335.592Z" fill="#8002F5" stroke="#263238" stroke-linecap="round" stroke-linejoin="round"/>
<path id="Vector_29" d="M445.091 335.592H415.749L415.961 332.104H445.302L445.091 335.592Z" fill="white" stroke="#263238" stroke-linecap="round" stroke-linejoin="round"/>
<path id="Vector_30" d="M435.616 323.735L427.991 318.941L427.441 328.528L435.616 323.735Z" fill="white" stroke="#263238" stroke-linecap="round" stroke-linejoin="round"/>
<path id="Vector_31" d="M443.184 368.462H413.843L415.071 347.241H444.413L443.184 368.462Z" fill="#8002F5" stroke="#263238" stroke-linecap="round" stroke-linejoin="round"/>
<path id="Vector_32" d="M443.184 368.462H413.843L414.055 364.975H443.382L443.184 368.462Z" fill="white" stroke="#263238" stroke-linecap="round" stroke-linejoin="round"/>
<path id="Vector_33" d="M433.71 356.62L426.085 351.827L425.534 361.413L433.71 356.62Z" fill="white" stroke="#263238" stroke-linecap="round" stroke-linejoin="round"/>
<path id="Vector_34" d="M441.264 401.348H411.937L413.165 380.112H442.507L441.264 401.348Z" fill="#8002F5" stroke="#263238" stroke-linecap="round" stroke-linejoin="round"/>
<path id="Vector_35" d="M441.264 401.348H411.937L412.134 397.86H441.476L441.264 401.348Z" fill="white" stroke="#263238" stroke-linecap="round" stroke-linejoin="round"/>
<path id="Vector_36" d="M431.789 389.491L424.179 384.697L423.614 394.284L431.789 389.491Z" fill="white" stroke="#263238" stroke-linecap="round" stroke-linejoin="round"/>
<path id="Vector_37" d="M415.834 339.094H444.328" stroke="#263238" stroke-linecap="round" stroke-linejoin="round"/>
<path id="Vector_38" d="M415.622 342.596H444.13" stroke="#263238" stroke-linecap="round" stroke-linejoin="round"/>
<path id="Vector_39" d="M413.9 372.261H442.408" stroke="#263238" stroke-linecap="round" stroke-linejoin="round"/>
<path id="Vector_40" d="M413.702 375.749H442.21" stroke="#263238" stroke-linecap="round" stroke-linejoin="round"/>
<path id="Vector_41" d="M401.262 428.965H379.828C379.828 426.718 380.677 424.562 382.189 422.973C383.701 421.384 385.752 420.491 387.89 420.491H393.171C395.31 420.491 397.36 421.384 398.872 422.973C400.384 424.562 401.234 426.718 401.234 428.965H401.262Z" fill="white" stroke="#263238" stroke-linecap="round" stroke-linejoin="round"/>
<path id="Vector_42" d="M369.619 424.35H264.821V428.965H369.619V424.35Z" fill="#919191" stroke="#263238" stroke-linecap="round" stroke-linejoin="round"/>
<path id="Vector_43" d="M369.591 424.35H343.257V428.965H369.591V424.35Z" fill="white" stroke="#263238" stroke-linecap="round" stroke-linejoin="round"/>
</g>
<g id="freepik--Desk--inject-2">
<path id="Vector_44" d="M412.403 459.743L425.111 639.797C425.177 640.454 425.479 641.06 425.955 641.492C426.431 641.923 427.046 642.147 427.674 642.119C428.302 642.091 428.897 641.812 429.336 641.339C429.775 640.866 430.027 640.235 430.039 639.574L428.132 459.743H412.403Z" fill="#919191" stroke="#263238" stroke-linecap="round" stroke-linejoin="round"/>
<path id="Vector_45" d="M421.99 459.743L428.697 641.875C429.093 641.652 429.423 641.321 429.652 640.915C429.881 640.51 430 640.046 429.996 639.574L428.133 459.743H421.99Z" fill="white" stroke="#263238" stroke-linecap="round" stroke-linejoin="round"/>
<path id="Vector_46" d="M492.28 459.743L504.988 639.797C505.054 640.454 505.356 641.06 505.832 641.492C506.308 641.923 506.923 642.147 507.551 642.119C508.179 642.091 508.774 641.812 509.213 641.339C509.652 640.866 509.903 640.235 509.916 639.574L508.009 459.743H492.28Z" fill="#919191" stroke="#263238" stroke-linecap="round" stroke-linejoin="round"/>
<path id="Vector_47" d="M501.119 459.743L508.941 641.607C509.234 641.366 509.471 641.058 509.633 640.705C509.794 640.353 509.877 639.966 509.873 639.574L508.009 459.743H501.119Z" fill="white" stroke="#263238" stroke-linecap="round" stroke-linejoin="round"/>
<path id="Vector_48" d="M281.722 461.702L269.014 639.782C268.971 640.436 268.694 641.048 268.237 641.494C267.781 641.94 267.181 642.188 266.557 642.186C266.231 642.192 265.906 642.13 265.602 642.003C265.298 641.876 265.021 641.687 264.788 641.447C264.554 641.207 264.368 640.92 264.24 640.604C264.113 640.287 264.046 639.948 264.044 639.604L265.922 461.227L281.722 461.702Z" fill="#263238" stroke="#263238" stroke-linecap="round" stroke-linejoin="round"/>
<path id="Vector_49" d="M201.916 461.702L189.208 639.782C189.165 640.436 188.887 641.048 188.431 641.494C187.975 641.94 187.374 642.188 186.751 642.186C186.425 642.184 186.103 642.115 185.803 641.981C185.503 641.848 185.231 641.654 185.003 641.41C184.775 641.166 184.594 640.877 184.473 640.559C184.351 640.241 184.291 639.902 184.294 639.56L186.172 461.183L201.916 461.702Z" fill="#263238" stroke="#263238" stroke-linecap="round" stroke-linejoin="round"/>
<path id="Vector_50" d="M512.683 433.15H181.386V461.198H512.683V433.15Z" fill="#919191" stroke="#263238" stroke-linecap="round" stroke-linejoin="round"/>
<path id="Vector_51" d="M512.683 433.15H417.74V461.198H512.683V433.15Z" fill="white" stroke="#263238" stroke-linecap="round" stroke-linejoin="round"/>
<path id="Vector_52" d="M512.683 437.602H181.386V445.334H512.683V437.602Z" fill="#263238" stroke="#263238" stroke-linecap="round" stroke-linejoin="round"/>
<path id="Vector_53" d="M517.456 429.128H176.613V438.507H517.456V429.128Z" fill="#919191" stroke="#263238" stroke-linecap="round" stroke-linejoin="round"/>
<path id="Vector_54" d="M517.442 429.128H423.84V438.507H517.442V429.128Z" fill="white" stroke="#263238" stroke-linecap="round" stroke-linejoin="round"/>
</g>
<g id="freepik--bubble-speech--inject-2">
<path id="Vector_55" d="M416.95 255.248H370.947C368.55 255.248 366.251 256.249 364.557 258.03C362.862 259.811 361.91 262.227 361.91 264.746V282.554C361.908 283.801 362.14 285.037 362.594 286.19C363.047 287.344 363.713 288.391 364.552 289.274C365.392 290.156 366.389 290.856 367.486 291.332C368.583 291.809 369.759 292.053 370.947 292.051H395.035L386.013 318.541L403.295 292.051H416.95C418.137 292.053 419.313 291.809 420.41 291.332C421.507 290.856 422.504 290.156 423.344 289.274C424.183 288.391 424.849 287.344 425.302 286.19C425.756 285.037 425.988 283.801 425.986 282.554V264.746C425.986 262.227 425.034 259.811 423.339 258.03C421.645 256.249 419.346 255.248 416.95 255.248Z" fill="white" stroke="#263238" stroke-linecap="round" stroke-linejoin="round"/>
<path id="Vector_56" d="M381.621 277.701C383.438 277.701 384.911 276.153 384.911 274.243C384.911 272.334 383.438 270.785 381.621 270.785C379.804 270.785 378.331 272.334 378.331 274.243C378.331 276.153 379.804 277.701 381.621 277.701Z" fill="#263238"/>
<path id="Vector_57" d="M393.948 277.701C395.765 277.701 397.238 276.153 397.238 274.243C397.238 272.334 395.765 270.785 393.948 270.785C392.131 270.785 390.658 272.334 390.658 274.243C390.658 276.153 392.131 277.701 393.948 277.701Z" fill="#263238"/>
<path id="Vector_58" d="M409.551 274.243C409.551 273.559 409.357 272.89 408.995 272.321C408.633 271.752 408.118 271.309 407.516 271.047C406.914 270.786 406.252 270.718 405.614 270.853C404.975 270.988 404.389 271.318 403.929 271.804C403.47 272.289 403.158 272.906 403.032 273.578C402.907 274.249 402.974 274.945 403.225 275.577C403.476 276.208 403.9 276.747 404.443 277.125C404.986 277.504 405.623 277.704 406.275 277.701C406.706 277.701 407.133 277.611 407.532 277.437C407.93 277.263 408.292 277.009 408.596 276.687C408.9 276.366 409.142 275.985 409.305 275.565C409.469 275.146 409.552 274.697 409.551 274.243Z" fill="#263238"/>
</g>
<g id="freepik--Character--inject-2">
<path id="Vector_59" d="M257.888 380.32C253.751 372.9 241.579 344.333 241.579 344.333C241.946 341.281 242.541 338.264 243.358 335.31C244.361 332.342 246.888 323.349 246.38 321.479C245.872 319.609 238.543 316.166 237.795 315.899C237.047 315.632 238.797 311.121 236.016 310.052C233.234 308.984 232.232 310.586 232.232 310.586L231.173 318.006L227.925 323.349C226.573 322.268 225.158 321.277 223.689 320.381C221.416 319.045 216.107 318.511 215.852 320.648C215.598 322.785 220.088 324.625 221.656 325.961C223.223 327.296 225.2 333.663 226.979 335.532C228.596 337.387 230.114 339.334 231.526 341.365L232.542 344.822C232.542 344.822 236.002 379.83 236.411 388.541C236.821 397.252 238.063 420.298 240.548 423.771C243.033 427.244 243.457 429.44 250.432 426.828C257.408 424.216 258.707 420.729 260.316 412.893C261.926 405.058 262.025 387.71 257.888 380.32Z" fill="white" stroke="#263238" stroke-linecap="round" stroke-linejoin="round"/>
<path id="Vector_60" d="M260.373 412.938C262.025 405.117 262.025 387.71 257.888 380.29C257.436 379.474 256.885 378.42 256.264 377.173C246.902 374.309 238.007 378.984 238.007 378.984L235.748 380.023C236.044 383.659 236.27 386.701 236.355 388.556C236.778 397.252 238.007 420.313 240.492 423.786C242.977 427.258 243.401 429.455 250.376 426.843C257.351 424.231 258.707 420.773 260.373 412.938Z" fill="#8002F5" stroke="#263238" stroke-linecap="round" stroke-linejoin="round"/>
<path id="Vector_61" d="M227.699 262.668C228.719 266.604 229.288 270.655 229.394 274.733C229.394 280.535 227.699 284.112 230.255 285.893C232.811 287.673 234.929 287.688 234.491 291.265C234.323 293.239 233.579 295.11 232.359 296.622C232.359 296.622 231.512 314.934 230.664 316.73C229.817 318.526 218.761 316.285 216.205 315.825C213.65 315.365 206.434 318.956 201.747 309.132C197.059 299.308 200.899 284.557 209.4 276.959C215.246 271.847 221.355 267.077 227.699 262.668Z" fill="white" stroke="#263238" stroke-linecap="round" stroke-linejoin="round"/>
<path id="Vector_62" d="M229.394 274.659C229.394 274.659 227.092 272.848 225.878 276.024" stroke="#263238" stroke-linecap="round" stroke-linejoin="round"/>
<path id="Vector_63" d="M227.332 282.049C227.002 283.848 227.108 285.706 227.643 287.451" stroke="#263238" stroke-linecap="round" stroke-linejoin="round"/>
<path id="Vector_64" d="M231.568 303.033C231.191 303.16 230.792 303.203 230.398 303.157C230.004 303.112 229.624 302.98 229.281 302.77C228.939 302.56 228.643 302.277 228.411 301.939C228.18 301.6 228.019 301.215 227.939 300.807" stroke="#263238" stroke-linecap="round" stroke-linejoin="round"/>
<path id="Vector_65" d="M236.383 387.027C236.383 387.027 234.971 393.824 233.714 397.415C232.458 401.007 209.922 407.595 200.109 408.961C193.644 409.809 187.138 410.26 180.623 410.311L181.244 429.099C181.244 429.099 200.25 429.499 201.591 429.099C202.933 428.698 234.929 413.665 234.929 413.665L248.738 411.766C248.738 411.766 254.541 410.282 254.767 405.548C254.993 400.814 249.867 387.354 247.538 385.261C245.208 383.169 240.294 377.619 237.343 381.032C234.392 384.445 236.383 387.027 236.383 387.027Z" fill="white" stroke="#263238" stroke-linecap="round" stroke-linejoin="round"/>
<path id="Vector_66" d="M194.009 420.759C194.009 412.641 195.986 412.433 198.245 409.213C192.407 409.898 186.539 410.265 180.665 410.311L180.199 427.555C180.199 427.555 190.606 428.564 196.946 429.039C196.423 429.885 194.009 425.982 194.009 420.759Z" fill="#8002F5" stroke="#263238" stroke-linecap="round" stroke-linejoin="round"/>
<path id="Vector_67" d="M255.374 457.265C247.856 448.385 238.299 441.677 227.614 437.78L202.82 448.895C200.894 443.927 198.339 439.254 195.223 435.005L190.592 429.069L193.571 412.047C193.571 412.047 211.419 399.196 213.72 393.631L213.805 393.453C217.392 399.285 232.952 424.528 235.875 426.976C239.179 429.766 249.091 430.108 253.383 425.938C257.676 421.768 259.667 418.993 258.678 412.745C258.678 412.745 252.07 397.801 248.427 391.197C244.784 384.593 236.863 360.983 232.895 353.682C230.071 348.458 228.899 344.778 226.894 342.314C225.502 339.794 223.86 337.436 221.995 335.28C218.027 330.828 207.112 329.715 204.796 328.676C202.481 327.637 202.156 327.281 188.94 323.126C175.723 318.971 160.841 316.522 150.265 325.204C150.265 325.204 136.06 342.923 130.497 372.098C124.934 401.274 124.538 430.805 123.889 436.014C123.239 441.223 117.605 466.584 115.953 481.172C114.301 495.76 128.789 510.407 137.712 514.948C146.636 519.489 184.972 520.157 207.451 514.948C229.93 509.739 265.625 486.114 265.625 486.114C265.625 486.114 266.939 471.511 255.374 457.265Z" fill="#8002F5" stroke="#263238" stroke-linecap="round" stroke-linejoin="round"/>
<path id="Vector_68" d="M196.932 393.082L192.399 392.919" stroke="#263238" stroke-linecap="round" stroke-linejoin="round"/>
<path id="Vector_69" d="M195.223 385.499C201.572 387.747 207.755 390.485 213.72 393.69L202.085 393.275" stroke="#263238" stroke-linecap="round" stroke-linejoin="round"/>
<path id="Vector_70" d="M256.631 394.269C257.935 396.422 258.738 398.867 258.975 401.407C258.975 404.687 259.497 409.079 258.198 407.714C256.899 406.349 256.363 401.674 256.363 401.674L256.631 394.269Z" fill="white" stroke="#263238" stroke-linecap="round" stroke-linejoin="round"/>
<path id="Vector_71" d="M248.809 390.44C248.809 390.44 253.694 387.65 255.869 391.004C258.043 394.358 257.464 401.051 255.869 404.36C254.273 407.67 252.451 404.509 252.677 401.57C252.903 398.632 248.809 390.44 248.809 390.44Z" fill="white" stroke="#263238" stroke-linecap="round" stroke-linejoin="round"/>
<path id="Vector_72" d="M246.973 386.879C246.973 386.879 251.873 384.089 254.033 387.443C256.193 390.797 255.614 397.475 254.033 400.799C252.452 404.123 250.616 400.947 250.842 398.009C251.068 395.071 246.973 386.879 246.973 386.879Z" fill="white" stroke="#263238" stroke-linecap="round" stroke-linejoin="round"/>
<path id="Vector_73" d="M244.728 383.035C244.728 383.035 249.627 380.245 251.788 383.599C253.948 386.953 253.383 393.646 251.788 396.955C250.192 400.264 248.371 397.104 248.597 394.165C248.823 391.227 244.728 383.035 244.728 383.035Z" fill="white" stroke="#263238" stroke-linecap="round" stroke-linejoin="round"/>
<path id="Vector_74" d="M232.33 248.733C232.412 254.067 231.103 259.322 228.546 263.929C221.317 275.549 214.525 274.199 211.602 283.592C208.679 292.986 204.316 302.736 208.976 308.167C213.636 313.599 217.448 310.393 217.448 310.393C217.448 310.393 220.427 318.437 212.774 326.48C205.121 334.523 191.947 331.392 188.544 330.056C186.401 329.189 184.397 327.983 182.6 326.48C182.6 326.48 180.468 332.742 169.892 332.742C159.316 332.742 147.3 325.144 147.3 311.284C147.3 297.423 154.515 288.059 156.224 282.687C157.932 277.315 153.244 260.798 160.46 250.529C167.675 240.26 178.816 232.721 187.288 232.721C195.76 232.721 212.294 237.603 212.365 237.633C213.48 238.271 220.625 235.214 222.559 235.348C229.662 235.763 232.246 241.892 232.33 248.733Z" fill="#263238" stroke="#263238" stroke-linecap="round" stroke-linejoin="round"/>
<path id="Vector_75" d="M204.74 312.293C206.282 312.509 207.844 312.509 209.385 312.293" stroke="#919191" stroke-linecap="round" stroke-linejoin="round"/>
<path id="Vector_76" d="M226.202 256.524C225.532 260.502 224.137 264.307 222.093 267.728C215.485 278.636 207.973 282.568 198.979 292.956C193.204 299.679 194.291 306.387 198.979 309.904" stroke="#919191" stroke-linecap="round" stroke-linejoin="round"/>
<path id="Vector_77" d="M226.329 244.934C226.605 246.57 226.742 248.229 226.739 249.891" stroke="#919191" stroke-linecap="round" stroke-linejoin="round"/>
<path id="Vector_78" d="M217.448 255.337C217.448 255.337 216.036 270.696 209.908 279.615C203.78 288.534 191.552 292.971 191.99 302.41" stroke="#919191" stroke-linecap="round" stroke-linejoin="round"/>
<path id="Vector_79" d="M274.352 512.44C274.352 512.44 283.162 560.017 290.703 583.138C298.243 606.259 305.783 627.406 307.647 629.394C309.51 631.383 314.565 638.639 314.565 638.639C312.229 640.6 309.374 641.756 306.39 641.949C301.984 641.949 296.336 636.013 291.296 632.689C286.255 629.364 285.648 627.406 275.58 623.443C265.512 619.481 273.702 608.915 276.215 603.617C277.669 600.758 278.526 597.606 278.729 594.372C274.733 579.491 267.649 565.726 257.986 554.066C242.299 535.576 239.15 492.688 239.15 492.688L269.325 480.816L274.352 512.44Z" fill="white" stroke="#263238" stroke-linecap="round" stroke-linejoin="round"/>
<path id="Vector_80" d="M306.404 627.02L304.583 627.406C304.583 627.406 293.894 612.209 285.732 606.926C282.95 604.908 279.678 603.765 276.3 603.632C273.773 608.915 265.611 619.481 275.665 623.443C285.718 627.406 286.354 629.379 291.38 632.689C296.407 635.998 302.069 641.949 306.475 641.949C309.459 641.756 312.314 640.6 314.65 638.639C314.65 638.639 309.609 631.368 307.731 629.394C307.196 628.664 306.75 627.866 306.404 627.02Z" fill="#8002F5" stroke="#263238" stroke-linecap="round" stroke-linejoin="round"/>
<path id="Vector_81" d="M301.335 640.064C296.365 636.458 291.875 628.444 283.784 623.443C276.427 618.902 272.643 618.724 271.076 619.065C271.46 620.125 272.077 621.074 272.877 621.835C273.677 622.596 274.637 623.147 275.679 623.443C285.746 627.406 286.368 629.379 291.394 632.689C294.571 634.826 298.073 638.12 301.335 640.064Z" fill="#8002F5" stroke="#263238" stroke-linecap="round" stroke-linejoin="round"/>
<path id="Vector_82" d="M306.404 641.948C306.082 641.936 305.761 641.901 305.444 641.845C305.76 641.908 306.082 641.943 306.404 641.948Z" fill="#8002F5" stroke="#263238" stroke-linecap="round" stroke-linejoin="round"/>
<path id="Vector_83" d="M218.323 440.748C218.323 440.748 248.54 429.499 251.364 436.919C254.188 444.339 267.122 472.016 262.406 483.383C257.69 494.751 224.536 450.735 219.82 449.786C215.104 448.836 217.773 444.072 218.323 440.748Z" fill="white" stroke="#263238" stroke-linecap="round" stroke-linejoin="round"/>
<path id="Vector_84" d="M247.933 455.247C247.933 455.247 282.287 452.279 288.881 458.719C295.475 465.16 272.883 542.313 260.641 566.547C241.452 604.448 247.255 614.376 247.255 614.376C247.255 614.376 248.667 620.312 258.085 629.721C267.503 639.129 270.327 640.598 267.023 642.082C263.719 643.566 249.613 642.082 248.201 641.088C246.789 640.094 236.439 631.205 227.021 628.237C217.603 625.269 219.015 623.28 223.251 614.376C227.487 605.472 227.021 612.892 231.723 597.562C237.36 578.671 241.812 559.412 245.053 539.909C247.552 524.015 251.364 506.563 250.291 490.403L247.933 455.247Z" fill="white" stroke="#263238" stroke-linecap="round" stroke-linejoin="round"/>
<path id="Vector_85" d="M273.095 479.406C269.497 470.285 263.309 462.552 255.374 457.265C240.351 447.189 227.614 437.78 227.614 437.78L202.82 448.895C202.82 448.895 208.863 459.669 177.799 465.115C153.88 469.3 131.923 463.231 120.076 455.914C118.424 464.537 116.702 474.123 115.84 481.142C114.188 495.73 128.732 510.318 137.656 514.844C146.58 519.37 218.479 528.734 237.837 515.66C273.095 491.961 273.095 479.406 273.095 479.406Z" fill="#263238" stroke="#263238" stroke-linecap="round" stroke-linejoin="round"/>
<path id="Vector_86" d="M200.01 457.072C196.692 459.936 190.225 463.008 177.799 465.13C153.88 469.315 131.923 463.246 120.076 455.929C119.653 458.141 119.229 460.381 118.806 462.682C126.925 467.816 143.982 476.512 163.213 474.034C186.158 471.081 196.353 464.492 200.01 457.072Z" fill="#8002F5" stroke="#263238" stroke-linecap="round" stroke-linejoin="round"/>
<path id="Vector_87" d="M181.682 488.859C180.581 490.343 179.437 491.827 178.279 493.311" stroke="white" stroke-linecap="round" stroke-linejoin="round"/>
<path id="Vector_88" d="M198.979 460.693C194.634 469.09 189.785 477.19 184.464 484.942" stroke="white" stroke-linecap="round" stroke-linejoin="round"/>
<path id="Vector_89" d="M188.629 470.087C188.629 470.087 180.157 481.959 171.219 488.889" stroke="white" stroke-linecap="round" stroke-linejoin="round"/>
<path id="Vector_90" d="M258.085 629.691C248.667 620.312 247.255 614.376 247.255 614.376C246.94 614.068 246.69 613.694 246.521 613.278C245.886 613.975 243.965 615.296 239.263 613.396C235.183 611.749 231.314 608.944 227.233 607.06C226.259 608.885 225.313 610.028 223.251 614.376C219.015 623.28 217.603 625.268 227.021 628.236C236.439 631.204 246.789 640.108 248.201 641.088C249.613 642.067 263.733 643.566 267.023 642.082C270.313 640.598 267.503 639.085 258.085 629.691Z" fill="#8002F5" stroke="#263238" stroke-linecap="round" stroke-linejoin="round"/>
<path id="Vector_91" d="M266.755 484.437L282.767 474.049" stroke="#263238" stroke-linecap="round" stroke-linejoin="round"/>
<path id="Vector_92" d="M75.4714 390.381C75.4714 390.381 126.473 383.673 159.062 393.349L164.018 523.659H87.544C87.544 523.659 92.4719 453.659 75.4714 390.381Z" fill="#919191" stroke="#263238" stroke-linecap="round" stroke-linejoin="round"/>
<path id="Vector_93" d="M159.062 393.349C126.473 383.673 75.4714 390.381 75.4714 390.381C80.9292 411.471 84.5541 433.038 86.3014 454.816C114.78 469.761 140.863 489.289 163.608 512.692L159.062 393.349Z" fill="#757575" stroke="#263238" stroke-linecap="round" stroke-linejoin="round"/>
<path id="Vector_94" d="M255.233 645.54C254.656 645.542 254.092 645.358 253.618 645.013C253.143 644.668 252.781 644.179 252.579 643.611C241.283 611.616 238.459 528.556 238.289 525.039C238.263 524.252 238.535 523.486 239.046 522.91C239.557 522.334 240.265 521.995 241.014 521.967C241.763 521.94 242.492 522.226 243.04 522.763C243.588 523.3 243.911 524.044 243.937 524.831C243.937 525.692 246.874 610.443 257.874 641.533C258.134 642.271 258.104 643.088 257.792 643.803C257.479 644.518 256.91 645.073 256.207 645.347C255.897 645.477 255.567 645.542 255.233 645.54Z" fill="white" stroke="#263238" stroke-linecap="round" stroke-linejoin="round"/>
<path id="Vector_95" d="M193.741 645.54C193.166 645.539 192.605 645.354 192.134 645.009C191.662 644.664 191.301 644.177 191.1 643.611C179.804 611.616 176.98 528.556 176.797 525.039C176.77 524.252 177.043 523.486 177.554 522.91C178.065 522.334 178.773 521.995 179.522 521.967C180.271 521.94 180.999 522.226 181.548 522.763C182.096 523.3 182.418 524.044 182.445 524.831C182.445 525.692 185.381 610.443 196.395 641.533C196.655 642.271 196.626 643.088 196.313 643.803C196.001 644.518 195.431 645.073 194.729 645.347C194.414 645.477 194.079 645.542 193.741 645.54Z" fill="white" stroke="#263238" stroke-linecap="round" stroke-linejoin="round"/>
<path id="Vector_96" d="M254.471 523.6H86.2026V517.664H248.851C250.349 517.664 251.785 518.289 252.845 519.402C253.904 520.516 254.499 522.025 254.499 523.6H254.471Z" fill="#919191" stroke="#263238" stroke-linecap="round" stroke-linejoin="round"/>
<path id="Vector_97" d="M254.456 522.16H86.2026V528.052H254.456V522.16Z" fill="white" stroke="#263238" stroke-linecap="round" stroke-linejoin="round"/>
<path id="Vector_98" d="M157.805 645.54C157.38 645.55 156.959 645.458 156.572 645.272C156.185 645.087 155.843 644.812 155.572 644.468C155.3 644.124 155.106 643.72 155.004 643.287C154.902 642.853 154.894 642.401 154.981 641.964C170.951 562.451 156.393 395.249 156.195 393.572C156.161 393.182 156.2 392.789 156.31 392.415C156.421 392.041 156.6 391.694 156.838 391.393C157.076 391.091 157.368 390.843 157.697 390.66C158.027 390.478 158.387 390.365 158.758 390.329C159.507 390.256 160.253 390.499 160.832 391.004C161.41 391.509 161.774 392.235 161.843 393.023C161.999 394.714 176.669 562.792 160.53 643.18C160.399 643.841 160.057 644.434 159.562 644.863C159.066 645.292 158.447 645.531 157.805 645.54Z" fill="white" stroke="#263238" stroke-linecap="round" stroke-linejoin="round"/>
<path id="Vector_99" d="M70.2611 643.373C69.9979 643.377 69.7359 643.336 69.4845 643.255C68.7667 643.04 68.1587 642.536 67.7936 641.852C67.4285 641.168 67.3359 640.36 67.5359 639.604C104.248 502.631 73.0851 392.34 72.7745 391.242C72.5965 390.503 72.6956 389.721 73.0513 389.057C73.4069 388.393 73.9919 387.898 74.685 387.675C75.3782 387.452 76.1264 387.518 76.7748 387.858C77.4232 388.199 77.9222 388.789 78.1683 389.505C78.4931 390.618 110.192 502.482 72.9721 641.207C72.8062 641.829 72.4517 642.377 71.9624 642.768C71.4731 643.159 70.8758 643.372 70.2611 643.373Z" fill="white" stroke="#263238" stroke-linecap="round" stroke-linejoin="round"/>
</g>
</g>
<g id="video">
<path id="Vector_100" d="M354.772 103.88H194.496C185.337 103.88 177.912 111.4 177.912 120.676V170.188C177.912 179.464 185.337 186.984 194.496 186.984H354.772C363.931 186.984 371.356 179.464 371.356 170.188V120.676C371.356 111.4 363.931 103.88 354.772 103.88Z" fill="#F5F5F4"/>
<g id="Group" filter="url(#filter0_d_1_274)">
<path id="Vector_101" d="M227.664 123.037H205.552C199.446 123.037 194.496 128.05 194.496 134.234V156.63C194.496 162.814 199.446 167.827 205.552 167.827H227.664C233.77 167.827 238.72 162.814 238.72 156.63V134.234C238.72 128.05 233.77 123.037 227.664 123.037Z" fill="#7F56D9"/>
<g id="Clip path group">
<mask id="mask0_1_274" style="mask-type:luminance" maskUnits="userSpaceOnUse" x="200" y="128" width="34" height="34">
<g id="clip0_1_207">
<path id="Vector_102" d="M233.011 128.581H200.494V161.515H233.011V128.581Z" fill="white"/>
</g>
</mask>
<g mask="url(#mask0_1_274)">
<g id="Group_2">
<path id="Vector_103" d="M219.191 154.516H213.501L212.823 152.664H202.594V135.03C202.594 134.207 203.271 133.521 204.084 133.521H229.421C230.234 133.521 230.911 134.207 230.911 135.03V152.732H220.546L219.191 154.516ZM214.246 153.487H218.717L220.072 151.635H229.895V135.03C229.895 134.756 229.692 134.55 229.421 134.55H204.084C203.813 134.55 203.61 134.756 203.61 135.03V151.703H213.568L214.246 153.487Z" fill="white"/>
<path id="Vector_104" d="M228.134 156.575H205.371C202.932 156.575 200.968 154.585 200.968 152.115V151.566H213.501L214.178 153.419H218.649L220.004 151.566H232.469V152.115C232.537 154.585 230.505 156.575 228.134 156.575ZM202.052 152.664C202.323 154.311 203.678 155.546 205.371 155.546H228.066C229.759 155.546 231.182 154.311 231.385 152.664H220.546L219.191 154.516H213.501L212.823 152.664H202.052Z" fill="white"/>
<path id="Vector_105" d="M211.807 137.157H206.591V141.754H211.807V137.157Z" fill="white"/>
<path id="Vector_106" d="M212.281 142.235H206.049V136.608H212.281V142.235ZM207.065 141.206H211.265V137.638H207.065V141.206Z" fill="white"/>
<path id="Vector_107" d="M211.807 144.43H206.591V149.027H211.807V144.43Z" fill="white"/>
<path id="Vector_108" d="M212.281 149.576H206.049V143.95H212.281V149.576ZM207.065 148.547H211.265V144.979H207.065V148.547Z" fill="white"/>
<path id="Vector_109" d="M227.185 138.873H215.059V139.902H227.185V138.873Z" fill="white"/>
<path id="Vector_110" d="M227.185 146.214H215.059V147.243H227.185V146.214Z" fill="white"/>
</g>
</g>
</g>
</g>
<path id="Vector_111" d="M262.164 142.633V140.099L268.009 134.616C268.506 134.129 268.924 133.69 269.26 133.301C269.602 132.911 269.861 132.529 270.038 132.155C270.214 131.776 270.303 131.368 270.303 130.929C270.303 130.442 270.193 130.022 269.974 129.67C269.755 129.313 269.456 129.039 269.075 128.85C268.696 128.655 268.266 128.558 267.785 128.558C267.282 128.558 266.843 128.66 266.469 128.866C266.095 129.072 265.806 129.367 265.603 129.751C265.4 130.136 265.299 130.593 265.299 131.124H262.003C262.003 130.036 262.246 129.091 262.733 128.289C263.219 127.488 263.9 126.868 264.778 126.43C265.655 125.991 266.664 125.772 267.809 125.772C268.985 125.772 270.008 125.983 270.88 126.405C271.757 126.822 272.438 127.402 272.925 128.143C273.411 128.885 273.655 129.735 273.655 130.694C273.655 131.322 273.532 131.942 273.285 132.553C273.045 133.165 272.614 133.845 271.995 134.592C271.374 135.334 270.501 136.225 269.372 137.264L266.974 139.644V139.757H273.871V142.633H262.164ZM276.483 142.633V125.999H279.955V133.333H280.172L286.082 125.999H290.244L284.15 133.447L290.317 142.633H286.162L281.663 135.794L279.955 137.906V142.633H276.483ZM295.872 140.099V128.598H298.742V140.099H295.872ZM291.629 135.802V132.895H302.984V135.802H291.629Z" fill="#101828"/>
<path id="Vector_112" opacity="0.5" d="M262.429 156.548L265.355 164.949H265.47L268.396 156.548H269.647L266.029 166.528H264.797L261.179 156.548H262.429ZM271.027 166.528V159.043H272.163V166.528H271.027ZM271.604 157.796C271.383 157.796 271.193 157.719 271.033 157.567C270.876 157.414 270.797 157.23 270.797 157.016C270.797 156.802 270.876 156.618 271.033 156.465C271.193 156.313 271.383 156.236 271.604 156.236C271.827 156.236 272.015 156.313 272.173 156.465C272.333 156.618 272.413 156.802 272.413 157.016C272.413 157.23 272.333 157.414 272.173 157.567C272.015 157.719 271.827 157.796 271.604 157.796ZM277.033 166.684C276.418 166.684 275.874 166.527 275.403 166.211C274.931 165.893 274.562 165.445 274.295 164.866C274.03 164.285 273.896 163.598 273.896 162.805C273.896 162.019 274.03 161.337 274.295 160.759C274.562 160.18 274.932 159.734 275.407 159.418C275.881 159.103 276.431 158.946 277.053 158.946C277.533 158.946 277.914 159.027 278.193 159.189C278.476 159.349 278.69 159.53 278.838 159.735C278.989 159.937 279.105 160.102 279.189 160.232H279.285V156.548H280.42V166.528H279.324V165.378H279.189C279.105 165.515 278.987 165.687 278.833 165.895C278.679 166.099 278.459 166.283 278.174 166.445C277.888 166.605 277.508 166.684 277.033 166.684ZM277.188 165.651C277.643 165.651 278.028 165.531 278.342 165.29C278.656 165.047 278.896 164.711 279.059 164.282C279.223 163.85 279.305 163.351 279.305 162.786C279.305 162.227 279.224 161.738 279.064 161.319C278.904 160.897 278.666 160.568 278.352 160.334C278.038 160.097 277.649 159.979 277.188 159.979C276.706 159.979 276.305 160.104 275.984 160.354C275.667 160.601 275.428 160.937 275.267 161.363C275.11 161.785 275.031 162.259 275.031 162.786C275.031 163.318 275.112 163.803 275.273 164.238C275.436 164.67 275.676 165.014 275.994 165.271C276.315 165.524 276.712 165.651 277.188 165.651ZM285.757 166.684C285.044 166.684 284.43 166.525 283.914 166.207C283.4 165.885 283.005 165.437 282.725 164.862C282.449 164.283 282.312 163.611 282.312 162.844C282.312 162.077 282.449 161.402 282.725 160.817C283.005 160.229 283.392 159.771 283.89 159.443C284.39 159.111 284.974 158.946 285.641 158.946C286.026 158.946 286.406 159.011 286.781 159.141C287.157 159.271 287.498 159.482 287.806 159.774C288.114 160.063 288.359 160.447 288.543 160.924C288.725 161.402 288.816 161.99 288.816 162.688V163.176H283.12V162.181H287.662C287.662 161.759 287.579 161.382 287.412 161.051C287.248 160.719 287.014 160.458 286.709 160.266C286.408 160.075 286.051 159.979 285.641 159.979C285.189 159.979 284.798 160.092 284.467 160.32C284.14 160.544 283.888 160.836 283.712 161.197C283.535 161.558 283.447 161.944 283.447 162.357V163.02C283.447 163.585 283.543 164.064 283.735 164.457C283.931 164.847 284.202 165.144 284.549 165.349C284.895 165.55 285.298 165.651 285.757 165.651C286.055 165.651 286.324 165.609 286.565 165.524C286.808 165.437 287.019 165.307 287.195 165.134C287.372 164.959 287.508 164.741 287.604 164.482L288.702 164.793C288.586 165.17 288.392 165.502 288.119 165.787C287.846 166.07 287.509 166.291 287.108 166.45C286.708 166.606 286.257 166.684 285.757 166.684ZM293.547 166.684C292.879 166.684 292.294 166.523 291.79 166.202C291.289 165.88 290.898 165.43 290.616 164.852C290.337 164.274 290.197 163.598 290.197 162.825C290.197 162.045 290.337 161.364 290.616 160.783C290.898 160.201 291.289 159.75 291.79 159.428C292.294 159.106 292.879 158.946 293.547 158.946C294.213 158.946 294.798 159.106 295.298 159.428C295.801 159.75 296.192 160.201 296.471 160.783C296.754 161.364 296.895 162.045 296.895 162.825C296.895 163.598 296.754 164.274 296.471 164.852C296.192 165.43 295.801 165.88 295.298 166.202C294.798 166.523 294.213 166.684 293.547 166.684ZM293.547 165.651C294.053 165.651 294.47 165.52 294.798 165.256C295.125 164.993 295.367 164.647 295.524 164.218C295.681 163.79 295.76 163.325 295.76 162.825C295.76 162.324 295.681 161.858 295.524 161.426C295.367 160.994 295.125 160.645 294.798 160.378C294.47 160.112 294.053 159.979 293.547 159.979C293.04 159.979 292.623 160.112 292.296 160.378C291.968 160.645 291.726 160.994 291.568 161.426C291.411 161.858 291.333 162.324 291.333 162.825C291.333 163.325 291.411 163.79 291.568 164.218C291.726 164.647 291.968 164.993 292.296 165.256C292.623 165.52 293.04 165.651 293.547 165.651ZM310.523 159.667H309.329C309.258 159.319 309.135 159.014 308.958 158.751C308.786 158.488 308.573 158.267 308.323 158.088C308.077 157.906 307.802 157.77 307.5 157.679C307.2 157.588 306.885 157.542 306.557 157.542C305.961 157.542 305.42 157.695 304.936 158C304.455 158.306 304.072 158.756 303.786 159.35C303.504 159.945 303.362 160.674 303.362 161.538C303.362 162.402 303.504 163.132 303.786 163.726C304.072 164.321 304.455 164.771 304.936 165.076C305.42 165.381 305.961 165.534 306.557 165.534C306.885 165.534 307.2 165.489 307.5 165.398C307.802 165.307 308.077 165.172 308.323 164.993C308.573 164.811 308.786 164.589 308.958 164.326C309.135 164.059 309.258 163.754 309.329 163.409H310.523C310.432 163.919 310.269 164.376 310.031 164.779C309.794 165.182 309.499 165.524 309.146 165.807C308.793 166.086 308.397 166.299 307.957 166.445C307.521 166.592 307.055 166.665 306.557 166.665C305.717 166.665 304.97 166.457 304.315 166.041C303.661 165.625 303.147 165.034 302.771 164.267C302.396 163.5 302.208 162.591 302.208 161.538C302.208 160.486 302.396 159.576 302.771 158.809C303.147 158.043 303.661 157.451 304.315 157.035C304.97 156.62 305.717 156.412 306.557 156.412C307.055 156.412 307.521 156.485 307.957 156.631C308.397 156.777 308.793 156.992 309.146 157.274C309.499 157.554 309.794 157.895 310.031 158.298C310.269 158.697 310.432 159.154 310.523 159.667ZM315.299 166.684C314.632 166.684 314.046 166.523 313.542 166.202C313.042 165.88 312.651 165.43 312.369 164.852C312.09 164.274 311.95 163.598 311.95 162.825C311.95 162.045 312.09 161.364 312.369 160.783C312.651 160.201 313.042 159.75 313.542 159.428C314.046 159.106 314.632 158.946 315.299 158.946C315.966 158.946 316.55 159.106 317.051 159.428C317.554 159.75 317.945 160.201 318.224 160.783C318.507 161.364 318.648 162.045 318.648 162.825C318.648 163.598 318.507 164.274 318.224 164.852C317.945 165.43 317.554 165.88 317.051 166.202C316.55 166.523 315.966 166.684 315.299 166.684ZM315.299 165.651C315.806 165.651 316.222 165.52 316.55 165.256C316.877 164.993 317.119 164.647 317.276 164.218C317.434 163.79 317.512 163.325 317.512 162.825C317.512 162.324 317.434 161.858 317.276 161.426C317.119 160.994 316.877 160.645 316.55 160.378C316.222 160.112 315.806 159.979 315.299 159.979C314.792 159.979 314.375 160.112 314.048 160.378C313.72 160.645 313.478 160.994 313.321 161.426C313.164 161.858 313.085 162.324 313.085 162.825C313.085 163.325 313.164 163.79 313.321 164.218C313.478 164.647 313.72 164.993 314.048 165.256C314.375 165.52 314.792 165.651 315.299 165.651ZM325.038 163.468V159.043H326.174V166.528H325.038V165.261H324.961C324.788 165.641 324.519 165.965 324.153 166.231C323.787 166.494 323.326 166.626 322.767 166.626C322.306 166.626 321.895 166.523 321.535 166.319C321.177 166.111 320.894 165.799 320.689 165.383C320.484 164.964 320.381 164.436 320.381 163.799V159.043H321.516V163.721C321.516 164.267 321.667 164.702 321.969 165.027C322.273 165.352 322.662 165.515 323.133 165.515C323.415 165.515 323.702 165.441 323.994 165.295C324.289 165.149 324.536 164.925 324.736 164.623C324.937 164.321 325.038 163.936 325.038 163.468ZM328.254 166.528V159.043H329.35V160.174H329.427C329.563 159.803 329.807 159.503 330.159 159.272C330.512 159.042 330.909 158.926 331.352 158.926C331.435 158.926 331.54 158.928 331.665 158.931C331.79 158.934 331.885 158.939 331.949 158.946V160.115C331.91 160.105 331.822 160.091 331.684 160.071C331.55 160.049 331.407 160.037 331.256 160.037C330.897 160.037 330.576 160.114 330.293 160.266C330.014 160.416 329.793 160.624 329.63 160.89C329.47 161.153 329.389 161.454 329.389 161.792V166.528H328.254ZM338.529 160.719L337.51 161.012C337.445 160.84 337.351 160.672 337.226 160.51C337.104 160.344 336.937 160.208 336.726 160.101C336.513 159.993 336.242 159.94 335.913 159.94C335.46 159.94 335.083 160.045 334.782 160.257C334.484 160.464 334.334 160.729 334.334 161.051C334.334 161.337 334.437 161.563 334.642 161.728C334.848 161.894 335.168 162.032 335.605 162.142L336.701 162.415C337.362 162.578 337.855 162.826 338.178 163.161C338.502 163.492 338.664 163.919 338.664 164.443C338.664 164.871 338.542 165.255 338.299 165.593C338.058 165.93 337.721 166.197 337.288 166.392C336.856 166.587 336.352 166.684 335.777 166.684C335.024 166.684 334.4 166.518 333.906 166.187C333.412 165.856 333.099 165.372 332.968 164.735L334.046 164.462C334.148 164.865 334.342 165.167 334.627 165.368C334.916 165.57 335.293 165.671 335.758 165.671C336.288 165.671 336.708 165.557 337.019 165.329C337.333 165.099 337.491 164.823 337.491 164.501C337.491 164.241 337.4 164.023 337.221 163.848C337.042 163.669 336.765 163.536 336.393 163.448L335.162 163.156C334.485 162.994 333.988 162.742 333.67 162.401C333.355 162.056 333.198 161.626 333.198 161.109C333.198 160.687 333.316 160.313 333.55 159.988C333.787 159.664 334.11 159.409 334.517 159.223C334.927 159.038 335.392 158.946 335.913 158.946C336.643 158.946 337.218 159.108 337.635 159.433C338.055 159.758 338.353 160.187 338.529 160.719ZM343.472 166.684C342.76 166.684 342.146 166.525 341.629 166.207C341.116 165.885 340.72 165.437 340.441 164.862C340.165 164.283 340.027 163.611 340.027 162.844C340.027 162.077 340.165 161.402 340.441 160.817C340.72 160.229 341.108 159.771 341.605 159.443C342.105 159.111 342.69 158.946 343.356 158.946C343.741 158.946 344.122 159.011 344.497 159.141C344.872 159.271 345.214 159.482 345.522 159.774C345.83 160.063 346.075 160.447 346.258 160.924C346.441 161.402 346.532 161.99 346.532 162.688V163.176H340.835V162.181H345.378C345.378 161.759 345.294 161.382 345.128 161.051C344.963 160.719 344.729 160.458 344.425 160.266C344.123 160.075 343.767 159.979 343.356 159.979C342.905 159.979 342.513 160.092 342.183 160.32C341.855 160.544 341.604 160.836 341.427 161.197C341.251 161.558 341.162 161.944 341.162 162.357V163.02C341.162 163.585 341.259 164.064 341.451 164.457C341.647 164.847 341.918 165.144 342.264 165.349C342.611 165.55 343.013 165.651 343.472 165.651C343.77 165.651 344.04 165.609 344.281 165.524C344.524 165.437 344.735 165.307 344.911 165.134C345.087 164.959 345.224 164.741 345.32 164.482L346.417 164.793C346.301 165.17 346.107 165.502 345.835 165.787C345.562 166.07 345.225 166.291 344.824 166.45C344.423 166.606 343.973 166.684 343.472 166.684ZM353.495 160.719L352.474 161.012C352.41 160.84 352.316 160.672 352.19 160.51C352.069 160.344 351.902 160.208 351.69 160.101C351.479 159.993 351.208 159.94 350.877 159.94C350.425 159.94 350.048 160.045 349.746 160.257C349.448 160.464 349.299 160.729 349.299 161.051C349.299 161.337 349.401 161.563 349.607 161.728C349.812 161.894 350.133 162.032 350.569 162.142L351.667 162.415C352.327 162.578 352.819 162.826 353.143 163.161C353.467 163.492 353.629 163.919 353.629 164.443C353.629 164.871 353.507 165.255 353.264 165.593C353.023 165.93 352.686 166.197 352.253 166.392C351.82 166.587 351.316 166.684 350.743 166.684C349.988 166.684 349.365 166.518 348.871 166.187C348.377 165.856 348.064 165.372 347.932 164.735L349.01 164.462C349.113 164.865 349.307 165.167 349.593 165.368C349.881 165.57 350.258 165.671 350.723 165.671C351.252 165.671 351.673 165.557 351.984 165.329C352.298 165.099 352.455 164.823 352.455 164.501C352.455 164.241 352.366 164.023 352.186 163.848C352.006 163.669 351.731 163.536 351.359 163.448L350.126 163.156C349.45 162.994 348.952 162.742 348.635 162.401C348.321 162.056 348.164 161.626 348.164 161.109C348.164 160.687 348.28 160.313 348.515 159.988C348.752 159.664 349.074 159.409 349.482 159.223C349.893 159.038 350.358 158.946 350.877 158.946C351.609 158.946 352.182 159.108 352.6 159.433C353.02 159.758 353.318 160.187 353.495 160.719Z" fill="#101828"/>
<path id="Vector_113" d="M354.772 104.23H194.496C185.528 104.23 178.258 111.593 178.258 120.676V170.188C178.258 179.271 185.528 186.634 194.496 186.634H354.772C363.74 186.634 371.01 179.271 371.01 170.188V120.676C371.01 111.593 363.74 104.23 354.772 104.23Z" stroke="#7F56D9" stroke-width="0.765"/>
</g>
<g id="tutor">
<path id="Vector_114" d="M682.893 286.412H521.543C508.782 286.412 498.436 295.809 498.436 307.4V363.368C498.436 374.959 508.782 384.356 521.543 384.356H682.893C695.654 384.356 706 374.959 706 363.368V307.4C706 295.809 695.654 286.412 682.893 286.412Z" fill="#F5F5F4"/>
<g id="Group_3" filter="url(#filter1_d_1_274)">
<path id="Vector_115" d="M567.758 307.4H536.948C528.44 307.4 521.543 313.664 521.543 321.392V349.376C521.543 357.104 528.44 363.368 536.948 363.368H567.758C576.266 363.368 583.163 357.104 583.163 349.376V321.392C583.163 313.664 576.266 307.4 567.758 307.4Z" fill="#7F56D9"/>
<g id="Clip path group_2">
<mask id="mask1_1_274" style="mask-type:luminance" maskUnits="userSpaceOnUse" x="533" y="317" width="39" height="36">
<g id="clip0_1_222">
<path id="Vector_116" d="M571.61 317.894H533.097V352.874H571.61V317.894Z" fill="white"/>
</g>
</mask>
<g mask="url(#mask1_1_274)">
<g id="Group_4">
<path id="Vector_117" d="M567.999 341.578H566.635V340.485H567.999C568.962 340.485 569.764 339.756 569.764 338.882V331.23C569.764 329.845 568.48 328.679 566.956 328.679H558.13C556.606 328.679 555.322 329.845 555.322 331.23V338.882C555.322 339.756 556.124 340.485 557.087 340.485H558.451V341.578H557.087C555.402 341.578 554.118 340.339 554.118 338.882V331.23C554.118 329.189 555.884 327.586 558.13 327.586H567.036C569.283 327.586 571.048 329.189 571.048 331.23V338.882C571.048 340.412 569.684 341.578 567.999 341.578ZM562.543 326.42C560.136 326.42 558.13 324.598 558.13 322.412C558.13 320.226 560.136 318.404 562.543 318.404C564.95 318.404 566.956 320.226 566.956 322.412C566.956 324.598 565.03 326.42 562.543 326.42ZM562.543 319.57C560.778 319.57 559.334 320.882 559.334 322.485C559.334 324.088 560.778 325.4 562.543 325.4C564.308 325.4 565.752 324.088 565.752 322.485C565.752 320.882 564.308 319.57 562.543 319.57Z" fill="#F5F5F4"/>
<path id="Vector_118" d="M564.629 352.364C563.827 352.364 563.105 351.999 562.623 351.489C562.142 351.999 561.42 352.364 560.618 352.364C559.173 352.364 557.97 351.27 557.97 349.959V332.177H559.173V349.959C559.173 350.687 559.815 351.27 560.618 351.27C561.42 351.27 561.981 350.615 561.981 349.959V341.068H563.185V349.959C563.185 350.687 563.827 351.27 564.629 351.27C565.432 351.27 566.073 350.687 566.073 349.959V332.177H567.277V349.959C567.277 351.27 566.073 352.364 564.629 352.364Z" fill="#F5F5F4"/>
<path id="Vector_119" d="M555.964 344.785H533.739V321.902H556.365V322.995H534.942V343.692H555.964V344.785Z" fill="#F5F5F4"/>
<path id="Vector_120" d="M552.032 332.105H538.232V333.198H552.032V332.105Z" fill="#F5F5F4"/>
<path id="Vector_121" d="M552.032 335.821H538.232V336.914H552.032V335.821Z" fill="#F5F5F4"/>
<path id="Vector_122" d="M552.032 339.611H538.232V340.704H552.032V339.611Z" fill="#F5F5F4"/>
</g>
</g>
</g>
</g>
<g id="Vector_123" opacity="0.5" filter="url(#filter2_d_1_274)">
<mask id="path-124-inside-1_1_274" fill="white">
<path d="M599.507 312.273V310.933H609.805V312.273H605.488V323.404H603.825V312.273H599.507ZM617.245 319.58V314.051H618.827V323.404H617.245V321.821H617.137C616.897 322.296 616.52 322.7 616.011 323.032C615.502 323.361 614.858 323.526 614.08 323.526C613.437 323.526 612.864 323.398 612.365 323.142C611.864 322.882 611.47 322.493 611.184 321.973C610.898 321.449 610.755 320.79 610.755 319.994V314.051H612.337V319.897C612.337 320.579 612.547 321.122 612.967 321.528C613.392 321.934 613.933 322.137 614.59 322.137C614.984 322.137 615.383 322.046 615.79 321.863C616.201 321.681 616.546 321.401 616.822 321.023C617.104 320.645 617.245 320.164 617.245 319.58ZM626.203 314.051V315.269H620.866V314.051H626.203ZM622.422 311.81H624.004V320.725C624.004 321.131 624.069 321.435 624.199 321.638C624.332 321.837 624.502 321.971 624.707 322.04C624.918 322.105 625.139 322.137 625.372 322.137C625.546 322.137 625.689 322.129 625.801 322.113C625.913 322.093 626.003 322.076 626.069 322.064L626.39 323.355C626.283 323.392 626.133 323.428 625.942 323.465C625.75 323.505 625.505 323.526 625.211 323.526C624.764 323.526 624.326 323.438 623.897 323.264C623.473 323.089 623.119 322.823 622.837 322.466C622.56 322.109 622.422 321.658 622.422 321.114V311.81ZM632.655 323.599C631.727 323.599 630.911 323.398 630.209 322.996C629.511 322.594 628.966 322.032 628.573 321.309C628.184 320.587 627.99 319.742 627.99 318.776C627.99 317.802 628.184 316.951 628.573 316.225C628.966 315.498 629.511 314.934 630.209 314.532C630.911 314.13 631.727 313.929 632.655 313.929C633.585 313.929 634.398 314.13 635.096 314.532C635.798 314.934 636.343 315.498 636.732 316.225C637.125 316.951 637.322 317.802 637.322 318.776C637.322 319.742 637.125 320.587 636.732 321.309C636.343 322.032 635.798 322.594 635.096 322.996C634.398 323.398 633.585 323.599 632.655 323.599ZM632.655 322.308C633.361 322.308 633.943 322.143 634.398 321.815C634.854 321.486 635.193 321.053 635.412 320.518C635.631 319.982 635.74 319.401 635.74 318.776C635.74 318.151 635.631 317.568 635.412 317.028C635.193 316.489 634.854 316.052 634.398 315.719C633.943 315.386 633.361 315.22 632.655 315.22C631.949 315.22 631.369 315.386 630.912 315.719C630.457 316.052 630.119 316.489 629.9 317.028C629.681 317.568 629.572 318.151 629.572 318.776C629.572 319.401 629.681 319.982 629.9 320.518C630.119 321.053 630.457 321.486 630.912 321.815C631.369 322.143 631.949 322.308 632.655 322.308ZM639.737 323.404V314.051H641.265V315.464H641.372C641.56 315.001 641.9 314.625 642.392 314.337C642.884 314.049 643.438 313.905 644.054 313.905C644.17 313.905 644.316 313.907 644.49 313.911C644.665 313.915 644.797 313.921 644.886 313.929V315.39C644.832 315.378 644.709 315.36 644.517 315.336C644.329 315.307 644.13 315.293 643.92 315.293C643.42 315.293 642.973 315.389 642.579 315.579C642.19 315.766 641.882 316.026 641.654 316.359C641.431 316.687 641.319 317.063 641.319 317.485V323.404H639.737ZM654.055 316.146L652.634 316.511C652.545 316.296 652.412 316.087 652.239 315.884C652.069 315.677 651.836 315.506 651.541 315.372C651.246 315.238 650.868 315.171 650.408 315.171C649.778 315.171 649.252 315.303 648.833 315.567C648.416 315.827 648.209 316.158 648.209 316.56C648.209 316.917 648.352 317.199 648.638 317.406C648.924 317.613 649.372 317.786 649.978 317.924L651.508 318.265C652.429 318.468 653.115 318.778 653.565 319.196C654.017 319.61 654.242 320.144 654.242 320.798C654.242 321.334 654.073 321.813 653.733 322.235C653.398 322.657 652.928 322.99 652.326 323.233C651.721 323.477 651.02 323.599 650.22 323.599C649.17 323.599 648.301 323.392 647.612 322.978C646.924 322.564 646.488 321.959 646.305 321.163L647.807 320.822C647.95 321.325 648.22 321.703 648.618 321.955C649.021 322.206 649.545 322.332 650.194 322.332C650.931 322.332 651.516 322.19 651.951 321.906C652.389 321.618 652.608 321.273 652.608 320.871C652.608 320.546 652.482 320.274 652.231 320.055C651.981 319.832 651.597 319.665 651.078 319.556L649.362 319.19C648.419 318.987 647.727 318.673 647.284 318.246C646.846 317.816 646.627 317.278 646.627 316.633C646.627 316.105 646.79 315.638 647.116 315.232C647.447 314.826 647.897 314.508 648.464 314.276C649.036 314.045 649.684 313.929 650.408 313.929C651.427 313.929 652.227 314.132 652.808 314.538C653.394 314.944 653.809 315.48 654.055 316.146Z"/>
</mask>
<path d="M599.507 312.273V310.933H609.805V312.273H605.488V323.404H603.825V312.273H599.507ZM617.245 319.58V314.051H618.827V323.404H617.245V321.821H617.137C616.897 322.296 616.52 322.7 616.011 323.032C615.502 323.361 614.858 323.526 614.08 323.526C613.437 323.526 612.864 323.398 612.365 323.142C611.864 322.882 611.47 322.493 611.184 321.973C610.898 321.449 610.755 320.79 610.755 319.994V314.051H612.337V319.897C612.337 320.579 612.547 321.122 612.967 321.528C613.392 321.934 613.933 322.137 614.59 322.137C614.984 322.137 615.383 322.046 615.79 321.863C616.201 321.681 616.546 321.401 616.822 321.023C617.104 320.645 617.245 320.164 617.245 319.58ZM626.203 314.051V315.269H620.866V314.051H626.203ZM622.422 311.81H624.004V320.725C624.004 321.131 624.069 321.435 624.199 321.638C624.332 321.837 624.502 321.971 624.707 322.04C624.918 322.105 625.139 322.137 625.372 322.137C625.546 322.137 625.689 322.129 625.801 322.113C625.913 322.093 626.003 322.076 626.069 322.064L626.39 323.355C626.283 323.392 626.133 323.428 625.942 323.465C625.75 323.505 625.505 323.526 625.211 323.526C624.764 323.526 624.326 323.438 623.897 323.264C623.473 323.089 623.119 322.823 622.837 322.466C622.56 322.109 622.422 321.658 622.422 321.114V311.81ZM632.655 323.599C631.727 323.599 630.911 323.398 630.209 322.996C629.511 322.594 628.966 322.032 628.573 321.309C628.184 320.587 627.99 319.742 627.99 318.776C627.99 317.802 628.184 316.951 628.573 316.225C628.966 315.498 629.511 314.934 630.209 314.532C630.911 314.13 631.727 313.929 632.655 313.929C633.585 313.929 634.398 314.13 635.096 314.532C635.798 314.934 636.343 315.498 636.732 316.225C637.125 316.951 637.322 317.802 637.322 318.776C637.322 319.742 637.125 320.587 636.732 321.309C636.343 322.032 635.798 322.594 635.096 322.996C634.398 323.398 633.585 323.599 632.655 323.599ZM632.655 322.308C633.361 322.308 633.943 322.143 634.398 321.815C634.854 321.486 635.193 321.053 635.412 320.518C635.631 319.982 635.74 319.401 635.74 318.776C635.74 318.151 635.631 317.568 635.412 317.028C635.193 316.489 634.854 316.052 634.398 315.719C633.943 315.386 633.361 315.22 632.655 315.22C631.949 315.22 631.369 315.386 630.912 315.719C630.457 316.052 630.119 316.489 629.9 317.028C629.681 317.568 629.572 318.151 629.572 318.776C629.572 319.401 629.681 319.982 629.9 320.518C630.119 321.053 630.457 321.486 630.912 321.815C631.369 322.143 631.949 322.308 632.655 322.308ZM639.737 323.404V314.051H641.265V315.464H641.372C641.56 315.001 641.9 314.625 642.392 314.337C642.884 314.049 643.438 313.905 644.054 313.905C644.17 313.905 644.316 313.907 644.49 313.911C644.665 313.915 644.797 313.921 644.886 313.929V315.39C644.832 315.378 644.709 315.36 644.517 315.336C644.329 315.307 644.13 315.293 643.92 315.293C643.42 315.293 642.973 315.389 642.579 315.579C642.19 315.766 641.882 316.026 641.654 316.359C641.431 316.687 641.319 317.063 641.319 317.485V323.404H639.737ZM654.055 316.146L652.634 316.511C652.545 316.296 652.412 316.087 652.239 315.884C652.069 315.677 651.836 315.506 651.541 315.372C651.246 315.238 650.868 315.171 650.408 315.171C649.778 315.171 649.252 315.303 648.833 315.567C648.416 315.827 648.209 316.158 648.209 316.56C648.209 316.917 648.352 317.199 648.638 317.406C648.924 317.613 649.372 317.786 649.978 317.924L651.508 318.265C652.429 318.468 653.115 318.778 653.565 319.196C654.017 319.61 654.242 320.144 654.242 320.798C654.242 321.334 654.073 321.813 653.733 322.235C653.398 322.657 652.928 322.99 652.326 323.233C651.721 323.477 651.02 323.599 650.22 323.599C649.17 323.599 648.301 323.392 647.612 322.978C646.924 322.564 646.488 321.959 646.305 321.163L647.807 320.822C647.95 321.325 648.22 321.703 648.618 321.955C649.021 322.206 649.545 322.332 650.194 322.332C650.931 322.332 651.516 322.19 651.951 321.906C652.389 321.618 652.608 321.273 652.608 320.871C652.608 320.546 652.482 320.274 652.231 320.055C651.981 319.832 651.597 319.665 651.078 319.556L649.362 319.19C648.419 318.987 647.727 318.673 647.284 318.246C646.846 317.816 646.627 317.278 646.627 316.633C646.627 316.105 646.79 315.638 647.116 315.232C647.447 314.826 647.897 314.508 648.464 314.276C649.036 314.045 649.684 313.929 650.408 313.929C651.427 313.929 652.227 314.132 652.808 314.538C653.394 314.944 653.809 315.48 654.055 316.146Z" fill="#101828"/>
<path d="M599.507 312.273V310.933H609.805V312.273H605.488V323.404H603.825V312.273H599.507ZM617.245 319.58V314.051H618.827V323.404H617.245V321.821H617.137C616.897 322.296 616.52 322.7 616.011 323.032C615.502 323.361 614.858 323.526 614.08 323.526C613.437 323.526 612.864 323.398 612.365 323.142C611.864 322.882 611.47 322.493 611.184 321.973C610.898 321.449 610.755 320.79 610.755 319.994V314.051H612.337V319.897C612.337 320.579 612.547 321.122 612.967 321.528C613.392 321.934 613.933 322.137 614.59 322.137C614.984 322.137 615.383 322.046 615.79 321.863C616.201 321.681 616.546 321.401 616.822 321.023C617.104 320.645 617.245 320.164 617.245 319.58ZM626.203 314.051V315.269H620.866V314.051H626.203ZM622.422 311.81H624.004V320.725C624.004 321.131 624.069 321.435 624.199 321.638C624.332 321.837 624.502 321.971 624.707 322.04C624.918 322.105 625.139 322.137 625.372 322.137C625.546 322.137 625.689 322.129 625.801 322.113C625.913 322.093 626.003 322.076 626.069 322.064L626.39 323.355C626.283 323.392 626.133 323.428 625.942 323.465C625.75 323.505 625.505 323.526 625.211 323.526C624.764 323.526 624.326 323.438 623.897 323.264C623.473 323.089 623.119 322.823 622.837 322.466C622.56 322.109 622.422 321.658 622.422 321.114V311.81ZM632.655 323.599C631.727 323.599 630.911 323.398 630.209 322.996C629.511 322.594 628.966 322.032 628.573 321.309C628.184 320.587 627.99 319.742 627.99 318.776C627.99 317.802 628.184 316.951 628.573 316.225C628.966 315.498 629.511 314.934 630.209 314.532C630.911 314.13 631.727 313.929 632.655 313.929C633.585 313.929 634.398 314.13 635.096 314.532C635.798 314.934 636.343 315.498 636.732 316.225C637.125 316.951 637.322 317.802 637.322 318.776C637.322 319.742 637.125 320.587 636.732 321.309C636.343 322.032 635.798 322.594 635.096 322.996C634.398 323.398 633.585 323.599 632.655 323.599ZM632.655 322.308C633.361 322.308 633.943 322.143 634.398 321.815C634.854 321.486 635.193 321.053 635.412 320.518C635.631 319.982 635.74 319.401 635.74 318.776C635.74 318.151 635.631 317.568 635.412 317.028C635.193 316.489 634.854 316.052 634.398 315.719C633.943 315.386 633.361 315.22 632.655 315.22C631.949 315.22 631.369 315.386 630.912 315.719C630.457 316.052 630.119 316.489 629.9 317.028C629.681 317.568 629.572 318.151 629.572 318.776C629.572 319.401 629.681 319.982 629.9 320.518C630.119 321.053 630.457 321.486 630.912 321.815C631.369 322.143 631.949 322.308 632.655 322.308ZM639.737 323.404V314.051H641.265V315.464H641.372C641.56 315.001 641.9 314.625 642.392 314.337C642.884 314.049 643.438 313.905 644.054 313.905C644.17 313.905 644.316 313.907 644.49 313.911C644.665 313.915 644.797 313.921 644.886 313.929V315.39C644.832 315.378 644.709 315.36 644.517 315.336C644.329 315.307 644.13 315.293 643.92 315.293C643.42 315.293 642.973 315.389 642.579 315.579C642.19 315.766 641.882 316.026 641.654 316.359C641.431 316.687 641.319 317.063 641.319 317.485V323.404H639.737ZM654.055 316.146L652.634 316.511C652.545 316.296 652.412 316.087 652.239 315.884C652.069 315.677 651.836 315.506 651.541 315.372C651.246 315.238 650.868 315.171 650.408 315.171C649.778 315.171 649.252 315.303 648.833 315.567C648.416 315.827 648.209 316.158 648.209 316.56C648.209 316.917 648.352 317.199 648.638 317.406C648.924 317.613 649.372 317.786 649.978 317.924L651.508 318.265C652.429 318.468 653.115 318.778 653.565 319.196C654.017 319.61 654.242 320.144 654.242 320.798C654.242 321.334 654.073 321.813 653.733 322.235C653.398 322.657 652.928 322.99 652.326 323.233C651.721 323.477 651.02 323.599 650.22 323.599C649.17 323.599 648.301 323.392 647.612 322.978C646.924 322.564 646.488 321.959 646.305 321.163L647.807 320.822C647.95 321.325 648.22 321.703 648.618 321.955C649.021 322.206 649.545 322.332 650.194 322.332C650.931 322.332 651.516 322.19 651.951 321.906C652.389 321.618 652.608 321.273 652.608 320.871C652.608 320.546 652.482 320.274 652.231 320.055C651.981 319.832 651.597 319.665 651.078 319.556L649.362 319.19C648.419 318.987 647.727 318.673 647.284 318.246C646.846 317.816 646.627 317.278 646.627 316.633C646.627 316.105 646.79 315.638 647.116 315.232C647.447 314.826 647.897 314.508 648.464 314.276C649.036 314.045 649.684 313.929 650.408 313.929C651.427 313.929 652.227 314.132 652.808 314.538C653.394 314.944 653.809 315.48 654.055 316.146Z" stroke="black" stroke-width="2" mask="url(#path-124-inside-1_1_274)"/>
</g>
<path id="Vector_124" d="M601.011 355.412V352.245L609.157 345.395C609.85 344.786 610.431 344.238 610.9 343.751C611.377 343.264 611.738 342.787 611.985 342.32C612.23 341.847 612.353 341.336 612.353 340.788C612.353 340.179 612.2 339.654 611.895 339.215C611.589 338.768 611.172 338.426 610.643 338.19C610.114 337.946 609.515 337.824 608.844 337.824C608.145 337.824 607.533 337.953 607.012 338.21C606.491 338.467 606.088 338.836 605.805 339.316C605.522 339.796 605.381 340.368 605.381 341.031H600.788C600.788 339.671 601.127 338.491 601.805 337.489C602.482 336.488 603.433 335.713 604.655 335.165C605.875 334.617 607.284 334.343 608.877 334.343C610.517 334.343 611.943 334.607 613.158 335.135C614.378 335.656 615.329 336.38 616.007 337.307C616.684 338.234 617.023 339.296 617.023 340.493C617.023 341.278 616.851 342.053 616.509 342.817C616.174 343.582 615.574 344.431 614.711 345.365C613.846 346.292 612.628 347.405 611.057 348.703L607.715 351.677V351.819H617.325V355.412H601.011ZM629.188 355.696C627.608 355.696 626.201 355.432 624.964 354.904C623.736 354.377 622.759 353.649 622.037 352.722C621.314 351.795 620.938 350.733 620.909 349.536H625.601C625.654 350.341 626.026 350.994 626.719 351.494C627.412 351.995 628.235 352.245 629.188 352.245C629.948 352.245 630.619 352.093 631.199 351.789C631.788 351.477 632.246 351.048 632.574 350.5C632.91 349.945 633.077 349.309 633.077 348.592C633.077 347.861 632.906 347.218 632.562 346.664C632.227 346.109 631.762 345.676 631.166 345.365C630.57 345.053 629.889 344.894 629.121 344.888C628.45 344.888 627.799 345.013 627.165 345.263C626.54 345.513 626.052 345.855 625.702 346.288L621.4 345.588L622.484 334.627H636.474V338.22H626.473L625.88 343.426H626.015C626.417 342.912 627.025 342.486 627.836 342.147C628.648 341.809 629.557 341.64 630.562 341.64C631.941 341.64 633.17 341.934 634.25 342.523C635.33 343.112 636.183 343.92 636.809 344.949C637.434 345.97 637.744 347.147 637.736 348.48C637.744 349.881 637.386 351.126 636.663 352.215C635.948 353.297 634.946 354.15 633.657 354.772C632.376 355.388 630.887 355.696 629.188 355.696ZM650.083 355.868C648.161 355.862 646.507 355.432 645.122 354.58C643.743 353.727 642.682 352.492 641.937 350.875C641.2 349.258 640.835 347.313 640.842 345.04C640.842 342.773 641.211 340.842 641.949 339.245C642.694 337.648 643.755 336.434 645.133 335.602C646.519 334.763 648.169 334.343 650.083 334.343C651.997 334.343 653.643 334.763 655.021 335.602C656.407 336.441 657.472 337.659 658.217 339.255C658.962 340.845 659.331 342.773 659.323 345.04C659.323 347.32 658.951 349.268 658.206 350.886C657.468 352.502 656.411 353.737 655.033 354.59C653.655 355.442 652.005 355.868 650.083 355.868ZM650.083 352.225C651.393 352.225 652.44 351.626 653.222 350.429C654.005 349.231 654.392 347.435 654.385 345.04C654.385 343.463 654.206 342.151 653.848 341.102C653.497 340.054 652.999 339.265 652.351 338.738C651.71 338.21 650.954 337.946 650.083 337.946C648.779 337.946 647.736 338.538 646.954 339.722C646.172 340.906 645.777 342.679 645.77 345.04C645.77 346.637 645.945 347.969 646.295 349.038C646.652 350.101 647.155 350.899 647.804 351.434C648.452 351.961 649.211 352.225 650.083 352.225ZM669.611 352.245V337.875H673.611V352.245H669.611ZM663.701 346.877V343.244H679.522V346.877H663.701Z" fill="#101828"/>
<path id="Vector_125" d="M682.893 286.849H521.543C509.047 286.849 498.917 296.05 498.917 307.4V363.368C498.917 374.718 509.047 383.919 521.543 383.919H682.893C695.389 383.919 705.519 374.718 705.519 363.368V307.4C705.519 296.05 695.389 286.849 682.893 286.849Z" stroke="#7F56D9" stroke-width="0.765"/>
</g>
</g>
</g>
<defs>
<filter id="filter0_d_1_274" x="156.246" y="103.147" width="120.724" height="121.291" filterUnits="userSpaceOnUse" color-interpolation-filters="sRGB">
<feFlood flood-opacity="0" result="BackgroundImageFix"/>
<feColorMatrix in="SourceAlpha" type="matrix" values="0 0 0 0 0 0 0 0 0 0 0 0 0 0 0 0 0 0 127 0" result="hardAlpha"/>
<feOffset dy="18.36"/>
<feGaussianBlur stdDeviation="19.125"/>
<feComposite in2="hardAlpha" operator="out"/>
<feColorMatrix type="matrix" values="0 0 0 0 0.0509804 0 0 0 0 0.0470588 0 0 0 0 0.219608 0 0 0 0.15 0"/>
<feBlend mode="normal" in2="BackgroundImageFix" result="effect1_dropShadow_1_274"/>
<feBlend mode="normal" in="SourceGraphic" in2="effect1_dropShadow_1_274" result="shape"/>
</filter>
<filter id="filter1_d_1_274" x="483.293" y="287.51" width="138.12" height="132.468" filterUnits="userSpaceOnUse" color-interpolation-filters="sRGB">
<feFlood flood-opacity="0" result="BackgroundImageFix"/>
<feColorMatrix in="SourceAlpha" type="matrix" values="0 0 0 0 0 0 0 0 0 0 0 0 0 0 0 0 0 0 127 0" result="hardAlpha"/>
<feOffset dy="18.36"/>
<feGaussianBlur stdDeviation="19.125"/>
<feComposite in2="hardAlpha" operator="out"/>
<feColorMatrix type="matrix" values="0 0 0 0 0.0509804 0 0 0 0 0.0470588 0 0 0 0 0.219608 0 0 0 0.15 0"/>
<feBlend mode="normal" in2="BackgroundImageFix" result="effect1_dropShadow_1_274"/>
<feBlend mode="normal" in="SourceGraphic" in2="effect1_dropShadow_1_274" result="shape"/>
</filter>
<filter id="filter2_d_1_274" x="595.507" y="310.933" width="62.7354" height="20.6654" filterUnits="userSpaceOnUse" color-interpolation-filters="sRGB">
<feFlood flood-opacity="0" result="BackgroundImageFix"/>
<feColorMatrix in="SourceAlpha" type="matrix" values="0 0 0 0 0 0 0 0 0 0 0 0 0 0 0 0 0 0 127 0" result="hardAlpha"/>
<feOffset dy="4"/>
<feGaussianBlur stdDeviation="2"/>
<feComposite in2="hardAlpha" operator="out"/>
<feColorMatrix type="matrix" values="0 0 0 0 0 0 0 0 0 0 0 0 0 0 0 0 0 0 0.25 0"/>
<feBlend mode="normal" in2="BackgroundImageFix" result="effect1_dropShadow_1_274"/>
<feBlend mode="normal" in="SourceGraphic" in2="effect1_dropShadow_1_274" result="shape"/>
</filter>
<clipPath id="clip0_1_274">
<rect width="706" height="742" fill="white"/>
</clipPath>
</defs>
</svg>
