<svg width="200" height="61" viewBox="0 0 200 61" fill="none" xmlns="http://www.w3.org/2000/svg">
<path d="M6.55333 40.226C6.55333 43.731 7.06222 46.4253 7.72667 48.0533C8.59778 50.1858 9.89778 51.0907 11.2222 51.0907C12.9311 51.0907 14.4933 50.4482 17.5067 44.1413C19.92 39.0857 22.7644 31.9918 24.6778 27.5417L27.9178 20.0037C30.1689 14.7698 32.7733 8.95071 35.7622 5.0085C38.2 1.78948 40.8311 0 43.48 0C47.9244 0 52.16 3.89848 55.4 11.2111C58.9467 19.22 60.6689 29.3076 60.6689 39.7181C60.6689 45.9073 59.8622 50.4549 58.4911 54.0473C57.1667 57.522 54.5844 60.9933 50.24 60.9933V51.0873C53.96 51.0873 54.8867 45.914 54.8867 39.9939C54.8867 31.5579 53.5867 22.1934 50.7244 15.5031C48.6933 10.757 46.06 7.85752 43.1622 7.85752C40.0289 7.85752 37.5089 11.4331 34.6756 17.8106C33.1689 21.1978 31.6222 25.3284 29.8867 29.987L27.9756 35.1133C24.1356 45.4195 23.1622 47.764 21.2444 51.6389C17.88 58.4201 15.0067 60.9933 11.2244 60.9933C6.73778 60.9933 3.9 58.0534 2.14222 53.6201C0.704444 50.0109 0 45.2715 0 39.8695L6.55333 40.226Z" fill="#0081FB"/>
<path d="M5.16666 11.9141C8.17111 4.90421 12.5067 0.00335693 17.48 0.00335693C20.36 0.00335693 23.2222 1.29501 26.2111 4.98831C29.4822 9.02807 32.9667 15.678 37.3156 26.6436L38.8755 30.579C42.64 40.0713 44.78 44.952 46.0333 47.2561C47.6444 50.2127 48.7733 51.094 50.24 51.094C53.96 51.094 54.8867 45.9207 54.8867 40.0007L60.6667 39.7248C60.6667 45.914 59.86 50.4616 58.4889 54.054C57.1644 57.5287 54.5822 61 50.2378 61C47.5378 61 45.1444 60.112 42.5 56.3346C40.4667 53.4351 38.0889 48.2854 36.26 43.6536L30.82 29.8962C28.0911 22.9906 25.5867 17.8442 24.1356 15.5132C22.5756 13.0073 20.5733 9.97999 17.3733 9.97999C14.7844 9.97999 12.5867 12.7281 10.7467 16.936L5.16666 11.9141Z" fill="url(#paint0_linear_1_710)"/>
<path d="M17.3733 9.97326C14.7844 9.97326 12.5867 12.7214 10.7467 16.9293C8.14444 22.8729 6.55333 31.7227 6.55333 40.226C6.55333 43.731 7.06222 46.4253 7.72667 48.0533L2.14 53.6235C0.704444 50.0109 0 45.2715 0 39.8695C0 30.051 1.78 19.8153 5.16667 11.9107C8.17111 4.90086 12.5067 0 17.48 0L17.3733 9.97326Z" fill="url(#paint1_linear_1_710)"/>
<path d="M73.4045 1.93073H80.9844L93.8733 37.2223L106.764 1.93073H114.18V59.9236H107.996V15.4762L96.6911 46.2537H90.8889L79.5867 15.4762V59.9202H73.4022V1.93073H73.4045ZM133.556 23.5523C129.12 23.5523 126.451 28.6046 125.811 34.861H140.862C140.551 28.4162 138.096 23.5523 133.556 23.5523ZM119.68 38.4231C119.68 25.2611 125.3 15.6814 133.662 15.6814C141.889 15.6814 146.8 25.14 146.8 39.1261V41.6959H125.811C126.556 48.5006 129.54 53.0853 134.349 53.0853C138.187 53.0853 140.584 51.3126 142.86 48.0701L146.144 54.1583C143.049 58.4671 139.113 60.9495 134.129 60.9495C125.076 60.9563 119.68 50.9628 119.68 38.4231ZM154.298 24.3832H148.607V16.7207H154.298V4.04647H160.264V16.7207H168.911V24.3832H160.264V43.8083C160.264 50.4415 161.664 52.796 165.109 52.796C166.68 52.796 167.582 52.5908 168.913 52.2578V59.8395C167.256 60.5492 165.673 60.8755 163.96 60.8755C157.52 60.8755 154.3 55.5475 154.3 44.888L154.298 24.3832ZM194.033 31.837C192.836 27.2591 190.162 23.8853 186.233 23.8853C181.129 23.8853 177.86 29.3681 177.86 38.2986C177.86 47.0072 180.869 52.7556 185.989 52.7556C190.013 52.7556 192.887 49.2103 194.033 44.8006V31.837ZM200 59.9202H194.144V53.8724C192.507 57.4345 189.529 60.9563 184.704 60.9563C176.944 60.9563 171.76 51.1243 171.76 38.2986C171.76 25.3519 177.071 15.6814 185.033 15.6814C188.971 15.6814 192.058 18.0628 194.144 22.2708V16.7207H200V59.9202Z" fill="#192830"/>
<defs>
<linearGradient id="paint0_linear_1_710" x1="13.1511" y1="28.9177" x2="54.9831" y2="30.3136" gradientUnits="userSpaceOnUse">
<stop stop-color="#0064E1"/>
<stop offset="0.4" stop-color="#0064E1"/>
<stop offset="0.83" stop-color="#0073EE"/>
<stop offset="1" stop-color="#0082FB"/>
</linearGradient>
<linearGradient id="paint1_linear_1_710" x1="8.73955" y1="44.3892" x2="8.73955" y2="21.078" gradientUnits="userSpaceOnUse">
<stop stop-color="#0082FB"/>
<stop offset="1" stop-color="#0064E0"/>
</linearGradient>
</defs>
</svg>
