<svg width="200" height="61" viewBox="0 0 200 61" fill="none" xmlns="http://www.w3.org/2000/svg">
<path d="M200 27.5949V22.57H195.632V14.758L195.485 14.8227L191.383 16.616L191.301 16.6512V22.5702H184.826V19.2728C184.826 17.7374 185.066 16.5625 185.54 15.7788C186.01 15.0046 186.684 14.611 187.54 14.611C188.158 14.611 188.796 14.8187 189.44 15.228L189.601 15.3308V10.0389L189.525 9.99901C188.925 9.69123 188.109 9.53604 187.099 9.53604C185.824 9.53604 184.667 9.93222 183.658 10.7171C182.647 11.5032 181.853 12.6254 181.296 14.0522C180.742 15.4773 180.46 17.1232 180.46 18.9448V22.57H177.418V27.5949H180.46V48.764H184.826V27.5949H191.301V41.0474C191.301 46.588 193.131 49.3956 196.739 49.3956C197.331 49.3956 197.956 49.2963 198.591 49.1019C199.241 48.9024 199.683 48.7031 199.943 48.4904L200 48.4417V43.3702L199.822 43.5382C199.585 43.7636 199.29 43.9479 198.944 44.0852C198.596 44.2247 198.307 44.2946 198.081 44.2946C197.237 44.2946 196.612 43.9692 196.224 43.3272C195.831 42.6794 195.632 41.5464 195.632 39.9616V27.5949H200ZM167.668 44.2955C166.084 44.2955 164.834 43.5448 163.954 42.0659C163.068 40.5797 162.619 38.4609 162.619 35.7687C162.619 32.9913 163.068 30.8174 163.954 29.305C164.835 27.8024 166.073 27.0399 167.633 27.0399C169.146 27.0399 170.352 27.7681 171.215 29.2058C172.083 30.6507 172.523 32.8072 172.523 35.617C172.523 38.4614 172.109 40.6463 171.292 42.1079C170.482 43.5586 169.262 44.2955 167.668 44.2955ZM167.862 21.9389C164.839 21.9389 162.438 23.2045 160.726 25.7007C159.015 28.1972 158.147 31.6519 158.147 35.9698C158.147 40.0709 158.994 43.3697 160.665 45.7731C162.334 48.1772 164.608 49.395 167.421 49.395C170.351 49.395 172.704 48.1116 174.416 45.5809C176.127 43.053 176.995 39.6309 176.995 35.4139C176.995 31.2486 176.181 27.9252 174.576 25.5378C172.969 23.1496 170.711 21.9389 167.862 21.9389ZM151.108 21.9389C149.051 21.9389 147.35 22.6905 146.051 24.1723C144.742 25.6629 144.08 27.6178 144.08 29.9835C144.08 31.2132 144.222 32.3055 144.504 33.2321C144.788 34.1615 145.227 34.98 145.809 35.6669C146.388 36.3482 147.28 37.0617 148.463 37.7878C149.457 38.3725 150.2 38.867 150.671 39.2567C151.131 39.6386 151.458 40.0226 151.642 40.3966C151.822 40.7625 151.912 41.2633 151.912 41.8814C151.912 43.6412 150.989 44.4974 149.091 44.4974C148.387 44.4974 147.585 44.2874 146.705 43.8733C145.831 43.4656 145.007 42.8684 144.26 42.1027L144.08 41.917V47.9223L144.146 47.9666C144.763 48.3739 145.542 48.7176 146.461 48.9879C147.376 49.2585 148.209 49.3961 148.933 49.3961C151.164 49.3961 152.962 48.641 154.273 47.1503C155.592 45.6495 156.261 43.6484 156.261 41.2008C156.261 39.4353 155.901 37.9212 155.192 36.7001C154.486 35.4889 153.263 34.3769 151.557 33.3939C150.197 32.6145 149.327 31.9676 148.968 31.4708C148.621 30.9911 148.446 30.3124 148.446 29.4531C148.446 28.6914 148.663 28.0811 149.108 27.5869C149.558 27.0901 150.182 26.8376 150.966 26.8376C151.694 26.8376 152.438 27.0017 153.178 27.3234C153.917 27.6452 154.568 28.076 155.11 28.6032L155.288 28.7774V23.0807L155.22 23.0387C154.719 22.7322 154.059 22.4699 153.258 22.257C152.46 22.0457 151.737 21.9389 151.108 21.9389ZM132.698 44.2955C131.114 44.2955 129.864 43.5448 128.984 42.0659C128.098 40.5797 127.648 38.4614 127.648 35.7687C127.648 32.9913 128.098 30.8174 128.984 29.305C129.865 27.8024 131.101 27.0399 132.662 27.0399C134.176 27.0399 135.381 27.7681 136.245 29.2058C137.113 30.6507 137.552 32.8072 137.552 35.617C137.552 38.4614 137.138 40.6463 136.322 42.1079C135.511 43.5586 134.292 44.2955 132.698 44.2955ZM132.892 21.9389C129.869 21.9389 127.466 23.2045 125.755 25.7007C124.044 28.1972 123.176 31.6519 123.176 35.9698C123.176 40.0726 124.023 43.3697 125.694 45.7731C127.364 48.1772 129.638 49.395 132.45 49.395C135.381 49.395 137.734 48.1116 139.446 45.5809C141.156 43.053 142.024 39.6309 142.024 35.4139C142.024 31.2486 141.21 27.9252 139.605 25.5378C137.999 23.1496 135.739 21.9389 132.892 21.9389ZM116.548 27.1062V22.57H112.236V48.7634H116.548V35.3644C116.548 33.0862 116.91 31.2143 117.624 29.8006C118.328 28.4037 119.267 27.6957 120.413 27.6957C120.801 27.6957 121.238 27.7873 121.71 27.9683C122.178 28.1482 122.516 28.3437 122.716 28.5493L122.897 28.7369V22.5252L122.827 22.4823C122.426 22.2385 121.857 22.1156 121.138 22.1156C120.054 22.1156 119.084 22.6131 118.254 23.5927C117.524 24.4536 116.997 25.6341 116.594 27.1062H116.548ZM104.512 21.9389C102.534 21.9389 100.769 22.5451 99.2675 23.7399C97.7633 24.9377 96.6 26.6474 95.8084 28.8215C95.0205 30.9904 94.6203 33.5238 94.6203 36.3492C94.6203 38.8241 95.0082 41.0953 95.775 43.097C96.5421 45.1019 97.6278 46.6704 99.0023 47.7584C100.375 48.8449 101.961 49.3957 103.717 49.3957C105.767 49.3957 107.517 48.8104 108.92 47.6558L108.977 47.6094V41.9646L108.795 42.1536C108.16 42.815 107.45 43.343 106.685 43.7233C105.923 44.1033 105.228 44.2955 104.619 44.2955C102.926 44.2955 101.568 43.5389 100.582 42.0474C99.5936 40.5541 99.0925 38.4571 99.0925 35.8183C99.0925 33.1629 99.615 31.012 100.645 29.425C101.672 27.8426 103.033 27.0399 104.69 27.0399C106.107 27.0399 107.489 27.7255 108.796 29.0799L108.977 29.2677V23.3198L108.918 23.2729C108.426 22.8795 107.756 22.5548 106.923 22.3084C106.094 22.0627 105.283 21.9389 104.512 21.9389ZM91.6501 22.5702H87.3372V48.7634H91.6501V22.5702ZM89.5378 11.4118C88.8279 11.4118 88.2088 11.757 87.7001 12.4411C87.1894 13.1271 86.9303 13.9908 86.9303 15.0102C86.9303 16.0135 87.1862 16.8615 87.6921 17.5294C88.1948 18.1951 88.8159 18.5325 89.5379 18.5325C90.2597 18.5325 90.8831 18.1951 91.3917 17.5304C91.9037 16.8615 92.1633 16.0137 92.1633 15.0102C92.1633 14.0265 91.9107 13.1716 91.4128 12.4687C90.9154 11.7672 90.2843 11.4118 89.5378 11.4118ZM78.7769 20.6376V48.7634H83.1784V12.2136H77.0865L69.3435 39.3617L61.8293 12.2136H55.4894V48.7631H59.6257V20.635H59.7676L67.7024 48.7634H70.8239L78.6349 20.6376H78.7769Z" fill="black"/>
<path d="M20.2889 28.9854H0V0H20.2889V28.9854Z" fill="#F1511B"/>
<path d="M42.6903 28.9854H22.4017V0H42.6903V28.9854Z" fill="#80CC28"/>
<path d="M20.2883 61H0V32.015H20.2883V61Z" fill="#00ADEF"/>
<path d="M42.6903 61H22.4017V32.015H42.6903V61Z" fill="#FBBC09"/>
</svg>
