<svg id="course" width="394" height="431" viewBox="0 0 394 431" fill="none" xmlns="http://www.w3.org/2000/svg">
<g id="online-course">
<g id="Group 5">
<g id="Group">
<g id="Group_2">
<g id="Group_3">
<g id="Group_4">
<path id="Vector" d="M276.641 228.482V386.804C276.641 391.773 281.05 395.802 286.489 395.802H381.514C386.951 395.802 391.36 391.773 391.36 386.804V228.482H276.641Z" fill="#728E4A"/>
<path id="Vector_2" d="M345.841 228.482V395.802H381.514C386.951 395.802 391.361 391.773 391.361 386.804V228.482H345.841Z" fill="#A4B961"/>
</g>
<g id="Group_5">
<path id="Vector_3" d="M36.9275 115.234H246.827L267.824 312.51H57.9258C45.4489 312.51 35.332 303.272 35.332 291.869L14.3336 135.874C14.3336 124.473 24.4506 115.234 36.9275 115.234Z" fill="#7A9C47"/>
<path id="Vector_4" d="M74.219 291.869C74.219 303.272 84.3283 312.51 96.8129 312.51H287.23C299.706 312.51 309.825 303.272 309.825 291.869L288.825 135.874C288.825 124.473 278.707 115.234 266.231 115.234H75.8146C63.33 115.234 53.2207 124.473 53.2207 135.874L74.219 291.869Z" fill="#8BAE55"/>
</g>
<g id="Group_6">
<path id="Vector_5" d="M345.841 292.226H75.017V395.802H345.841V292.226Z" fill="#728E4A"/>
<path id="Vector_6" d="M345.849 365.017H75.017V395.802H345.849V365.017Z" fill="#A4B961"/>
<g id="Group_7">
<g id="Group_8">
<g id="Group_9">
<path id="Vector_7" d="M343.263 359.318H84.9417C79.464 359.318 75.0167 355.769 75.0167 351.389V289.618C75.0167 286.666 79.6186 283.284 84.9417 281.69C166.424 269.297 335.918 281.69 335.918 281.69C342.02 283.376 343.883 285.22 345.843 289.618V356.524C345.843 356.524 346.098 359.318 343.263 359.318Z" fill="#A8BE62"/>
</g>
</g>
<g id="Group_10">
<path id="Vector_8" d="M345.844 290.303H75.017V351.39C75.017 355.77 79.4643 359.319 84.942 359.319H343.263C346.099 359.319 345.844 356.525 345.844 356.525L345.844 290.303Z" fill="#8BAE55"/>
</g>
</g>
</g>
<g id="Group_11">
<g id="Group_12">
<path id="Vector_9" d="M380.686 395.906H364.866L383.819 427.138C383.819 427.138 385.877 430.999 390.689 430.965C390.689 430.965 395.621 431.677 393.446 426.626L380.686 395.906Z" fill="#914428"/>
<path id="Vector_10" d="M364.866 395.906L383.819 427.138C383.819 427.138 385.877 430.999 390.689 430.965C390.689 430.965 394.725 431.537 393.863 427.883C393.517 428.388 393.106 428.813 392.583 429.055C390.448 430.034 388.023 429.022 386.525 427.187L371.795 395.906H364.866Z" fill="#B4B4B4"/>
</g>
<g id="Group_13">
<path id="Vector_11" d="M94.6873 395.906H110.509L91.5527 427.138C91.5527 427.138 89.4996 430.999 84.6908 430.965C84.6908 430.965 79.7529 431.677 81.9275 426.626L94.6873 395.906Z" fill="#914428"/>
<path id="Vector_12" d="M110.509 395.906L91.5528 427.138C91.5528 427.138 89.4996 430.999 84.6909 430.965C84.6909 430.965 80.6498 431.537 81.5137 427.883C81.855 428.388 82.2667 428.813 82.7914 429.055C84.9235 430.034 87.3496 429.022 88.8471 427.187L103.575 395.906H110.509Z" fill="#B4B4B4"/>
</g>
</g>
<g id="Group_14">
<path id="Vector_13" d="M13.3142 395.906H29.1347L10.1807 427.138C10.1807 427.138 8.12459 430.999 3.31553 430.965C3.31553 430.965 -1.6213 431.677 0.553341 426.626L13.3142 395.906Z" fill="#914428"/>
<path id="Vector_14" d="M29.1344 395.906L10.1805 427.138C10.1805 427.138 8.12432 430.999 3.31526 430.965C3.31526 430.965 -0.722502 431.537 0.139164 427.883C0.48263 428.388 0.893258 428.813 1.41583 429.055C3.55088 430.034 5.98054 429.022 7.47262 427.187L22.1988 395.906H29.1344Z" fill="#B4B4B4"/>
</g>
<g id="Group_15">
<path id="Vector_15" d="M5.81677 228.482V386.804C5.81677 391.773 10.2248 395.802 15.6629 395.802H110.688C116.125 395.802 120.537 391.773 120.537 386.804V228.482H5.81677Z" fill="#728E4A"/>
<path id="Vector_16" d="M75.0167 228.482V386.713C75.0167 395.802 83.0772 395.802 83.0772 395.802H110.688C116.125 395.802 120.537 391.773 120.537 386.804V228.482H75.0167Z" fill="#A4B961"/>
</g>
</g>
</g>
</g>
<g id="Group 1">
<g id="Group_16">
<path id="Vector_17" d="M229.229 201.257C229.229 201.257 191.389 202.494 142.276 201.499C122.979 224.486 111.315 244.25 114.945 267.627C114.945 267.627 122.609 286.543 160.081 288.32L235.608 279.165L302.338 281.085C302.338 281.085 367.311 225.649 325.62 215.935L245.085 224.064L229.229 201.257Z" fill="#004D9D"/>
<g id="Group_17">
<g id="Group_18">
<path id="Vector_18" d="M123.633 243.629C127.064 241.028 130.053 238.084 133.222 235.287C136.377 232.503 139.648 229.801 142.987 227.152C145.891 224.848 148.766 222.467 151.377 219.957C152.679 218.706 154.196 217.787 155.875 216.861C157.33 216.058 158.145 215.299 159.235 214.219C159.297 214.157 159.021 214.135 158.967 214.176C157.606 215.203 155.611 215.995 154.02 216.82C152.301 217.711 150.563 218.559 148.95 219.567C145.361 221.808 142.165 224.206 138.941 226.754C135.589 229.402 132.331 232.123 129.164 234.905C126.218 237.494 123.132 240.16 121.01 243.207C120.477 243.974 123.154 243.992 123.633 243.629Z" fill="#0D3373"/>
</g>
</g>
<g id="Group_19">
<path id="Vector_19" d="M192.697 91.6477L158.335 92.2077L157.552 62.9926L191.91 62.4314C191.91 62.4314 188.865 85.5096 192.697 91.6477Z" fill="#F7B6A0"/>
<path id="Vector_20" d="M190.943 84.3085C183.144 83.8113 175.741 83.5781 168.088 81.8327C164.42 80.9962 161.065 79.9489 157.97 78.5558L157.552 62.9926L191.91 62.4314C191.91 62.4314 190.223 75.2377 190.943 84.3085Z" fill="#F29381"/>
<g id="Group_20">
<path id="Vector_21" d="M214.045 41.5604C211.876 45.8032 209.656 50.7331 205.874 54.4536C201.561 58.7066 195.23 59.0062 192.312 53.6992C189.567 48.7032 189.663 42.5322 190.848 37.3989C191.492 34.594 192.707 31.4178 196.074 29.5088C201.335 26.5277 208.26 27.4582 212.171 30.9867C215.833 34.2967 215.946 37.8229 214.045 41.5604Z" fill="#55240D"/>
<g id="Group_21">
<path id="Vector_22" d="M208.509 48.6936C208.148 53.7949 207.183 58.8789 205.457 63.8097C203.706 68.8138 201.314 78.1899 194.068 80.2803C191.829 80.926 190.007 80.878 187.422 80.7522C177.553 80.2712 167.035 75.1561 160.762 69.4479C149.062 58.8078 149.095 32.9955 160.816 22.9906C171.514 13.8581 205.538 18.5582 207.823 33.1198C208.612 38.146 208.885 43.4187 208.509 48.6936Z" fill="#F7B6A0"/>
</g>
<path id="Vector_23" d="M160.765 41.4507C160.33 42.7297 159.99 48.5865 159.462 49.718C158.939 50.853 155.638 49.0517 155.638 49.0517C153.31 47.1396 156.319 42.8327 152.256 42.1377C147.846 41.3799 154.287 62.8031 154.184 65.1393C150.807 62.3481 138.945 47.9407 136.451 37.9622C134.606 30.5739 136.751 26.1081 138.945 23.2496C149.594 9.3815 153.432 10.2514 163.308 11.327C167.814 11.8186 171.265 19.743 172.912 23.2131C174.68 26.9277 171.436 29.766 168.172 32.1513C164.088 35.1356 162.77 35.6009 160.765 41.4507Z" fill="#55240D"/>
<g id="Group_22">
<path id="Vector_24" d="M148.425 42.2049C143.809 45.3115 145.563 55.2306 153.896 58.9154C156.209 57.1814 156.594 52.1957 157.084 49.751C157.563 47.3519 157.874 45.0429 156.165 42.894C155.639 42.2336 151.817 39.9214 148.425 42.2049Z" fill="#F7B6A0"/>
<g id="Group_23">
<g id="Group_24">
<g id="Group_25">
<path id="Vector_25" d="M153.511 49.2598C153.43 49.6774 153.522 50.6035 153.065 50.8835C152.917 50.9739 152.759 51.0395 152.59 51.1015C152.819 51.0172 153.294 51.3189 153.041 51.0711C152.612 50.6503 152.547 50.0294 152.484 49.5173C152.374 48.619 152.825 47.2771 151.896 46.5804C151.662 46.404 151.1 46.4283 150.86 46.5804C150.196 46.9991 150.163 47.6777 150.186 48.2887C150.217 49.1483 150.318 50.0408 150.722 50.8484C151.119 51.6387 152.125 51.9111 153.149 51.814C153.72 51.7599 154.22 51.5199 154.649 51.237C155.324 50.7928 154.912 49.8509 154.858 49.2595C154.824 48.8929 153.581 48.9023 153.511 49.2598Z" fill="#F29381"/>
</g>
</g>
<g id="Group_26">
<g id="Group_27">
<path id="Vector_26" d="M153.569 46.812C152.93 45.189 150.032 45.5102 148.797 46.4238C146.68 47.9904 147.922 51.2635 150.069 52.3889C150.21 52.4629 151.096 52.5761 151.024 52.29C150.785 51.3448 150.082 50.4863 149.805 49.5368C149.508 48.5194 150.664 44.8451 152.497 46.9253C152.682 47.1357 153.705 47.1573 153.569 46.812Z" fill="#F29381"/>
</g>
</g>
</g>
</g>
<g id="Group_28">
<g id="Group_29">
<g id="Group_30">
<path id="Vector_27" d="M189.032 44.0758C188.046 41.2126 182.609 41.0672 179.633 41.0797C177.129 41.0903 172.599 42.8933 174.653 45.2339C174.686 45.2497 174.719 45.2652 174.752 45.281C175.732 45.0296 176.631 44.5404 177.695 44.5343C178.995 44.5272 180.281 44.3476 181.584 44.3212C182.974 44.2932 184.304 44.3145 185.647 44.5957C186.302 44.7326 186.92 44.9834 187.6 45.0089C187.948 45.0218 188.583 44.9419 188.852 45.1736C189 45.3024 189.08 44.2142 189.032 44.0758Z" fill="#55240D"/>
</g>
</g>
<g id="Group_31">
<g id="Group_32">
<path id="Vector_28" d="M199.764 45.2696C199.964 45.1789 200.301 45.32 200.489 45.3735C201.152 45.5637 201.893 45.4824 202.594 45.514C204.423 45.5974 206.476 45.8115 208.233 46.1826C208.26 46.1694 208.287 46.1568 208.314 46.1437C208.445 46.0404 208.575 45.9374 208.706 45.8338C208.983 45.6143 208.87 44.8793 208.706 44.6359C207.73 43.1907 204.919 43.1485 203.032 43.1632C201.85 43.1722 200.108 43.2147 199.691 44.3108C199.657 44.4003 199.631 45.329 199.764 45.2696Z" fill="#55240D"/>
</g>
</g>
<path id="Vector_29" d="M201.501 49.9475C201.376 51.2575 201.996 52.3547 202.888 52.4083C203.78 52.4621 204.608 51.4494 204.737 50.1406C204.869 48.8341 204.247 47.7324 203.352 47.6809C202.46 47.6282 201.631 48.6433 201.501 49.9475Z" fill="#7F482E"/>
<path id="Vector_30" d="M182.534 49.7304C182.401 51.0381 183.024 52.1397 183.917 52.1912C184.809 52.2462 185.637 51.2312 185.769 49.9235C185.894 48.6194 185.275 47.5174 184.381 47.465C183.489 47.41 182.661 48.4262 182.534 49.7304Z" fill="#7F482E"/>
<g id="Group_33">
<g id="Group_34">
<path id="Vector_31" d="M199.732 64.4438C197.759 65.683 195.55 66.3007 192.997 66.088C190.901 65.9133 189.426 64.0962 187.658 63.3176C187.357 63.1844 185.662 63.0753 185.781 63.6143C186.01 64.6522 187.778 65.4858 188.763 66.1357C189.841 66.8461 191.416 67.0694 192.785 67.1835C195.605 67.4188 199.905 66.9945 201.09 64.6624C201.319 64.2127 199.988 64.2835 199.732 64.4438Z" fill="#F18C7E"/>
</g>
</g>
<g id="Group_35">
<g id="Group_36">
<path id="Vector_32" d="M197.314 47.9408C196.965 49.3172 196.411 50.6553 196.068 52.0326C195.83 52.9877 197.197 54.3278 197.807 55.062C198.542 55.9462 199.349 57.0596 198.691 58.0963C198.081 59.0567 196.295 59.2881 195.092 59.1272C193.741 58.9466 192.386 59.9409 194.318 60.1993C196.67 60.5135 201.318 60.098 201.851 57.7569C202.202 56.2198 200.611 54.983 199.527 53.8456C197.817 52.0507 198.7 50.0019 198.801 47.9405C198.82 47.5414 197.413 47.5516 197.314 47.9408Z" fill="#F29381"/>
</g>
</g>
</g>
</g>
</g>
<path id="Vector_33" d="M207.628 130.479C203.03 108.632 217.121 107.497 217.121 107.497C232.976 104.333 240.349 123.126 240.349 123.126C240.349 123.126 251.782 164.7 251.629 183.336C251.629 183.336 234.816 191.467 226.879 179.854L207.628 130.479Z" fill="#F7B6A0"/>
<path id="Vector_34" d="M163.821 88.031L110.737 103.25L139.964 205.211H209.925L229.166 105.278L188.668 88.031H163.821Z" fill="#F7B6A0"/>
<path id="Vector_35" d="M191.313 88.031L226.789 101.932L212.13 204.471C197.987 210.07 190.061 206.505 168.198 206.48C161.208 206.474 140.491 209.458 137.454 203.74C135.608 200.264 130.408 192.945 130.568 189.255C130.73 185.557 125.529 179.557 125.142 175.865C124.757 172.18 124.845 168.514 122.526 165.201C118.21 159.03 118.273 149.891 116.306 142.96C114.312 135.925 112.954 132.44 112.951 125.205C112.951 121.362 108.72 117.06 107.51 113.321C106.224 109.348 106.945 104.559 111.981 102.766C116.453 101.17 121.547 100.174 126.184 98.8393L156.681 89.8039C156.681 89.8039 184.539 96.7203 191.313 88.031Z" fill="#007AB9"/>
<path id="Vector_36" d="M212.655 166.521L204.008 129.824C204.008 129.824 191.438 108.486 213.336 97.2256C213.336 97.2256 236.958 100.119 241.325 117.458L253.166 154.092C253.166 154.092 251.976 163.214 212.655 166.521Z" fill="#007AB9"/>
<path id="Vector_37" d="M208.861 214.205C174.362 210.372 89.781 217.284 86.3992 186.409C83.6323 161.162 94.558 121.353 109.427 112.297C120.469 105.571 135.304 109.308 141.237 119.399C147.842 130.637 127.619 169.408 124.351 185.538C124.351 185.538 154.013 201.319 216.649 206.369L208.861 214.205Z" fill="#F7B6A0"/>
<path id="Vector_38" d="M75 177.798L100.607 114.396C105.815 103.685 114.653 101.885 116.451 101.885C143.807 101.883 146.219 128.201 146.219 128.201L132.978 174.698C132.978 174.698 103.18 187.997 75 177.798Z" fill="#007AB9"/>
<path id="Vector_39" d="M203.719 208.958C205.139 207.493 212.966 206.558 216.649 206.369C226.716 205.851 235.381 206.352 244.737 208.224C247.954 208.867 254.937 210.306 257.907 211.582C259.717 212.36 263.247 212.995 262.654 214.746C261.242 215.339 253.099 214.074 247.74 213.096C255.558 214.873 257.385 216.545 257.542 217.352C255.633 218.992 246.469 215.768 240.02 214.676C237.937 214.322 252.263 218.53 245.26 218.984C243.745 219.081 233.886 216.87 229.216 216.045C229.718 216.423 235.913 218.934 235.759 219.365C235.627 220.489 229.441 219.301 226.351 218.651C222.196 217.775 198.112 214.736 203.719 208.958Z" fill="#F7B6A0"/>
<path id="Vector_40" d="M302.355 193.538C304.071 192.278 311.989 192.369 315.658 192.659C325.699 193.455 334.131 195.072 342.96 198.131C345.994 199.181 352.573 201.505 355.226 203.147C356.85 204.15 360.193 205.234 359.235 206.882C357.712 207.286 349.955 204.984 344.877 203.321C352.211 206.09 353.653 207.974 353.634 208.791C351.403 210.162 343.055 205.793 336.928 203.88C334.952 203.261 348.178 209.265 341.179 208.807C339.662 208.708 330.41 205.249 325.982 203.831C326.402 204.268 331.969 207.546 331.727 207.953C331.356 209.044 325.51 207.069 322.606 206.029C318.694 204.627 295.594 198.508 302.355 193.538Z" fill="#F7B6A0"/>
<path id="Vector_41" d="M250.543 170.132L319.375 196.514L312.475 201.257C312.475 201.257 238.673 192.834 228.174 183.323C228.174 183.323 235.469 167.411 250.543 170.132Z" fill="#F7B6A0"/>
<g id="Group_37">
<g id="Group_38">
<path id="Vector_42" d="M196.726 92.3312C196.731 92.2575 196.734 92.1834 196.736 92.1094C196.764 91.4095 194.844 91.6477 194.438 91.8715C191.869 93.2883 188.743 94.4181 185.611 94.8292C184.228 95.0109 182.778 94.9436 181.415 95.211C180.622 95.3664 179.826 95.2324 179.025 95.3167C178.138 95.4097 177.327 95.5098 176.422 95.451C174.891 95.3515 173.56 95.1835 172.014 95.3594C170.467 95.5361 168.652 95.1786 167.151 94.8655C165.974 94.6197 164.874 94.2402 163.716 93.9423C162.984 93.7533 162.177 93.6778 161.411 93.6471C160.873 93.6254 160.087 93.1154 159.64 92.9155C159.017 92.6381 155.805 92.5597 156.41 93.6333C156.994 94.67 158.184 95.2918 159.664 95.3977C161.479 95.5276 162.981 96.1506 164.744 96.4371C166.738 96.7613 168.663 97.0679 170.706 97.1686C171.783 97.2218 172.81 97.1045 173.873 96.9725C174.838 96.8526 176.129 97.1777 177.141 97.1595C178.875 97.1288 180.747 96.9611 182.456 96.7285C184.37 96.4684 186.317 96.3268 188.205 95.9569C190.145 95.5765 192.039 94.8991 193.802 94.1787C194.81 93.7676 196.626 93.1084 196.736 92.1091C196.117 92.2446 195.498 92.3801 194.88 92.5155C195.025 92.5577 195.17 92.5989 195.316 92.6399C195.637 92.7306 196.704 92.7435 196.726 92.3312Z" fill="#0059A6"/>
</g>
</g>
<g id="Group_39">
<g id="Group_40">
<path id="Vector_43" d="M124.431 101.944C126.062 103.87 127.725 105.718 129.628 107.499C131.85 109.581 133.193 112.025 134.617 114.469C136.102 117.017 135.903 119.967 136.121 122.682C136.318 125.136 135.789 127.634 135.457 130.116C135.071 133.011 134.175 135.864 133.476 138.721C132.791 141.52 132.294 144.293 131.81 147.116C131.326 149.948 130.368 152.721 129.911 155.561C129.432 158.536 129.828 161.54 129.382 164.513C129.348 164.745 130.214 164.756 130.303 164.561C131.467 161.988 131.956 159.312 132.577 156.638C133.279 153.615 134.367 150.65 135.382 147.685C135.87 146.261 136.228 144.809 136.719 143.384C137.259 141.819 137.921 140.283 138.46 138.72C139.479 135.763 140.225 132.648 140.668 129.607C140.854 128.33 141.251 126.979 141.259 125.699C141.265 124.615 141.575 123.76 141.296 122.682C140.96 121.387 141.211 119.997 140.905 118.679C140.572 117.245 140.2 115.832 139.619 114.445C139.081 113.162 138.056 111.887 137.287 110.678C136.485 109.416 135.337 108.263 134.154 107.207C131.79 105.095 128.837 103.447 126.089 101.677C125.787 101.482 124.041 101.485 124.431 101.944Z" fill="#0059A6"/>
</g>
</g>
<g id="Group_41">
<g id="Group_42">
<path id="Vector_44" d="M201.677 92.8417C202.569 94.5628 204.479 95.7602 205.608 97.3739C206.262 98.3079 206.781 99.2952 207.435 100.231C208.189 101.31 209.226 102.743 209.493 103.955C210.014 106.314 210.321 108.723 210.748 111.094C210.955 112.243 211.27 113.408 211.127 114.568C210.98 115.763 210.845 116.891 210.85 118.098C210.859 120.459 211.238 122.776 211.285 125.128C211.336 127.657 211.178 130.193 211.186 132.724C211.19 133.779 211.194 134.834 211.198 135.89C211.202 137.013 211.488 138.092 211.493 139.216C211.497 140.407 212.165 141.721 212.459 142.897C212.718 143.934 213.004 144.962 213.384 145.977C213.482 146.239 214.637 146.215 214.592 145.914C214.272 143.776 214.006 141.357 214.187 139.216C214.284 138.071 213.912 137.022 213.915 135.89C213.92 134.652 213.924 133.415 213.929 132.178C213.937 129.827 214.064 127.479 214.078 125.128C214.095 122.605 213.689 120.098 213.698 117.564C213.702 116.539 213.805 115.579 214.001 114.567C214.223 113.422 213.814 112.233 213.649 111.094C213.28 108.538 212.872 105.938 212.332 103.401C212.152 102.553 211.321 101.643 210.841 100.878C210.139 99.7557 209.368 98.6675 208.61 97.5661C207.183 95.4945 204.889 94.4358 202.975 92.705C202.741 92.4929 201.461 92.423 201.677 92.8417Z" fill="#0059A6"/>
</g>
</g>
<g id="Group_43">
<g id="Group_44">
<path id="Vector_45" d="M208.656 153.885C208.862 154.878 208.799 155.892 209.047 156.886C209.314 157.959 209.831 158.972 210.201 160.026C210.918 162.066 211.763 164.081 213.129 165.897C214.688 167.968 214.469 170.369 214.58 172.666C214.624 173.591 214.461 174.437 214.182 175.328C214.056 175.73 213.797 177.208 213.229 177.403C211.992 177.828 213.684 178.366 214.264 178.357C216.534 178.322 216.963 177.125 217.31 175.603C217.817 173.377 217.698 170.767 217.144 168.541C216.845 167.343 216.267 166.22 215.456 165.182C214.468 163.918 213.77 162.653 213.025 161.279C211.693 158.821 210.755 156.189 209.058 153.864C209.005 153.792 208.634 153.778 208.656 153.885Z" fill="#0059A6"/>
</g>
</g>
<g id="Group_45">
<g id="Group_46">
<path id="Vector_46" d="M148.078 212.909C146.137 213.652 144.139 213.948 142.245 214.813C140.755 215.494 139.425 216.252 138.299 217.282C135.779 219.587 134.016 222.21 133.33 225.203C133.031 226.509 132.897 227.914 132.784 229.241C132.636 230.971 131.537 232.82 130.797 234.449C130.195 235.777 129.406 237.046 128.486 238.256C127.726 239.254 126.359 239.715 125.634 240.668C124.764 241.812 129.088 242.026 129.862 241.348C130.243 241.014 130.727 240.893 131.174 240.625C131.731 240.29 132.158 239.812 132.578 239.377C133.597 238.323 134.245 237.043 134.841 235.82C135.521 234.427 135.979 232.963 136.507 231.532C137.017 230.149 137.038 228.799 137.256 227.385C137.465 226.031 137.501 224.739 137.871 223.392C138.28 221.901 139.296 220.522 140.315 219.241C142.403 216.615 145.769 215.1 148.63 213.072C148.878 212.896 148.206 212.86 148.078 212.909Z" fill="#0059A6"/>
</g>
</g>
<g id="Group_47">
<path id="Vector_47" d="M316.134 218.997H194.842V223.516H316.134V218.997Z" fill="#B2B2B2"/>
<g id="Group_48">
<g id="Group_49">
<path id="Vector_48" d="M351.169 223.517H238.289L248.187 161.436H361.073L351.169 223.517Z" fill="#808080"/>
<path id="Vector_49" d="M234.266 223.517H238.289L248.187 161.436H244.169L234.266 223.517Z" fill="#474747"/>
</g>
</g>
<path id="Vector_50" d="M308.71 190.982C308.71 194.867 304.664 198.016 299.68 198.016C294.692 198.016 290.651 194.867 290.651 190.982C290.651 187.098 294.692 183.948 299.68 183.948C304.664 183.948 308.71 187.098 308.71 190.982Z" fill="#474747"/>
</g>
<g id="Group_50">
<path id="Vector_51" d="M243.284 269.726L217.463 277.92L224.102 293.561L250.406 286.643L243.284 269.726Z" fill="#F6AD96"/>
<g id="Group_51">
<path id="Vector_52" d="M278.373 268.711L306.15 270.622L305.707 287.091L277.956 286.509L278.373 268.711Z" fill="#F6AD96"/>
<path id="Vector_53" d="M297.717 287.137C309.701 289.709 343.893 287.553 356.342 283.875C371.409 279.418 370.368 255.923 351.392 259.29C334.2 262.342 316.133 267.812 298.6 268.921C298.6 268.921 288.162 275.229 297.717 287.137Z" fill="#8CD0E5"/>
</g>
<path id="Vector_54" d="M297.717 287.137C302.003 280.26 299.584 265.908 299.584 265.908L284.603 259.777C266.118 248.576 244.182 241.3 226.08 229.728C212.063 220.768 198.354 205.814 177.984 207.402C164.209 208.475 154.716 216.542 146.818 224.637C133.646 238.127 114.945 249.132 114.945 267.627C114.945 283.25 141.541 294.969 155.887 293.208C166.492 291.901 182.424 281.493 188.316 275.218L204.14 260.013C204.14 260.013 210.428 275.977 271.519 285.994C271.519 285.994 289.672 289.022 297.717 287.137Z" fill="#004D9D"/>
<g id="Group_52">
<g id="Group_53">
<path id="Vector_55" d="M189.243 208.382C191.128 208.903 192.64 209.827 194.27 210.7C196.251 211.762 198.115 212.958 199.976 214.143C203.873 216.625 207.867 218.988 212.106 221.104C218.812 224.453 224.929 228.627 230.932 232.684C237.503 237.125 243.655 241.952 250.468 246.165C258.64 251.219 267.439 255.686 276.286 259.982C278.153 260.889 280.019 261.798 281.881 262.712C284.253 263.878 286.643 264.633 289.186 265.522C289.538 265.645 291.353 265.618 290.704 265.075C289.891 264.395 289.295 263.672 288.403 263.041C287.446 262.364 286.315 261.839 285.247 261.276C282.948 260.065 280.649 258.853 278.328 257.668C273.969 255.442 269.588 253.246 265.304 250.932C257.224 246.568 249.882 241.626 242.501 236.588C236.087 232.211 229.382 228.072 222.477 224.175C219.499 222.495 216.441 220.943 213.291 219.468C208.647 217.293 204.416 214.621 199.969 212.219C196.753 210.482 193.458 208.893 189.627 208.131C189.377 208.081 188.762 208.249 189.243 208.382Z" fill="#0D3373"/>
</g>
</g>
<g id="Group_54">
<g id="Group_55">
<path id="Vector_56" d="M228.317 271.89C234.288 271.014 239.766 268.387 245.03 266.132C251.859 263.206 258.87 260.123 265.06 256.421C269.807 253.582 274.766 250.917 279.212 247.785C286.841 242.411 294.67 237.189 302.197 231.727C307.659 227.763 312.872 223.832 319.078 220.555C322.099 218.96 325.254 217.525 328.439 216.139C331.564 214.779 335.286 213.707 338.036 211.923C339.53 210.954 335.778 210.635 335.112 210.807C330.264 212.06 325.619 214.427 321.214 216.432C316.95 218.373 312.805 220.492 308.937 222.888C304.685 225.522 300.988 228.612 297.042 231.509C293.164 234.356 289.1 237.046 285.087 239.776C279.459 243.604 274.284 247.7 268.09 250.972C265.05 252.577 261.95 254.075 258.757 255.487C255.307 257.014 252.02 258.792 248.634 260.407C244.225 262.512 239.831 264.636 235.403 266.716C232.452 268.101 229.258 269.285 226.664 271.069C225.752 271.695 227.876 271.955 228.317 271.89Z" fill="#0D3373"/>
</g>
</g>
<g id="Group_56">
<g id="Group_57">
<path id="Vector_57" d="M192.302 272.882C194.247 270.769 196.811 268.835 199.778 267.619C200.848 267.181 202.499 266.479 203.744 266.73C205.251 267.032 206.694 267.671 208.02 268.286C213.229 270.701 218.325 275.347 225.05 274.398C225.874 274.283 227.515 273.556 225.993 273.035C224.558 272.542 223.026 272.332 221.595 271.82C219.879 271.206 218.299 270.378 216.745 269.549C213.639 267.891 210.577 266.155 206.851 265.474C199.697 264.167 193.772 268.049 190.383 272.68C190.011 273.187 191.945 273.27 192.302 272.882Z" fill="#0D3373"/>
</g>
</g>
<path id="Vector_58" d="M362.307 208.17C390.188 211 382.976 231.165 373.2 238.151C346.879 256.957 308.914 271.118 275.792 281.085C274.67 281.424 243.284 290.547 238.032 292.178C244.556 279.903 229.995 271.352 229.995 271.351C229.995 271.351 267.065 257.372 291.932 237.004C291.932 237.004 329.095 202.691 362.307 208.17Z" fill="#004D9D"/>
<path id="Vector_59" d="M231.76 291.773C221.277 296.976 187.781 302.756 174.5 302.092C158.416 301.287 150.536 278.592 169.94 277.461C187.525 276.435 206.86 277.524 224.034 274.563C224.034 274.563 236.393 278.2 231.76 291.773Z" fill="#8CD0E5"/>
</g>
<path id="Vector_60" d="M165.566 18.1722C165.505 22.52 177.296 32.5111 183.192 32.0663C182.072 29.9976 182.137 27.6383 181.579 25.5983C186.584 28.4237 193.71 32.6425 199.273 34.5936C201.685 35.4407 208.111 37.1665 210.196 35.7904C211.55 34.8964 210.663 33.0586 211.475 32.0423C212.991 30.1462 212.86 31.2857 215.222 30.2147C228.188 24.3272 215.271 8.2955 205.386 3.84932C195.417 -0.635762 180.21 -1.05537 169.421 1.83179C164.839 3.05811 160.059 5.0572 157.735 8.40171C155.825 11.1449 153.805 20.6078 159.477 21.457L165.566 18.1722Z" fill="#55240D"/>
</g>
</g>
</g>
</g>
</svg>
