<svg width="200" height="61" viewBox="0 0 200 61" fill="none" xmlns="http://www.w3.org/2000/svg">
<path d="M24.6379 22.2239C24.6379 21.2683 24.3393 20.5285 23.6524 20.097C23.2343 19.8504 22.3981 19.758 21.6813 19.758H16.5746V30.3921H22.1293C23.4135 30.3921 24.4288 30.7004 24.5184 31.8717H24.6379V22.2239Z" stroke="black" stroke-width="1.057" stroke-miterlimit="3.8637"/>
<path d="M24.6379 22.2239C24.6379 21.2683 24.9365 20.5285 25.6234 20.097C26.0415 19.8504 27.0569 19.758 27.7438 19.758H32.8804V30.3921H27.2958C26.0117 30.3921 24.8171 30.7004 24.7574 31.8717H24.6379V22.2239Z" stroke="black" stroke-width="1.057" stroke-miterlimit="3.8637"/>
<path d="M33.9555 20.5594V31.81H26.0714L25.9818 32.0566C25.8325 32.3956 25.5936 32.7347 24.7275 32.7347C23.8614 32.7347 23.6225 32.3956 23.4732 32.0566L23.3836 31.81H15.4995V20.5594H14.7827V20.8984L14.0959 20.6827C14.0063 20.4053 13.7674 20.1895 13.4687 20.1895C13.1103 20.1895 12.8117 20.4977 12.8117 20.8676C12.8117 21.2375 13.1103 21.5457 13.4687 21.5457C13.618 21.5457 13.7674 21.4841 13.8868 21.3916L14.7827 21.669V22.5629L14.0959 22.4396C14.0063 22.193 13.7674 22.0389 13.4986 22.0389C13.1402 22.0389 12.8416 22.3471 12.8416 22.717C12.8416 23.0869 13.1402 23.3951 13.4986 23.3951C13.6778 23.3951 13.857 23.3027 13.9764 23.1794L14.7827 23.3335V24.2582L14.0959 24.2274C13.9764 24.0424 13.7674 23.8883 13.5284 23.8883C13.1701 23.8883 12.8714 24.1966 12.8714 24.5664C12.8714 24.9363 13.1701 25.2446 13.5284 25.2446C13.7375 25.2446 13.9465 25.1213 14.066 24.9671L14.7827 24.998V25.9843L14.066 26.0152C13.9465 25.8302 13.7674 25.7377 13.5284 25.7377C13.1701 25.7377 12.8714 26.046 12.8714 26.4159C12.8714 26.7857 13.1701 27.094 13.5284 27.094C13.7674 27.094 13.9764 26.9707 14.066 26.7857L14.7529 26.7549V27.6796L13.9764 27.8029C13.857 27.6796 13.6778 27.5872 13.4986 27.5872C13.1402 27.5872 12.8416 27.8954 12.8416 28.2653C12.8416 28.6352 13.1402 28.9434 13.4986 28.9434C13.7674 28.9434 14.0063 28.7893 14.0959 28.5427L14.7529 28.4194V29.3133L13.8868 29.5907C13.7674 29.4982 13.618 29.4366 13.4687 29.4366C13.1103 29.4366 12.8117 29.7448 12.8117 30.1147C12.8117 30.4846 13.1103 30.7928 13.4687 30.7928C13.7674 30.7928 14.0063 30.577 14.0959 30.2996L14.7529 30.0839V30.9469L13.7972 31.3785C13.7076 31.3168 13.5882 31.2552 13.4389 31.2552C13.0805 31.2552 12.7818 31.5634 12.7818 31.9333C12.7818 32.3032 13.0805 32.6114 13.4389 32.6114C13.7674 32.6114 14.0361 32.3648 14.066 32.0566L14.723 31.7484V32.5498H22.9655C23.294 33.1354 23.8614 33.4437 24.7275 33.4437C25.5936 33.4437 26.161 33.1354 26.4895 32.5498H34.6424V20.5594H33.9555Z" fill="black"/>
<path d="M19.352 16.8297C17.7094 16.8297 16.3655 17.1071 16.3655 17.4154C16.3655 17.7544 17.7094 18.001 19.352 18.001C20.9945 18.001 22.3384 17.7236 22.3384 17.4154C22.3384 17.0763 21.0243 16.8297 19.352 16.8297Z" fill="black"/>
<path d="M23.4732 13.1309L21.7411 14.3946L21.7112 14.5179L22.1293 14.7029C22.2189 14.7337 22.2189 14.8262 22.1592 14.857L21.0841 15.8125H20.9945L20.218 14.6412C20.1583 14.5796 20.1881 14.4871 20.2777 14.4871L20.7854 14.3946V14.2713L19.4415 12.3295H19.2325L17.8886 14.2713V14.3946L18.3963 14.4871C18.4859 14.5179 18.5158 14.5796 18.456 14.6412L17.6796 15.8125H17.59L16.5746 14.857C16.5447 14.8262 16.5447 14.7645 16.6044 14.7029L17.0225 14.5179L16.9927 14.3946L15.2008 13.1309L15.0515 13.1925L16.0968 16.5215C16.6343 16.2749 17.8587 16.0899 19.2922 16.0899C20.7257 16.0899 21.9501 16.2749 22.4877 16.5215L23.5329 13.1925L23.4732 13.1309Z" fill="black"/>
<path d="M24.7275 39.0844C23.085 39.0844 21.7411 39.3618 21.7411 39.67C21.7411 40.0091 23.085 40.2557 24.7275 40.2557C26.37 40.2557 27.7139 39.9783 27.7139 39.67C27.684 39.3618 26.37 39.0844 24.7275 39.0844Z" fill="black"/>
<path d="M28.8189 35.3855L27.0868 36.6493V36.7726L27.5049 36.9575C27.5944 36.9884 27.5945 37.0808 27.5347 37.1117L26.4596 38.0672H26.37L25.5936 36.8959C25.5338 36.8342 25.5637 36.7418 25.6533 36.7418L26.161 36.6493V36.526L24.8171 34.5841H24.608L23.2642 36.526V36.6493L23.7718 36.7418C23.8614 36.7726 23.8913 36.8342 23.8316 36.8959L23.0551 38.0672H22.9655L21.9501 37.1117C21.9203 37.0808 21.9203 36.9884 21.98 36.9575L22.3981 36.7726V36.6493L20.6062 35.3855L20.4569 35.4472L21.5022 38.7761C22.0397 38.5296 23.2642 38.3446 24.6976 38.3446C26.1311 38.3446 27.3555 38.5296 27.8931 38.7761L28.9383 35.4472L28.8189 35.3855Z" fill="black"/>
<path d="M30.0433 16.8297C28.4008 16.8297 27.0569 17.1071 27.0569 17.4154C27.0569 17.7544 28.4008 18.001 30.0433 18.001C31.6858 18.001 33.0297 17.7236 33.0297 17.4154C33.0297 17.0763 31.6858 16.8297 30.0433 16.8297Z" fill="black"/>
<path d="M34.1646 13.1309L32.4324 14.3946L32.4026 14.5179L32.8207 14.7029C32.9103 14.7337 32.9103 14.8262 32.8505 14.857L31.7754 15.8125H31.6858L30.9094 14.6412C30.8496 14.5796 30.8795 14.4871 30.9691 14.4871L31.4768 14.3946V14.2713L30.1329 12.3295H29.9239L28.58 14.2713V14.3946L29.0877 14.4871C29.1772 14.5179 29.2071 14.5796 29.1474 14.6412L28.3709 15.8125H28.2813L27.2659 14.857C27.2361 14.8262 27.2361 14.7645 27.2958 14.7029L27.7139 14.5179L27.684 14.3946L25.8922 13.1309L25.7429 13.1925L26.7881 16.5215C27.3257 16.2749 28.5501 16.0899 29.9836 16.0899C31.4171 16.0899 32.6415 16.2749 33.179 16.5215L34.2243 13.1925L34.1646 13.1309Z" fill="black"/>
<path d="M18.0081 21.4841C18.2768 21.4841 18.5157 21.5457 18.6651 21.6998C18.7845 21.7923 18.8741 21.9773 18.8741 22.193C18.8741 22.7787 18.456 23.0253 17.9185 23.0253H17.3212V22.9328C17.5004 22.9328 17.5004 22.902 17.5004 22.6554V21.854C17.5004 21.6074 17.4705 21.5765 17.3212 21.5765V21.4841H18.0081ZM17.9185 22.6245C17.9185 22.8403 17.9782 22.8711 18.0678 22.8711C18.2768 22.8711 18.456 22.6554 18.456 22.2238C18.456 21.7307 18.2171 21.5765 18.0081 21.5765C17.9483 21.5765 17.9185 21.5765 17.9185 21.6074C17.9185 21.6074 17.9185 21.669 17.9185 21.7307V22.6245Z" fill="#4285F4"/>
<path d="M20.6062 22.2239C20.6062 22.717 20.2777 23.0253 19.8298 23.0253C19.3818 23.0253 19.0832 22.6862 19.0832 22.2547C19.0832 21.8848 19.3221 21.4224 19.8596 21.4224C20.2777 21.4224 20.6062 21.7615 20.6062 22.2239ZM19.5013 22.1622C19.5013 22.5937 19.6506 22.902 19.8895 22.902C20.0986 22.902 20.1881 22.717 20.1881 22.2855C20.1881 21.8231 20.0388 21.5457 19.8298 21.5457C19.6506 21.5457 19.5013 21.7615 19.5013 22.1622Z" fill="#4285F4"/>
<path d="M22.6071 21.4841V21.5765C22.428 21.6074 22.428 21.6074 22.428 21.854L22.4578 22.6245C22.4578 22.8711 22.4578 22.902 22.637 22.902V22.9944H21.9203V22.902C22.0995 22.8711 22.0995 22.8711 22.0995 22.6245V21.7923L21.6515 22.9636H21.532L21.1139 21.8848L21.0841 22.4088C21.0841 22.6245 21.0841 22.717 21.0841 22.8095C21.0841 22.902 21.1438 22.9328 21.2931 22.9328V23.0253H20.7257V22.9328C20.8452 22.9328 20.875 22.902 20.9049 22.8095C20.9049 22.7478 20.9348 22.6245 20.9348 22.4088L20.9646 21.9464C20.9945 21.6382 20.9646 21.6382 20.7854 21.6074V21.5149H21.323L21.7112 22.4396L22.0696 21.5149H22.6071V21.4841Z" fill="#4285F4"/>
<path d="M23.3537 22.6245C23.3537 22.8711 23.3836 22.902 23.5329 22.902V22.9944H22.7863V22.902C22.9356 22.902 22.9655 22.8711 22.9655 22.6245V21.854C22.9655 21.6074 22.9356 21.5765 22.7863 21.5765V21.4841H23.5329V21.5765C23.3836 21.5765 23.3537 21.6074 23.3537 21.854V22.6245Z" fill="#4285F4"/>
<path d="M19.6805 25.8302H19.4714L18.6352 24.7206V25.1521C18.6352 25.3987 18.6352 25.522 18.6651 25.6145C18.6651 25.7069 18.7248 25.7377 18.8741 25.7377V25.8302H18.3067V25.7377C18.3963 25.7377 18.456 25.7069 18.4859 25.6145C18.4859 25.5528 18.5158 25.3987 18.5158 25.1521V24.7206C18.5158 24.5356 18.5158 24.5048 18.456 24.4432C18.4262 24.3815 18.3664 24.3815 18.2768 24.3815V24.289H18.7845L19.5311 25.2754V24.9672C19.5311 24.7206 19.5311 24.5973 19.5013 24.5048C19.5013 24.4123 19.4415 24.3815 19.2922 24.3815V24.289H19.8596V24.3815C19.7402 24.3815 19.6805 24.4123 19.6805 24.5048C19.6805 24.5664 19.6506 24.7206 19.6506 24.9672V25.8302H19.6805Z" fill="#4285F4"/>
<path d="M20.6062 25.8302C20.4569 25.3987 20.2479 24.8439 20.1583 24.5973C20.0687 24.4123 20.0388 24.3815 19.9194 24.3815V24.289H20.666V24.3815H20.5764C20.4868 24.3815 20.4868 24.4123 20.5167 24.5048C20.5465 24.6281 20.7257 25.0904 20.8153 25.337C20.875 25.1521 21.0243 24.6897 21.0542 24.5664C21.1139 24.4123 21.0841 24.4123 20.9945 24.3815H20.9348V24.289H21.4723V24.3815C21.3528 24.4123 21.323 24.4123 21.2334 24.6281C21.2334 24.6589 20.9348 25.3679 20.7854 25.8302H20.6062Z" fill="#0082FB"/>
<path d="M21.6216 25.337C21.6813 25.4603 21.8008 25.7377 22.0397 25.7377C22.1592 25.7377 22.2488 25.6453 22.2488 25.4911C22.2488 25.3679 22.1592 25.2754 22.0099 25.2137L21.98 25.1829C21.8008 25.0904 21.5918 24.9671 21.5918 24.7206C21.5918 24.4431 21.7709 24.2274 22.1293 24.2274C22.189 24.2274 22.2786 24.2274 22.3384 24.2582C22.3981 24.2582 22.4279 24.289 22.4578 24.289C22.4578 24.3815 22.4877 24.5048 22.5175 24.6589L22.4279 24.6897C22.3682 24.5356 22.3085 24.3815 22.1293 24.3815C22.0098 24.3815 21.9203 24.474 21.9203 24.5973C21.9203 24.7206 22.0099 24.7822 22.1592 24.8439L22.2189 24.8747C22.4279 24.9671 22.6071 25.0904 22.6071 25.3679C22.6071 25.6453 22.3682 25.861 22.0397 25.861C21.9501 25.861 21.8605 25.8302 21.8008 25.8302C21.7411 25.7994 21.6813 25.7994 21.6515 25.7686C21.6216 25.6453 21.5918 25.522 21.5619 25.3679L21.6216 25.337Z" fill="#4285F4"/>
<path d="M18.6651 28.2345C18.6651 28.481 18.6949 28.5119 18.8443 28.5119V28.6043H18.0977V28.5119C18.247 28.5119 18.2768 28.481 18.2768 28.2345V27.4639C18.2768 27.2173 18.247 27.1864 18.0977 27.1864V27.094H18.8443V27.1864C18.6949 27.1864 18.6651 27.2173 18.6651 27.4639V28.2345Z" fill="#4285F4"/>
<path d="M19.561 28.2653C19.561 28.3886 19.561 28.4502 19.6207 28.481C19.6506 28.5119 19.7103 28.5119 19.77 28.5119C19.8298 28.5119 19.9492 28.5119 19.9791 28.4502C20.009 28.4194 20.0687 28.3578 20.0986 28.2036L20.1881 28.2345C20.1881 28.3269 20.1284 28.5735 20.0986 28.6352H18.9637V28.5427C19.1429 28.5427 19.1429 28.5119 19.1429 28.2653V27.4947C19.1429 27.2481 19.113 27.2173 18.9637 27.2173V27.094H19.7103V27.1864C19.561 27.1864 19.5311 27.2173 19.5311 27.4639V28.2653H19.561Z" fill="#4285F4"/>
<path d="M20.8452 28.2653C20.8452 28.3886 20.8452 28.4502 20.9049 28.481C20.9348 28.5119 20.9945 28.5119 21.0542 28.5119C21.1139 28.5119 21.2334 28.5119 21.2633 28.4502C21.2931 28.4194 21.3528 28.3578 21.3827 28.2036L21.4723 28.2345C21.4723 28.3269 21.4126 28.5735 21.3827 28.6352H20.2777V28.5427C20.4569 28.5427 20.4569 28.5119 20.4569 28.2653V27.4947C20.4569 27.2481 20.4271 27.2173 20.2777 27.2173V27.094H21.0243V27.1864C20.875 27.1864 20.8452 27.2173 20.8452 27.4639V28.2653Z" fill="#4285F4"/>
<path d="M21.9203 28.6352C21.771 28.2036 21.5619 27.6488 21.4723 27.4022C21.3827 27.2173 21.3529 27.1864 21.2334 27.1864V27.094H21.98V27.1864H21.8904C21.8008 27.1864 21.8008 27.2173 21.8307 27.3097C21.8605 27.433 22.0397 27.8954 22.1293 28.142C22.1891 27.957 22.3384 27.4947 22.3682 27.3714C22.428 27.2173 22.3981 27.2173 22.3085 27.1864H22.2488V27.094H22.7863V27.1864C22.6669 27.2173 22.637 27.2173 22.5474 27.433C22.5474 27.4639 22.2488 28.1728 22.0995 28.6352H21.9203Z" fill="#4285F4"/>
<path d="M27.7736 21.4841V21.5765C27.5945 21.6074 27.5945 21.6074 27.5945 21.854L27.6243 22.6245C27.6243 22.8711 27.6243 22.902 27.8035 22.902V22.9944H27.0868V22.902C27.2659 22.8711 27.2659 22.8711 27.2659 22.6245V21.7923L26.818 22.9636H26.6985L26.2804 21.8848L26.2506 22.4088C26.2506 22.6245 26.2506 22.717 26.2506 22.8095C26.2506 22.902 26.3103 22.9328 26.4596 22.9328V23.0253H25.8922V22.9328C26.0117 22.9328 26.0415 22.902 26.0714 22.8095C26.0714 22.7478 26.1012 22.6245 26.1012 22.4088L26.1311 21.9464C26.161 21.6382 26.1311 21.6382 25.9519 21.6074V21.5149H26.4895L26.8777 22.4396L27.2361 21.5149H27.7736V21.4841Z" fill="#4285F4"/>
<path d="M28.5202 22.6245C28.5202 22.8711 28.5501 22.902 28.6994 22.902V22.9944H27.9528V22.902C28.1021 22.902 28.132 22.8711 28.132 22.6245V21.854C28.132 21.6074 28.1021 21.5765 27.9528 21.5765V21.4841H28.6994V21.5765C28.5501 21.5765 28.5202 21.6074 28.5202 21.854V22.6245Z" fill="#4285F4"/>
<path d="M30.1926 23.0253H29.9836L29.1474 21.9156V22.3471C29.1474 22.5937 29.1474 22.717 29.1773 22.8095C29.1773 22.902 29.237 22.9328 29.3863 22.9328V23.0253H28.8189V22.9328C28.9085 22.9328 28.9682 22.902 28.9981 22.8095C28.9981 22.7478 29.0279 22.6246 29.0279 22.3471V21.9156C29.0279 21.7307 29.0279 21.6998 28.9682 21.6382C28.9383 21.5765 28.8786 21.5765 28.789 21.5765V21.4841H29.2967L30.0433 22.4704V22.1622C30.0433 21.9156 30.0433 21.7923 30.0134 21.6998C30.0134 21.6074 29.9537 21.5765 29.7745 21.5765V21.4841H30.342V21.5765C30.2225 21.5765 30.1628 21.6074 30.1628 21.6998C30.1628 21.7615 30.1329 21.9156 30.1329 22.1622V23.0253H30.1926Z" fill="#4285F4"/>
<path d="M31.1483 22.902H31.208C31.2976 22.902 31.2976 22.8711 31.2677 22.7787L31.1781 22.5321H30.7899L30.7302 22.7479C30.7003 22.8403 30.7003 22.8711 30.7899 22.8711H30.8496V22.9636H30.3121V22.8711C30.4315 22.8403 30.4614 22.8403 30.551 22.6554L30.999 21.4533L31.1483 21.4224L31.2976 21.854C31.3872 22.1314 31.5067 22.4088 31.5664 22.6554C31.6261 22.8712 31.6858 22.8711 31.8053 22.902V22.9944H31.0886V22.902H31.1483ZM30.8496 22.4088H31.1483L30.999 21.9464L30.8496 22.4088Z" fill="#4285F4"/>
<path d="M27.7438 25.4295C27.7438 25.6761 27.7736 25.7069 27.9528 25.7069V25.7994H27.1465V25.7069C27.3257 25.7069 27.3555 25.6761 27.3555 25.4295V24.4123H27.3257C27.1764 24.4123 27.1166 24.4432 27.0868 24.474C27.0569 24.5048 27.027 24.5665 26.9972 24.6898H26.9076C26.9076 24.5048 26.9374 24.3199 26.9374 24.1966H26.9972C27.027 24.2582 27.0569 24.2582 27.1166 24.2582H28.0125C28.0723 24.2582 28.0723 24.2582 28.132 24.1966H28.1917C28.1917 24.289 28.1917 24.5048 28.2216 24.6589H28.132C28.1021 24.5048 28.0723 24.4432 28.0424 24.4123C28.0126 24.3815 27.923 24.3507 27.8334 24.3507H27.7438V25.4295Z" fill="#4285F4"/>
<path d="M28.9383 25.4295C28.9383 25.6761 28.9682 25.7069 29.1175 25.7069V25.7994H28.3709V25.7069C28.5202 25.7069 28.5501 25.6761 28.5501 25.4295V24.6589C28.5501 24.4123 28.5202 24.3815 28.3709 24.3815V24.289H29.1175V24.3815C28.9682 24.3815 28.9383 24.4123 28.9383 24.6589V25.4295Z" fill="#4285F4"/>
<path d="M30.8496 25.0288C30.8496 25.522 30.5211 25.8302 30.0732 25.8302C29.6252 25.8302 29.3266 25.4912 29.3266 25.0596C29.3266 24.6897 29.5655 24.2274 30.103 24.2274C30.5211 24.2582 30.8496 24.5664 30.8496 25.0288ZM29.7447 24.998C29.7447 25.4295 29.894 25.7377 30.1329 25.7377C30.3419 25.7377 30.4315 25.5528 30.4315 25.1213C30.4315 24.6589 30.2524 24.3815 30.0732 24.3815C29.8641 24.3815 29.7447 24.5664 29.7447 24.998Z" fill="#4285F4"/>
<path d="M28.4306 27.094V27.1864C28.2515 27.2173 28.2515 27.2173 28.2515 27.4639L28.2813 28.2345C28.2813 28.481 28.2813 28.5119 28.4605 28.5119V28.6043H27.7438V28.5119C27.923 28.481 27.923 28.481 27.923 28.2345V27.4022L27.475 28.5735H27.3555L26.9374 27.4947L26.9076 28.0187C26.9076 28.2345 26.9076 28.3269 26.9076 28.4194C26.9076 28.5119 26.9673 28.5427 27.1166 28.5427V28.6352H26.5492V28.5427C26.6687 28.5427 26.6985 28.5119 26.7284 28.4194C26.7284 28.3577 26.7583 28.2345 26.7583 28.0187L26.7881 27.5563C26.818 27.2481 26.7881 27.2481 26.6089 27.2173V27.094H27.1465L27.5347 28.0187L27.8931 27.094H28.4306Z" fill="#4285F4"/>
<path d="M28.789 27.4639C28.789 27.2173 28.7591 27.1864 28.6098 27.1864V27.094H29.6849C29.6849 27.1248 29.6849 27.3097 29.7148 27.4947H29.6252C29.5953 27.3714 29.5655 27.3097 29.5356 27.2789C29.5057 27.2481 29.4161 27.2173 29.2967 27.2173H29.2668C29.1772 27.2173 29.1772 27.2173 29.1772 27.3097V27.7721H29.2967C29.5057 27.7721 29.5057 27.7721 29.5356 27.5872H29.6252V28.142H29.5356C29.5057 27.9262 29.5057 27.9262 29.2967 27.9262H29.1772V28.2961C29.1772 28.4194 29.1772 28.481 29.237 28.5119C29.2668 28.5427 29.3266 28.5427 29.3863 28.5427C29.4759 28.5427 29.5655 28.5427 29.6252 28.481C29.6551 28.4502 29.7148 28.3578 29.7447 28.2345L29.8342 28.2653C29.8342 28.3886 29.7745 28.6352 29.7447 28.6968H28.58V28.6043C28.7591 28.5735 28.7591 28.5735 28.7591 28.3269V27.4639H28.789Z" fill="#4285F4"/>
<path d="M30.6107 28.5427H30.6705C30.76 28.5427 30.76 28.5119 30.7302 28.4194L30.6406 28.1728H30.2822L30.2225 28.3886C30.1926 28.481 30.1926 28.5119 30.2822 28.5119H30.3419V28.6043H29.8343V28.5119C29.9537 28.481 29.9836 28.481 30.0732 28.2961L30.5211 27.094L30.6705 27.0632L30.8198 27.4947C30.9094 27.7721 31.0288 28.0495 31.0886 28.2961C31.1483 28.5119 31.208 28.5119 31.3275 28.5119V28.6043H30.6107V28.5427ZM30.3419 28.0187H30.6406L30.4913 27.5563L30.3419 28.0187Z" fill="#4285F4"/>
<path d="M22.6669 47.4684C22.6669 47.8075 22.3981 48.0849 22.0696 48.0849C21.7411 48.0849 21.4723 47.8075 21.4723 47.4684C21.4723 47.1294 21.7411 46.852 22.0696 46.852C22.3981 46.852 22.6669 47.1294 22.6669 47.4684Z" fill="#0064E1"/>
<path d="M28.6994 48.4856C28.6994 48.8247 28.4306 49.1021 28.1021 49.1021C27.7736 49.1021 27.5049 48.8247 27.5049 48.4856C27.5049 48.1465 27.7736 47.8691 28.1021 47.8691C28.4306 47.8691 28.6994 48.1465 28.6994 48.4856Z" fill="#0064E1"/>
<path d="M25.2949 4.19202C25.2949 4.53108 25.0261 4.80849 24.6976 4.80849C24.3691 4.80849 24.1003 4.53108 24.1003 4.19202C24.1003 3.85296 24.3691 3.57555 24.6976 3.57555C25.0261 3.57555 25.2949 3.85296 25.2949 4.19202Z" fill="#0064E1"/>
<path d="M39.4207 9.92522C39.4207 10.2643 39.122 10.5109 38.7935 10.5109C38.465 10.5109 38.1962 10.2026 38.2261 9.86358C38.2261 9.52452 38.5247 9.27792 38.8532 9.27792C39.1817 9.30875 39.4207 9.58616 39.4207 9.92522Z" fill="#0064E1"/>
<path d="M9.64611 36.2486C9.88503 36.5877 10.0045 36.9575 9.97462 37.3274C9.97462 37.759 9.8253 38.098 9.07869 38.622L6.92848 40.194L6.54024 39.6084C6.54024 39.6084 8.75019 38.0055 8.78005 37.9747C9.16829 37.6973 9.31761 37.5124 9.31761 37.2041C9.31761 37.0192 9.25788 36.8034 9.10856 36.5877C8.89951 36.2794 8.63073 36.1561 8.36195 36.1561C8.15291 36.1561 7.91399 36.3102 7.4959 36.6185L5.495 38.0364L5.10677 37.4507L7.01807 36.0945C7.55562 35.6938 7.97372 35.4472 8.36195 35.4472C8.95924 35.478 9.37734 35.8479 9.64611 36.2486Z" fill="#0064E1"/>
<path d="M2.77737 31.9333L6.86876 30.4538L7.07781 31.1011L4.74841 34.0293L7.70495 32.8272L7.914 33.4437L3.88235 35.0465L3.6733 34.3992L6.0027 31.471L2.98642 32.5498L2.77737 31.9333Z" fill="#0064E1"/>
<path d="M6.46784 27.9111L2.18431 28.5677L2.28521 29.269L6.56874 28.6124L6.46784 27.9111Z" fill="#0064E1"/>
<path d="M2.03076 23.2719L2.06062 22.5321L6.33119 24.3199L6.30132 25.0288L1.9113 26.3851V25.6453L5.46513 24.6281L2.03076 23.2719Z" fill="#0064E1"/>
<path d="M5.94295 13.285C5.34567 13.285 5.04703 13.6549 4.6588 14.3638L4.15111 15.2885L7.94385 17.4154L8.27236 16.7989L6.68956 15.905L6.77915 15.7201C7.04793 15.2269 7.13752 15.1344 7.8244 15.196L9.04882 15.3193L9.40719 14.6721L7.97372 14.5488C7.67507 14.5179 7.46602 14.4871 7.28684 14.5488C7.22711 14.5796 7.16738 14.6104 7.07779 14.6721C7.10766 14.5796 7.13752 14.5179 7.13752 14.4255C7.13752 14.3022 7.10766 14.1789 7.07779 14.0556C6.9882 13.809 6.80901 13.5932 6.54024 13.4391C6.36105 13.3466 6.152 13.285 5.94295 13.285ZM5.16649 14.6412C5.4054 14.1789 5.61445 13.9939 5.85336 13.9939C5.94295 13.9939 6.09228 14.0247 6.21173 14.0864C6.36105 14.1789 6.51037 14.333 6.54024 14.4871C6.5701 14.5488 6.5701 14.6104 6.5701 14.6721C6.5701 14.9495 6.42078 15.196 6.27146 15.4735L6.18187 15.6276L4.95744 14.9495L5.16649 14.6412Z" fill="#0064E1"/>
<path d="M11.226 6.55416L10.6792 6.98322L13.2999 10.5413L13.8467 10.1123L11.226 6.55416Z" fill="#0064E1"/>
<path d="M13.0506 5.24002L15.828 3.76048L16.0968 4.28448L15.0216 4.87013L16.7239 8.29156L16.1266 8.63062L14.3945 5.20919L13.3194 5.79484L13.0506 5.24002Z" fill="#0064E1"/>
<path d="M20.009 2.40424L20.7257 2.18848L20.1583 5.17837L20.6062 6.87367L19.9492 7.05861L19.5013 5.39414L17.4406 3.17483L18.1574 2.95907L19.6207 4.53108L20.009 2.40424Z" fill="#0064E1"/>
<path d="M33.179 8.47651L35.3591 4.65437L37.4198 5.91814L37.1211 6.44215L35.6578 5.54826L35.0605 6.59626L36.4342 7.4285L36.1356 7.9525L34.7618 7.12026L33.7763 8.84639L33.179 8.47651Z" fill="#0064E1"/>
<path d="M44.2586 18.4325L45.8414 16.4906L46.0803 17.2304L44.9156 18.6175L46.6478 19.0182L46.8867 19.758L44.4975 19.1723L42.8252 21.2375L42.5862 20.4977L43.8405 18.9565L41.9591 18.525L41.7202 17.7852L44.2586 18.4325Z" fill="#0064E1"/>
<path d="M43.0342 22.8095L47.3346 22.4396L47.5437 24.9055L46.9464 24.9363L46.7971 23.1794L45.6025 23.3027L45.7518 24.9363L45.1844 24.998L45.0351 23.3335L43.0939 23.4876L43.0342 22.8095Z" fill="#0064E1"/>
<path d="M44.9455 26.7549C44.4378 26.7549 43.9899 26.909 43.6315 27.1556C42.9745 27.6488 42.855 28.3577 42.855 28.7585C42.855 30.2688 44.2288 30.8545 45.2442 30.8545C45.7518 30.8545 46.1998 30.7003 46.5582 30.4538C47.2749 29.8989 47.3346 29.0975 47.3346 28.8201C47.3346 27.5563 46.1401 26.7549 44.9455 26.7549ZM45.274 30.1763C44.4378 30.1763 43.4523 29.714 43.4523 28.8201C43.4523 28.5119 43.5718 28.0803 43.9301 27.8029C44.1989 27.618 44.5274 27.4947 44.8858 27.4947C45.3039 27.4947 46.0804 27.618 46.4984 28.2036C46.6478 28.3886 46.7075 28.6352 46.7075 28.8817C46.7075 29.2208 46.5582 29.6215 46.2297 29.8989C45.9908 30.0839 45.6623 30.1763 45.274 30.1763Z" fill="#0064E1"/>
<path d="M42.4369 11.9287C41.989 11.9287 41.541 12.0829 41.093 12.3603C40.2568 12.9151 39.9582 13.6857 39.9582 14.2405C39.9582 14.6104 40.0478 14.9803 40.2568 15.2885C40.7048 16.0283 41.4215 16.2132 41.8695 16.2132C42.3175 16.2132 42.7953 16.0591 43.2432 15.7817C43.7808 15.4426 44.3781 14.7953 44.3781 13.9015C44.3781 13.5316 44.2885 13.1617 44.0794 12.8535C43.6613 12.2678 43.0939 11.9287 42.4369 11.9287ZM41.75 15.5659C41.3618 15.5659 41.0034 15.4118 40.7645 15.0111C40.6451 14.8262 40.5853 14.5796 40.5853 14.3638C40.5853 13.8706 40.884 13.3466 41.4514 12.9768C41.8396 12.7302 42.198 12.6069 42.5265 12.6069C42.9446 12.6069 43.2731 12.7918 43.512 13.1617C43.6315 13.3775 43.7211 13.624 43.7211 13.8398C43.7211 14.333 43.4224 14.8262 42.8849 15.1652C42.4966 15.4426 42.1084 15.5659 41.75 15.5659Z" fill="#0064E1"/>
<path d="M30.6406 2.7433C29.7447 2.7433 28.9682 3.35978 28.6397 4.46943C28.58 4.71602 28.5202 4.9626 28.5202 5.20919C28.5202 5.64072 28.58 6.01061 28.7591 6.34967C29.1474 7.08944 29.894 7.36685 30.4315 7.36685C30.76 7.36685 31.0587 7.3052 31.3275 7.15108C32.0442 6.75038 32.5519 5.79484 32.5519 4.87013C32.5519 4.46942 32.4623 4.09954 32.313 3.7913C31.9845 3.11318 31.3275 2.7433 30.6406 2.7433ZM30.4315 6.71955C30.1329 6.71955 29.6551 6.56544 29.4162 6.07226C29.2967 5.85649 29.237 5.54825 29.237 5.27084C29.237 4.46942 29.7447 3.35977 30.7003 3.35977C31.2379 3.35977 31.8949 3.76048 31.8949 4.77766C31.8949 5.42496 31.4469 6.71955 30.4315 6.71955Z" fill="#0064E1"/>
<path d="M6.7493 18.9257L7.31672 19.0798L6.65971 21.5457L2.47873 20.3436L3.19547 17.8777L3.76289 18.0318L3.2552 19.8196L4.39003 20.1587L4.838 18.525L5.40541 18.6791L4.95745 20.3128L6.27147 20.6827L6.7493 18.9257Z" fill="#0064E1"/>
<path d="M7.82439 9.61697C8.42167 8.90803 9.04882 8.96968 9.04882 8.96968L9.16828 9.55533C9.16828 9.55533 8.69045 9.55533 8.33208 9.98686C8.18276 10.1718 8.09317 10.3567 8.09317 10.5417C8.09317 10.6958 8.1529 10.8191 8.27235 10.9116C8.57099 11.189 9.07868 10.8807 9.40719 10.7574C9.6461 10.665 10.0045 10.5109 10.3628 10.5109C10.6316 10.5109 10.9004 10.5725 11.1393 10.8191C11.4379 11.0965 11.5574 11.4047 11.5574 11.7746C11.5574 12.1445 11.4081 12.4836 11.1393 12.8226C10.6018 13.4699 9.85515 13.5316 9.85515 13.5316L9.70583 12.9459C10.1538 12.8535 10.4823 12.6685 10.6615 12.4219C10.8108 12.237 10.9004 12.0212 10.9004 11.8671C10.9004 11.713 10.8407 11.528 10.6913 11.4047C10.5719 11.3123 10.4524 11.2814 10.3031 11.2814C10.0343 11.2814 9.70583 11.4356 9.40719 11.5589C8.86963 11.7746 8.33208 11.9596 7.82439 11.4972C7.58548 11.2506 7.43616 10.9732 7.43616 10.6342C7.43616 10.2951 7.55561 9.92521 7.82439 9.61697Z" fill="#0064E1"/>
<path d="M41.8994 32.519L43.5419 33.2895L43.4523 33.4745C43.2433 33.9985 43.1537 34.091 42.4668 34.091H41.2424L40.9437 34.7691H42.3772C42.6758 34.7691 42.8849 34.7691 43.0641 34.7074C43.1238 34.6766 43.1835 34.6458 43.2432 34.5841C43.2432 34.615 43.2134 34.6458 43.2134 34.7074C43.2134 34.8616 43.2433 35.0465 43.303 35.1698C43.512 35.6321 44.0197 35.8787 44.408 35.8787C45.0948 35.8787 45.3636 35.4472 45.6921 34.6766C45.6921 34.6458 46.0803 33.7211 46.0803 33.7211L42.1681 31.9025L41.8994 32.519ZM44.4378 35.1698C44.2288 35.1698 43.9003 35.0465 43.7808 34.7074C43.7509 34.615 43.7509 34.5225 43.7509 34.4608C43.7509 34.2143 43.8704 33.9677 43.9898 33.6902L44.0496 33.5053L45.3039 34.091L45.1546 34.43C44.9156 35.0157 44.7663 35.1698 44.4378 35.1698Z" fill="#0064E1"/>
<path d="M39.6297 36.7418C39.1817 37.3274 38.8532 37.8514 38.8532 38.4987C38.8532 39.0536 39.0921 39.7009 39.7193 40.2249C40.1374 40.5639 40.6152 40.7488 41.093 40.7488C41.6903 40.7488 42.1681 40.5639 42.9147 39.6084L43.6016 38.7145L40.227 35.9404L39.6297 36.7418ZM41.1528 40.1016C40.8243 40.1016 40.4958 39.9783 40.1374 39.7008C39.8089 39.4234 39.4505 38.9919 39.4505 38.4371C39.4505 38.0364 39.6596 37.6665 39.9582 37.2658L40.2568 36.8959L42.7356 38.9303L42.5564 39.1769C42.0786 39.7625 41.75 40.1016 41.1528 40.1016Z" fill="#0064E1"/>
<path d="M49.455 25.4912C49.455 11.4356 38.3455 0 24.7275 0C11.0796 0 0 11.4356 0 25.4912C0 33.9368 4.03166 41.766 10.7809 46.5437C11.438 49.1021 13.7076 50.9823 16.3954 50.9823C17.1121 50.9823 17.8289 50.8282 18.4859 50.5816C19.3818 50.8898 20.3375 51.1364 21.2633 51.3522C20.9945 52.1228 20.6062 52.8626 20.2479 53.5099C20.2479 53.5099 20.2479 53.5099 20.2777 53.5099H20.2479L20.7556 54.0339C20.875 53.9722 21.0243 53.9106 21.2035 53.9106C21.7112 53.9106 22.1293 54.3421 22.1293 54.8661C22.1293 55.3901 21.7112 55.8216 21.2035 55.8216C20.7556 55.8216 20.3673 55.5134 20.1583 55.2052C20.1583 55.2052 20.0388 55.6367 20.0388 56.1915C20.0388 58.0101 21.98 60.1061 24.6678 61C27.3555 60.1369 29.2967 58.0409 29.2967 56.1915C29.2967 55.575 29.1772 55.2052 29.1772 55.2052C28.9682 55.4517 28.6397 55.8216 28.132 55.8216C27.6243 55.8216 27.2062 55.3901 27.2062 54.8661C27.2062 54.3421 27.6243 53.9106 28.132 53.9106C28.3112 53.9106 28.4605 53.9722 28.6098 54.0647L29.1175 53.5407H29.1474C28.8786 52.8317 28.6696 52.2153 28.5202 51.5988C32.97 50.9823 36.7329 49.0404 39.6894 45.8039C45.9012 40.903 49.455 33.5053 49.455 25.4912ZM16.3954 50.2734C13.5882 50.2734 11.2886 47.8999 11.2886 45.0025C11.2886 44.0778 11.5276 43.2456 11.9158 42.475C12.1846 42.7216 12.4533 42.9682 12.752 43.2456C12.5131 43.8004 12.3637 44.3861 12.3637 45.0334C12.3637 46.6054 13.1402 47.9308 14.6036 48.8247C15.4398 49.3487 16.3954 49.811 17.4108 50.2117C17.0823 50.2425 16.7538 50.2734 16.3954 50.2734ZM24.7275 42.5983C23.6822 42.5983 22.637 42.5058 21.5918 42.29C20.6062 40.2865 18.5755 38.9919 16.3954 38.9919C15.8578 38.9919 15.3502 39.0844 14.8425 39.2077C10.6316 36.002 8.12304 30.8545 8.12304 25.4603C8.12304 16.0283 15.5592 8.35321 24.6976 8.35321C33.836 8.35321 41.2722 16.0283 41.2722 25.4603C41.3021 34.9232 33.8659 42.5983 24.7275 42.5983ZM28.4008 42.9065C27.8931 43.6463 27.5944 44.6635 27.5347 45.6806C25.9519 45.2491 24.5483 44.6943 23.294 44.1086C23.5329 43.6463 24.2198 43.3072 24.7275 43.3072C25.9818 43.3072 27.2062 43.1531 28.4008 42.9065ZM23.1447 43.2456C22.9356 43.3997 22.7565 43.6155 22.637 43.8004C22.0099 43.4922 21.2334 43.0915 20.6958 42.7832C21.4424 42.9682 22.3981 43.1531 23.1447 43.2456ZM16.3954 39.7317C18.0977 39.7317 19.7103 40.6256 20.6361 42.0743C19.8298 41.8585 19.0234 41.5811 18.2171 41.242H18.1872C17.6497 40.9646 17.0524 40.8413 16.4253 40.8413C15.0515 40.8413 13.857 41.5195 13.1103 42.5675C12.8117 42.3825 12.4832 42.1976 12.1846 42.0126C13.1402 40.6256 14.6633 39.7317 16.3954 39.7317ZM28.132 53.1708C27.2062 53.1708 26.4596 53.8489 26.4596 54.8661C26.4596 55.8525 27.2062 56.5614 28.132 56.5614C28.2813 56.5614 28.4008 56.5306 28.5202 56.4997C28.3411 57.9176 26.7284 59.4896 24.6678 60.1986C22.637 59.4896 21.0243 57.8868 20.8153 56.4997C20.9347 56.5306 21.0841 56.5614 21.2035 56.5614C22.189 56.5614 22.8759 55.8525 22.8759 54.8661C22.8759 53.9414 22.1592 53.2016 21.2633 53.1708C21.532 52.6468 21.8008 52.092 22.0099 51.4755C23.1447 51.6913 24.2497 51.7837 25.2949 51.7837C26.161 51.7837 26.9673 51.7221 27.7736 51.6604C27.8931 52.1536 28.0424 52.6468 28.2216 53.1708C28.1917 53.1708 28.1619 53.1708 28.132 53.1708ZM25.2949 51.0748C21.98 51.0748 17.8289 49.9035 14.9918 48.1774C14.1257 47.6534 13.1103 46.667 13.1103 45.0025C13.1103 44.5402 13.1999 44.1086 13.3493 43.7388C14.4244 44.6326 15.4995 45.4957 16.1864 45.8964C16.3357 45.9889 16.4253 46.0197 16.6343 46.0197C17.0823 46.0197 17.4406 45.6498 17.4406 45.1875C17.4406 44.8484 17.2615 44.5402 16.9628 44.4169C16.3655 44.1395 15.1411 43.6155 13.8271 42.9065C14.4542 42.0743 15.4099 41.5194 16.485 41.5194C16.9927 41.5194 17.4705 41.6427 17.9185 41.8585L18.8144 42.4133C21.7112 44.2319 29.1474 48.9171 38.1066 46.3279C34.6722 49.5028 30.4913 51.0748 25.2949 51.0748ZM39.2116 45.2183C35.1799 46.6978 31.4469 46.5745 28.2515 45.8348C28.3709 44.3552 28.9383 42.7832 29.8641 42.475C36.9121 40.2249 42.0487 33.4437 42.0487 25.4603C42.0487 15.6276 34.284 7.64426 24.7574 7.64426C15.2008 7.64426 7.46603 15.6276 7.46603 25.4603C7.46603 30.9161 9.94475 36.1253 14.0959 39.4851C13.1104 39.9474 12.2742 40.6564 11.647 41.5503C11.3185 41.3345 11.0199 41.0879 10.7511 40.8722L10.6018 41.0263C10.7809 41.2729 11.0796 41.5811 11.438 41.9202C10.9303 42.814 10.6316 43.862 10.6316 44.9717C10.6316 45.1566 10.6316 45.3108 10.6615 45.4957C4.44976 40.8413 0.776468 33.4128 0.776468 25.4912C0.776468 11.8363 11.5574 0.70894 24.7872 0.70894C38.017 0.70894 48.798 11.8055 48.798 25.4912C48.7084 33.3204 45.2441 40.5023 39.2116 45.2183Z" fill="black"/>
<path d="M80.3942 40.0399C80.3942 46.8519 75.2875 51.8146 68.9264 51.8146C62.4459 51.8146 57.4586 46.8211 57.4586 40.2865C57.4586 33.4745 62.5653 28.5119 68.9264 28.5119C75.4069 28.4811 80.3942 33.5053 80.3942 40.0399ZM76.7508 40.1632C76.7508 33.9677 73.8241 29.6215 68.9264 29.6215C63.5807 29.6215 61.102 34.8307 61.102 40.1632C61.102 46.3588 64.0287 50.6741 68.9264 50.6741C74.2721 50.6741 76.7508 45.4649 76.7508 40.1632Z" fill="#0064E1"/>
<path d="M150.426 40.0399C150.426 46.8519 145.319 51.8146 138.958 51.8146C132.477 51.8146 127.49 46.8211 127.49 40.2865C127.49 33.4745 132.597 28.5119 138.958 28.5119C145.468 28.4811 150.426 33.5053 150.426 40.0399ZM146.782 40.1632C146.782 33.9677 143.855 29.6215 138.958 29.6215C133.612 29.6215 131.133 34.8307 131.133 40.1632C131.133 46.3588 134.06 50.6741 138.958 50.6741C144.303 50.6741 146.782 45.4649 146.782 40.1632Z" fill="#0064E1"/>
<path d="M159.295 40.2557H162.013C166.134 40.2557 167.06 37.574 167.06 34.9848C167.06 33.0429 166.194 31.2243 164.253 30.3613C163.237 29.9298 162.252 29.9298 160.908 29.9298H159.265V40.2557H159.295ZM164.342 43.8929C163.058 42.0126 162.58 41.3345 160.997 41.3345H159.295V48.9788C159.295 49.5952 159.534 49.9035 160.221 50.0268L162.7 50.5816V51.4138H152.934V50.5816L155.174 50.0268C155.831 49.8418 156.07 49.5952 156.07 48.9788V31.3168C156.07 30.7003 155.831 30.4538 155.174 30.238L152.934 29.6832V28.8817H162.461C164.462 28.8817 165.865 29.0667 167 29.4982C169.359 30.4538 170.703 32.7655 170.703 34.954C170.703 37.7281 168.702 40.0399 165.358 40.8413V40.9646C166.015 41.2729 166.403 41.7044 168.762 44.91L171.749 48.9788C172.167 49.5952 172.734 49.9651 173.391 50.1192L175.571 50.6124V51.4447H170.345C169.748 51.4447 169.419 51.2597 168.882 50.4891L164.342 43.8929Z" fill="#0064E1"/>
<path d="M121.547 36.5877H122.443V44.1086H121.547L121.009 41.8585C120.83 41.0571 120.352 40.718 119.606 40.718H114.32V48.9788C114.32 49.5952 114.559 49.9035 115.246 50.0268L117.724 50.5816V51.4138H107.959V50.5816L110.199 50.0268C110.856 49.8418 111.124 49.5952 111.124 48.9788V31.3168C111.124 30.7003 110.885 30.4538 110.199 30.2688L107.959 29.714V28.8817H124.474V34.5225H123.548L122.532 31.1319C122.294 30.2688 121.935 29.9298 121.189 29.9298H114.32V39.6392H119.606C120.323 39.6392 120.771 39.331 121.009 38.4987L121.547 36.5877Z" fill="#0064E1"/>
<path d="M177.303 51.4138V50.5816L179.543 50.0268C180.2 49.8418 180.469 49.5952 180.469 48.9788V31.3168C180.469 30.7003 180.23 30.4538 179.543 30.2688L177.303 29.714V28.8817H187.577C190.354 28.8817 192.385 29.2516 193.997 30.0222C198.119 31.9641 200 36.1561 200 40.2865C200 44.2936 198.537 48.0541 194.834 50.0576C193.131 51.0131 190.772 51.4447 187.666 51.4447H177.303V51.4138ZM183.694 29.9298V49.3487C183.694 50.1809 183.873 50.3658 184.68 50.3658H187.338C189.876 50.3658 191.758 49.9959 193.101 48.9788C195.341 47.2835 196.386 44.2319 196.386 40.3481C196.386 36.526 195.341 32.7655 192.325 30.9469C191.041 30.1763 189.398 29.9298 186.86 29.9298H183.694Z" fill="#0064E1"/>
<path d="M88.9652 50.6124V51.4447H81.2603V50.6124L83.2015 50.1193C83.9182 49.9343 84.4259 49.6877 84.9037 49.1021L91.5933 40.4714L84.9037 31.3168C84.4856 30.7004 83.948 30.3921 83.2612 30.1763L81.4395 29.6832V28.8509H91.0258V29.6832L88.9652 30.1147C88.2485 30.238 88.4277 30.5462 88.786 31.0702L93.7136 38.3446H93.8331L98.8801 31.0702C99.2385 30.5771 99.3579 30.3921 98.7009 30.2072L96.7598 29.714V28.8818H104.465V29.714L102.524 30.2072C101.807 30.3921 101.299 30.6387 100.821 31.1935L94.52 39.3926L101.508 48.9788C101.926 49.5952 102.494 49.9035 103.151 50.1193L104.972 50.6124V51.4447H95.386V50.6124L97.4466 50.1809C98.1634 50.0576 98.0439 49.811 97.6855 49.287L92.3399 41.5194H92.2204L86.815 49.2254C86.4566 49.7185 86.3372 49.9035 86.9942 50.0884L88.9652 50.6124Z" fill="#0064E1"/>
<path d="M65.9698 18.2476C65.3726 18.8641 64.4468 19.2956 63.1925 19.2956C62.0875 19.2956 61.0721 18.9257 60.3852 18.2168C59.4296 17.2304 59.4893 15.9975 59.4893 14.6721V8.41486H60.7138V15.1652C60.7138 16.0283 60.6839 16.8605 61.3409 17.5078C61.7889 17.9702 62.4757 18.2168 63.2522 18.2168C64.0287 18.2168 64.626 17.9394 65.0142 17.5387C65.7309 16.7989 65.6712 15.9975 65.6712 14.0864V8.44568H66.8956V13.7782C66.8956 15.7509 66.9554 17.2304 65.9698 18.2476Z" fill="black"/>
<path d="M76.9598 19.0798L71.9725 10.3259L72.0024 19.0798H70.8676V8.41486H72.1517L77.139 17.2304L77.1092 8.41486H78.244V19.0798H76.9598Z" fill="black"/>
<path d="M83.8286 8.41486H82.5743V19.1107H83.8286V8.41486Z" fill="black"/>
<path d="M91.5634 19.0798H90.1299L86.5462 8.41486H87.8602L90.8765 17.8469L93.9824 8.41486H95.1769L91.5634 19.0798Z" fill="black"/>
<path d="M98.014 19.0798V8.41486H103.628V9.46286H99.2385V13.0076H103.36V14.0556H99.2385V18.001H103.748V19.0798H98.014Z" fill="black"/>
<path d="M111.632 10.0177C111.035 9.40121 110.258 9.43204 109.422 9.43204H108.287V13.4391H108.705C109.751 13.4391 110.885 13.5008 111.572 12.761C111.901 12.4219 112.11 11.8979 112.11 11.3739C112.11 10.7575 111.871 10.2643 111.632 10.0177ZM112.767 19.0798L111.572 16.3057C110.826 14.6104 110.497 14.4255 109.004 14.4255H108.287V19.0798H107.063V8.38403H109.303C110.676 8.38403 111.722 8.38403 112.528 9.21627C113.036 9.74027 113.334 10.4492 113.334 11.3431C113.334 12.0829 113.125 12.6993 112.677 13.1925C112.319 13.5932 111.692 13.9631 111.005 14.0248C111.363 14.0556 111.662 14.2405 111.871 14.4563C112.14 14.7337 112.349 15.1961 112.647 15.8742L114.051 19.0798H112.767Z" fill="black"/>
<path d="M127.4 8.41486H126.146V19.1107H127.4V8.41486Z" fill="black"/>
<path d="M134.508 9.46286V19.0798H133.254V9.46286H130.178V8.41486H137.554V9.46286H134.508Z" fill="black"/>
<path d="M143.527 14.857V19.0798H142.303V14.857L139.017 8.41486H140.421L142.989 13.4083L145.468 8.41486H146.812L143.527 14.857Z" fill="black"/>
<path d="M158.429 9.30873C156.398 9.30873 155.084 11.0657 155.084 13.7473C155.084 16.3982 156.548 18.2168 158.489 18.2168C160.639 18.2168 161.864 16.3057 161.864 13.6549C161.864 11.0349 160.43 9.30873 158.429 9.30873ZM158.429 19.2956C155.741 19.2956 153.8 17.0146 153.8 13.809C153.8 10.5109 155.741 8.2299 158.549 8.2299C161.266 8.2299 163.178 10.5109 163.178 13.7165C163.148 17.0146 161.207 19.2956 158.429 19.2956Z" fill="black"/>
<path d="M167.777 9.46286V13.0076H171.778V14.0248H167.777V19.0798H166.552V8.41486H172.047V9.46286H167.777Z" fill="black"/>
<path d="M116.56 11.0041C116.56 9.3704 117.844 8.1991 119.695 8.1991C121.577 8.1991 122.503 9.21628 122.592 9.30875L121.995 10.0793C121.756 9.8944 120.92 9.27792 119.785 9.27792C118.471 9.27792 117.724 9.98687 117.724 10.9424C117.724 11.4048 117.904 11.7438 118.202 12.0212C118.561 12.3603 119.068 12.6069 119.636 12.8535C120.323 13.1925 121.278 13.5624 121.905 14.2405C122.353 14.7029 122.682 15.3194 122.682 16.1516C122.682 17.9394 121.487 19.2956 119.337 19.2956C117.515 19.2956 116.351 18.2476 116.231 18.1551L116.799 17.2921C117.097 17.5078 118.232 18.2168 119.307 18.2168C120.86 18.2168 121.457 17.3229 121.457 16.2749C121.457 15.7817 121.248 15.381 120.92 15.0728C120.442 14.5796 119.695 14.2714 119.009 13.9323C118.322 13.5932 117.635 13.2542 117.157 12.7302C116.888 12.4219 116.56 11.8671 116.56 11.0041Z" fill="black"/>
</svg>
