<svg id="tutor-img" width="409" height="346" viewBox="0 0 409 346" fill="none" xmlns="http://www.w3.org/2000/svg">
<g id="tutor">
<g id="Arrow_1">
<g id="Group">
<g id="Group_2">
<path id="Vector" d="M201.646 140.511L203.515 142.853L26.11 285.889L33.6668 295.358L34.7031 296.658L212.108 153.622L213.976 155.963L217.299 140.479L201.646 140.511Z" fill="#407BFF"/>
<path id="Vector_2" opacity="0.7" d="M201.646 140.511L203.515 142.853L26.11 285.889L33.6668 295.358L34.7031 296.658L212.108 153.622L213.976 155.963L217.299 140.479L201.646 140.511Z" fill="white"/>
</g>
<path id="Vector_3" d="M0 295.892C0 292.628 2.61556 289.98 5.84086 289.98C6.42394 289.98 6.98704 290.069 7.51793 290.231C7.43241 289.638 7.38687 289.032 7.38687 288.416C7.38687 281.502 12.9245 275.897 19.755 275.897C20.5335 275.897 21.2943 275.974 22.0329 276.113C23.9343 272.963 27.3506 270.854 31.2645 270.854C37.1865 270.854 41.9911 275.671 42.0788 281.644C42.1388 281.643 42.1977 281.635 42.2588 281.635C47.762 281.635 52.2223 286.15 52.2223 291.72C52.2223 297.29 47.762 301.806 42.2588 301.806H5.66871L5.67649 301.797C2.52671 301.708 0 299.102 0 295.892Z" fill="#407BFF"/>
<path id="Vector_4" opacity="0.8" d="M0 295.892C0 292.628 2.61556 289.98 5.84086 289.98C6.42394 289.98 6.98704 290.069 7.51793 290.231C7.43241 289.638 7.38687 289.032 7.38687 288.416C7.38687 281.502 12.9245 275.897 19.755 275.897C20.5335 275.897 21.2943 275.974 22.0329 276.113C23.9343 272.963 27.3506 270.854 31.2645 270.854C37.1865 270.854 41.9911 275.671 42.0788 281.644C42.1388 281.643 42.1977 281.635 42.2588 281.635C47.762 281.635 52.2223 286.15 52.2223 291.72C52.2223 297.29 47.762 301.806 42.2588 301.806H5.66871L5.67649 301.797C2.52671 301.708 0 299.102 0 295.892Z" fill="#212529"/>
</g>
</g>
<g id="Arrow_3">
<g id="Group_3">
<g id="Group_4">
<path id="Vector_5" d="M371.885 231.124L376.315 236.677L293.854 304.101L311.77 326.553L314.229 329.635L396.69 262.21L401.121 267.762L409 231.05L371.885 231.124Z" fill="#407BFF"/>
<path id="Vector_6" opacity="0.5" d="M371.885 231.124L376.315 236.677L293.854 304.101L311.77 326.553L314.229 329.635L396.69 262.21L401.121 267.762L409 231.05L371.885 231.124Z" fill="white"/>
</g>
<path id="Vector_7" d="M327.302 301.675C323.975 296.302 318.089 292.715 311.36 292.715C304.521 292.715 298.55 296.421 295.256 301.945C294.391 301.7 293.482 301.56 292.54 301.56C286.973 301.56 282.458 306.128 282.458 311.765C282.458 311.77 282.459 311.774 282.459 311.779H277.144C274.375 311.779 272.109 314.072 272.109 316.875C272.109 319.678 274.375 321.971 277.144 321.971H295.487C298.827 327.282 304.68 330.815 311.36 330.815C316.628 330.815 321.384 328.618 324.8 325.088C325.118 325.114 325.436 325.138 325.761 325.138C332.193 325.138 337.407 319.86 337.407 313.349C337.407 307.368 333.004 302.441 327.302 301.675Z" fill="#407BFF"/>
<path id="Vector_8" opacity="0.8" d="M327.302 301.675C323.975 296.302 318.089 292.715 311.36 292.715C304.521 292.715 298.55 296.421 295.256 301.945C294.391 301.7 293.482 301.56 292.54 301.56C286.973 301.56 282.458 306.128 282.458 311.765C282.458 311.77 282.459 311.774 282.459 311.779H277.144C274.375 311.779 272.109 314.072 272.109 316.875C272.109 319.678 274.375 321.971 277.144 321.971H295.487C298.827 327.282 304.68 330.815 311.36 330.815C316.628 330.815 321.384 328.618 324.8 325.088C325.118 325.114 325.436 325.138 325.761 325.138C332.193 325.138 337.407 319.86 337.407 313.349C337.407 307.368 333.004 302.441 327.302 301.675Z" fill="#212529"/>
</g>
</g>
<g id="Character_1">
<g id="Group_5">
<path id="Vector_9" d="M203.5 73.5559L201.899 71.8482C201.468 71.3884 200.836 71.1838 200.222 71.303L197.826 71.7684C197.043 71.9202 196.447 72.5666 196.35 73.367L195.123 83.5288L198.839 84.9712C203.363 82.9791 203.128 76.9297 203.128 76.9297L203.779 75.7256C204.161 75.0185 204.049 74.1416 203.5 73.5559Z" fill="#FFB573"/>
<path id="Vector_10" d="M158.667 104.008C158.667 104.008 162.225 104.226 164.311 104.174C166.415 104.145 168.51 104.107 170.568 103.987C172.618 103.855 174.655 103.709 176.524 103.447C177.45 103.315 178.35 103.146 179.059 102.951C179.391 102.854 179.712 102.752 179.859 102.691C180.098 102.58 179.834 102.775 179.968 102.699C180.316 102.4 180.99 101.587 181.58 100.833C182.188 100.05 182.801 99.2072 183.408 98.3494C184.626 96.6293 185.836 94.8418 187.043 93.0442L194.298 82.1483L199.966 85.2039C199.133 87.3028 198.229 89.3253 197.324 91.3725C196.387 93.3972 195.432 95.4163 194.446 97.4354C193.446 99.4466 192.406 101.445 191.277 103.447C190.705 104.447 190.117 105.449 189.471 106.472C188.798 107.516 188.179 108.492 187.01 109.783C186.38 110.492 185.226 111.352 184.482 111.723C183.662 112.176 182.958 112.458 182.261 112.725C180.897 113.223 179.662 113.538 178.445 113.813C176.023 114.359 173.716 114.684 171.418 114.907C166.817 115.369 162.401 115.542 157.789 115.438L158.667 104.008Z" fill="#407BFF"/>
<path id="Vector_11" opacity="0.7" d="M199.961 85.2084C199.128 87.2995 198.228 89.3231 197.329 91.3691C196.385 93.3927 195.429 95.4163 194.441 97.4399C193.441 99.441 192.408 101.442 191.276 103.443C190.709 104.444 190.121 105.444 189.465 106.467C188.799 107.513 188.177 108.491 187.011 109.784C186.378 110.492 185.223 111.346 184.479 111.717C183.657 112.178 182.957 112.459 182.257 112.729C180.891 113.224 179.658 113.539 178.448 113.809C176.027 114.359 173.716 114.685 171.417 114.91C170.429 115.011 169.452 115.09 168.485 115.169C164.92 115.427 161.41 115.517 157.79 115.439L157.968 113.078L158.667 104.005C158.667 104.005 162.221 104.23 164.309 104.174C166.419 104.14 168.508 104.107 170.573 103.983C172.617 103.859 174.66 103.713 176.526 103.443C177.448 103.32 178.348 103.151 179.059 102.949C179.392 102.859 179.714 102.757 179.858 102.69C180.103 102.578 179.836 102.78 179.969 102.701C180.314 102.398 180.991 101.588 181.58 100.835C182.191 100.048 182.801 99.2049 183.401 98.3505C184.623 96.6305 185.833 94.843 187.044 93.0442L194.297 82.1506L199.961 85.2084Z" fill="white"/>
<path id="Vector_12" opacity="0.1" d="M168.485 115.169C164.92 115.427 161.41 115.517 157.79 115.439L157.968 113.078L158.834 111.009C158.834 111.009 164.654 110.931 168.485 115.169Z" fill="black"/>
<path id="Vector_13" d="M99.2657 305.682C99.2657 305.682 89.2111 298.681 89.8275 293.977C89.8886 293.515 89.6209 293.107 89.1378 293.032L80.6147 291.727C80.2171 291.667 79.7918 291.85 79.5563 292.185L74.5207 299.328L76.783 300.157L77.997 299.294L78.5678 300.81C90.846 305.306 96.1993 307.117 98.9059 307.231C99.6534 306.263 99.2657 305.682 99.2657 305.682Z" fill="black"/>
<g id="Group_6">
<path id="Vector_14" d="M155.891 173.437C155.891 173.437 155.38 174.786 154.48 177.124C153.514 179.654 152.092 183.341 150.382 187.726C149.238 190.649 147.972 193.887 146.606 197.293C140.331 213.077 132.223 232.605 126.858 242.464C116.585 261.328 89.8186 297.157 89.8186 297.157L79.1232 293.2C79.1232 293.2 98.3817 256.303 108.1 237.607C111.065 231.908 114.475 223.521 117.851 214.37C119.462 210.019 121.061 205.488 122.605 201.003C123.304 198.979 123.993 196.956 124.659 194.966C126.425 189.704 128.08 184.634 129.535 180.115C129.713 179.553 129.891 178.991 130.068 178.451C130.657 176.596 131.212 174.842 131.712 173.223C133.8 166.568 135.099 162.184 135.144 162.015C135.155 162.015 135.155 162.015 135.155 162.015L144.695 167.276L155.891 173.437Z" fill="#263238"/>
</g>
<path id="Vector_15" opacity="0.3" d="M154.48 177.124C153.514 179.654 152.092 183.341 150.382 187.726C149.238 190.649 147.972 193.887 146.606 197.293C137.876 199.069 128.991 200.272 122.605 201.003C123.304 198.979 123.993 196.956 124.659 194.966C126.425 189.704 128.08 184.634 129.535 180.115C129.713 179.553 129.891 178.991 130.068 178.451C130.657 176.596 131.212 174.842 131.712 173.223C138.131 174.112 146.717 175.438 154.48 177.124Z" fill="black"/>
<g id="Group_7">
<path id="Vector_16" d="M121.711 109.994C121.711 110.003 121.718 110.011 121.718 110.019C123.258 115.249 124.161 121.326 124.665 127.318C125.054 131.979 125.201 136.569 125.221 140.686C125.237 144.835 125.114 148.506 124.98 151.318C124.801 154.929 124.59 157.154 124.59 157.154L158.335 158.909C168.461 121.766 158.669 104.006 158.669 104.006C158.669 104.006 154.464 103.577 149.621 103.796C148.997 103.815 148.363 103.865 147.713 103.915C143.586 104.264 137.011 105.585 132.62 106.589C131.715 106.79 130.807 107.028 129.919 107.271C125.51 108.489 121.711 109.994 121.711 109.994Z" fill="#407BFF"/>
<path id="Vector_17" opacity="0.7" d="M158.334 158.912L124.593 157.158C124.593 157.158 124.804 154.932 124.981 151.312C125.026 150.256 125.07 149.053 125.115 147.749C125.181 145.646 125.226 143.263 125.226 140.689C125.215 139.441 125.193 138.148 125.159 136.821C125.159 136.608 125.148 136.394 125.148 136.18C125.093 134.078 124.993 131.897 124.848 129.682C124.782 128.896 124.726 128.109 124.659 127.322C124.615 126.703 124.559 126.074 124.504 125.455C124.337 123.882 124.16 122.308 123.937 120.756C123.882 120.329 123.815 119.902 123.749 119.486C123.649 118.778 123.538 118.092 123.415 117.395C122.96 114.832 122.405 112.336 121.727 110.009C121.727 110.009 121.716 109.997 121.705 109.997C121.705 109.997 125.515 108.491 129.924 107.266C130.801 107.03 131.712 106.793 132.612 106.591C137.01 105.59 143.585 104.264 147.705 103.915C148.36 103.87 148.994 103.814 149.627 103.803C154.458 103.578 158.667 104.005 158.667 104.005C158.667 104.005 168.463 121.757 158.334 158.912Z" fill="white"/>
</g>
<path id="Vector_18" d="M179.204 247.797C179.204 247.797 169.564 240.222 170.447 235.562C170.533 235.105 170.29 234.682 169.813 234.58L161.378 232.781C160.984 232.697 160.55 232.855 160.295 233.176L154.863 240.014L157.075 240.973L158.336 240.184L158.82 241.73C170.823 246.934 176.064 249.052 178.761 249.325C179.557 248.4 179.204 247.797 179.204 247.797Z" fill="black"/>
<path id="Vector_19" d="M140.728 187.929C141.235 187.956 141.517 187.957 141.517 187.957L181.971 193.91L158.943 232.58L170.473 237.023C170.473 237.023 212.17 191.516 202.855 181.139C195.194 172.605 157.655 167.413 157.655 167.413L158.887 158.506L124.165 151.587C109.321 184.476 135.759 187.621 140.728 187.929Z" fill="#263238"/>
<g id="Group_8">
<g id="Group_9">
<path id="Vector_20" d="M123.753 155.083L123.017 154.939L123.69 152.57L124.345 152.699L123.753 155.083Z" fill="#263238"/>
<path id="Vector_21" d="M151.066 160.433L136.242 157.529L136.821 155.147L151.584 158.045L151.066 160.433Z" fill="#263238"/>
<path id="Vector_22" d="M152.726 158.27L158.994 159.5L158.576 161.905L152.231 160.661L152.726 158.27Z" fill="#263238"/>
<path id="Vector_23" d="M125.489 152.923L135.681 154.925L135.079 157.302L124.92 155.312L125.489 152.923Z" fill="#263238"/>
</g>
<g id="Group_10" opacity="0.2">
<path id="Vector_24" d="M123.753 155.083L123.017 154.939L123.69 152.57L124.345 152.699L123.753 155.083Z" fill="white"/>
<path id="Vector_25" d="M151.066 160.433L136.242 157.529L136.821 155.147L151.584 158.045L151.066 160.433Z" fill="white"/>
<path id="Vector_26" d="M152.726 158.27L158.994 159.5L158.576 161.905L152.231 160.661L152.726 158.27Z" fill="white"/>
<path id="Vector_27" d="M125.489 152.923L135.681 154.925L135.079 157.302L124.92 155.312L125.489 152.923Z" fill="white"/>
</g>
<g id="Group_11">
<path id="Vector_28" d="M146.951 157.607L146.617 159.057C146.563 159.288 146.341 159.436 146.111 159.394L142.4 158.728C142.149 158.683 141.988 158.431 142.05 158.181L142.422 156.676C142.479 156.447 142.703 156.302 142.933 156.347L146.606 157.067C146.851 157.117 147.009 157.361 146.951 157.607Z" stroke="white" stroke-width="0.5891" stroke-miterlimit="10"/>
<path id="Vector_29" d="M143.877 157.724L142.744 157.524" stroke="white" stroke-width="0.5891" stroke-miterlimit="10" stroke-linecap="round" stroke-linejoin="round"/>
</g>
</g>
<g id="Group_12">
<path id="Vector_30" d="M136.116 91.0914L144.93 98.4865C144.068 102.107 145.564 105.444 147.301 106.063C147.301 106.063 148.588 109.167 146.11 109.689C141.087 110.75 135.356 105.824 135.356 105.824C138.013 102.933 137.052 95.712 136.116 91.0914Z" fill="#EBB376"/>
<path id="Vector_31" opacity="0.2" d="M139.709 94.1088L144.925 98.482C144.719 99.3387 144.559 100.207 144.505 101.049C142.548 100.799 139.846 98.6788 139.623 96.6147C139.511 95.5838 139.545 94.5923 139.709 94.1088Z" fill="black"/>
</g>
<g id="Group_13">
<path id="Vector_32" d="M143.897 76.4789C146.029 77.8245 148.919 81.8819 145.335 82.8577C141.75 83.8324 140.231 74.1663 143.897 76.4789Z" fill="#263238"/>
<path id="Vector_33" d="M132.888 90.345C136.618 95.323 138.551 98.4326 142.883 99.323C149.398 100.664 154.136 93.947 151.944 87.9245C149.972 82.5024 144.206 75.2726 137.849 76.6441C131.585 77.9977 129.159 85.3669 132.888 90.345Z" fill="#FFB573"/>
<path id="Vector_34" d="M133.989 84.9251L129.51 79.6345C129.51 79.6345 123.592 84.0415 126.279 86.7092C124.506 90.9284 131.545 96.8171 137.698 95.6074C138.411 91.802 132.93 85.3029 132.93 85.3029C133.269 85.1994 133.626 85.0679 133.989 84.9251Z" fill="#263238"/>
<path id="Vector_35" d="M133.754 96.0054C135.043 97.0655 136.694 97.4163 138.048 97.2421C140.084 96.9801 140.321 94.9262 139.1 93.3894C138.002 92.0054 135.618 90.4743 133.889 91.5108C132.186 92.5338 132.281 94.7935 133.754 96.0054Z" fill="#FFB573"/>
<path id="Vector_36" d="M141.586 86.4675C141.863 86.8902 142.31 87.0814 142.581 86.8947C142.853 86.7081 142.847 86.2134 142.57 85.7907C142.292 85.368 141.845 85.1769 141.574 85.3635C141.302 85.5502 141.308 86.0437 141.586 86.4675Z" fill="#263238"/>
<path id="Vector_37" d="M146.285 83.2332C146.562 83.6559 147.009 83.847 147.28 83.6604C147.552 83.4737 147.546 82.9791 147.269 82.5564C146.991 82.1337 146.545 81.9426 146.274 82.1292C146.001 82.3158 146.006 82.8105 146.285 83.2332Z" fill="#263238"/>
<path id="Vector_38" d="M144.929 84.472C144.929 84.472 147.442 86.1539 149.242 86.5721C148.951 87.7323 147.491 88.2719 147.491 88.2719L144.929 84.472Z" fill="#ED893E"/>
<path id="Vector_39" d="M143.624 91.1376C143.44 91.2376 143.256 91.3545 143.069 91.4928C143.004 91.5412 142.988 91.6356 143.036 91.7019C143.084 91.7694 143.177 91.7829 143.24 91.7356C145.026 90.4214 146.75 91.0735 146.767 91.0802C146.842 91.1106 146.928 91.0701 146.957 90.9937C146.986 90.9161 146.949 90.8295 146.873 90.7992C146.804 90.7722 145.317 90.2101 143.624 91.1376Z" fill="#263238"/>
<path id="Vector_40" d="M138.371 85.078C138.474 85.0836 138.577 85.0342 138.637 84.9397C139.351 83.8144 140.437 83.7863 140.448 83.7863C140.612 83.784 140.743 83.648 140.743 83.4839C140.741 83.3197 140.608 83.1871 140.446 83.1893C140.388 83.1893 139.027 83.2242 138.14 84.6216C138.052 84.761 138.092 84.9453 138.228 85.0342C138.273 85.0611 138.321 85.0758 138.371 85.078Z" fill="#263238"/>
<path id="Vector_41" d="M146.339 79.3951C146.356 79.3411 146.358 79.2815 146.341 79.2219C146.297 79.0623 146.134 78.969 145.978 79.0129C144.41 79.4524 144.003 80.7633 143.978 80.8195C143.93 80.9769 144.017 81.1455 144.172 81.1961C144.327 81.2455 144.491 81.1601 144.54 81.0038C144.554 80.9487 144.88 79.9437 146.139 79.5907C146.238 79.5626 146.31 79.4861 146.339 79.3951Z" fill="#263238"/>
<path id="Vector_42" d="M132.931 85.3017C132.931 85.3017 144.658 80.3147 145.376 74.6217C146.095 68.9286 141.14 71.2614 141.14 71.2614C141.14 71.2614 143.434 71.1028 143.209 72.7937C143.209 72.7937 139.249 70.0585 135.475 72.4092C135.475 72.4092 137.239 72.3743 138.167 73.6987C138.167 73.6987 134.583 74.4069 130.561 77.4243C126.541 80.4417 119.318 91.2443 132.931 85.3017Z" fill="#263238"/>
</g>
<path id="Vector_43" opacity="0.3" d="M157.655 167.413L138.542 165.192C138.542 165.192 146.109 163.934 158.075 164.378L157.655 167.413Z" fill="black"/>
<path id="Vector_44" opacity="0.1" d="M124.848 129.682C124.782 128.896 124.726 128.109 124.659 127.322C124.615 126.703 124.559 126.074 124.504 125.455C124.337 123.881 124.16 122.308 123.937 120.756C123.882 120.329 123.815 119.902 123.749 119.486C124.26 119.07 124.826 118.688 125.426 118.35C125.426 118.35 126.514 124.028 124.848 129.682Z" fill="black"/>
<g id="Group_14">
<path id="Vector_45" d="M92.9971 157.302L89.6763 165.192L96.8677 166.992C96.8677 166.992 99.9553 161.807 96.941 157.853L92.9971 157.302Z" fill="#EBB376"/>
<path id="Vector_46" d="M90.1929 171.274L95.8705 171.317L96.8667 166.992L89.6753 165.192L90.1929 171.274Z" fill="#EBB376"/>
</g>
<path id="Vector_47" d="M125.334 115.454C125.828 120.402 124.16 122.413 124.16 122.413C124.16 122.413 119.426 125.424 117.373 126.966C115.627 128.299 113.915 129.651 112.292 131.006C111.491 131.687 110.716 132.376 110.007 133.058C109.305 133.733 108.647 134.436 108.232 134.98C108.046 135.197 107.86 135.55 107.661 135.865C107.459 136.195 107.248 136.69 107.029 137.09C106.595 137.997 106.164 138.956 105.755 139.963C104.934 141.971 104.158 144.066 103.42 146.19C101.881 150.416 100.449 154.774 98.9736 159.058L92.4142 157.48C93.0817 152.816 93.9824 148.269 95.022 143.664C95.5706 141.374 96.1782 139.081 96.8756 136.748C97.2222 135.585 97.6164 134.399 98.0607 133.182C98.3261 132.542 98.5394 131.966 98.8715 131.281C99.2213 130.587 99.5434 129.908 100.025 129.19C100.914 127.846 101.786 126.831 102.663 125.853C103.541 124.887 104.421 123.995 105.309 123.135C107.075 121.418 108.887 119.855 110.723 118.349C114.399 115.324 118.091 112.561 122.046 109.891C122.046 109.891 124.886 110.977 125.334 115.454Z" fill="#407BFF"/>
<path id="Vector_48" opacity="0.7" d="M125.334 115.454C125.828 120.402 124.16 122.413 124.16 122.413C124.16 122.413 119.426 125.424 117.373 126.966C115.627 128.299 113.915 129.651 112.292 131.006C111.491 131.687 110.716 132.376 110.007 133.058C109.305 133.733 108.647 134.436 108.232 134.98C108.046 135.197 107.86 135.55 107.661 135.865C107.459 136.195 107.248 136.69 107.029 137.09C106.595 137.997 106.164 138.956 105.755 139.963C104.934 141.971 104.158 144.066 103.42 146.19C101.881 150.416 100.449 154.774 98.9736 159.058L92.4142 157.48C93.0817 152.816 93.9824 148.269 95.022 143.664C95.5706 141.374 96.1782 139.081 96.8756 136.748C97.2222 135.585 97.6164 134.399 98.0607 133.182C98.3261 132.542 98.5394 131.966 98.8715 131.281C99.2213 130.587 99.5434 129.908 100.025 129.19C100.914 127.846 101.786 126.831 102.663 125.853C103.541 124.887 104.421 123.995 105.309 123.135C107.075 121.418 108.887 119.855 110.723 118.349C114.399 115.324 118.091 112.561 122.046 109.891C122.046 109.891 124.886 110.977 125.334 115.454Z" fill="white"/>
<g id="Group_15">
<path id="Vector_49" d="M140.246 108.821L142.716 112.748C142.716 112.748 134.105 123.312 117.627 126.797L116.527 130.192L120.031 131.12C120.031 131.12 137.829 126.458 144.931 112.945L148.599 108.809L144.276 107.34L140.246 108.821Z" fill="#407BFF"/>
<g id="Group_16">
<path id="Vector_50" d="M132.266 106.456L136.279 102.902L144.274 107.341L145.198 102.488L149.42 104.946L150.628 111.223L144.738 108.643L139.465 113.402L132.266 106.456Z" fill="#407BFF"/>
<path id="Vector_51" opacity="0.6" d="M132.266 106.456L136.279 102.902L144.274 107.341L145.198 102.488L149.42 104.946L150.628 111.223L144.738 108.643L139.465 113.402L132.266 106.456Z" fill="white"/>
</g>
</g>
</g>
</g>
<g id="Character_2">
<g id="Group_17">
<path id="Vector_52" d="M242.426 36.1419C242.426 36.1419 234.958 45.519 227.379 44.7399C219.8 43.962 215.926 47.0749 215.926 47.0749L215.187 50.8175L219.25 50.2621C219.25 50.2621 219.25 47.2964 227.159 47.6303C235.068 47.9642 240.999 41.0818 243.306 37.962L242.426 36.1419Z" fill="#407BFF"/>
<g id="Group_18">
<path id="Vector_53" d="M296.074 20.5557L295.917 19.8182C295.837 19.5259 295.88 19.4877 295.607 18.7592C295.173 17.6192 294.442 16.6805 293.797 16.0926C292.459 14.8829 291.359 14.4557 290.399 14.0723C288.499 13.3911 286.985 13.1763 285.487 12.9908C284.003 12.82 282.597 12.7458 281.212 12.7087C278.448 12.6277 275.783 12.7671 273.142 12.9346C267.845 13.2888 262.751 13.9217 257.513 14.8379L259.419 25.9137C264.208 25.1414 269.201 24.4342 274.034 23.9272C276.457 23.6777 278.873 23.5248 281.191 23.4494C282.346 23.4191 283.483 23.4236 284.53 23.4888C285.267 23.5326 285.995 23.617 286.542 23.7125C286.576 24.0936 286.591 24.5107 286.577 24.9536C286.507 26.8648 286.034 29.102 285.389 31.3313C284.085 35.8091 282.04 40.46 279.924 44.8051L285.194 48.3632C288.561 44.053 291.332 39.5752 293.627 34.4241C294.723 31.8271 295.692 29.0863 296.132 25.8699C296.344 24.2577 296.42 22.5006 296.074 20.5557Z" fill="#407BFF"/>
<path id="Vector_54" opacity="0.7" d="M296.131 25.8722C295.776 28.5253 295.043 30.8637 294.188 33.0559C294.01 33.5169 293.821 33.9778 293.632 34.4275C291.333 39.5764 288.557 44.0508 285.191 48.3565L279.927 44.804C282.037 40.4533 284.081 35.8103 285.391 31.3246C285.836 29.7845 286.202 28.233 286.402 26.794C286.502 26.1532 286.558 25.5349 286.58 24.9503C286.591 24.5119 286.58 24.0959 286.546 23.7137C286.002 23.6125 285.269 23.5338 284.536 23.4888C283.481 23.4214 282.348 23.4214 281.193 23.4439C281.104 23.4439 281.027 23.4551 280.938 23.4551C278.694 23.5338 276.373 23.6912 274.03 23.9273C269.343 24.4219 264.522 25.0965 259.869 25.8497C259.713 25.8722 259.569 25.8947 259.425 25.9172L257.514 14.8324C262.757 13.9218 267.843 13.2922 273.141 12.9324C275.784 12.7638 278.45 12.6289 281.215 12.7076C282.604 12.7413 284.003 12.82 285.491 12.9886C286.991 13.1798 288.501 13.3934 290.4 14.0679C291.356 14.4501 292.455 14.8773 293.799 16.0915C294.443 16.6761 295.176 17.6204 295.609 18.7559C295.876 19.4866 295.842 19.5204 295.92 19.8127L296.076 20.5546C296.42 22.4995 296.342 24.2533 296.131 25.8722Z" fill="white"/>
<path id="Vector_55" opacity="0.1" d="M280.938 23.4551C278.694 23.5338 276.373 23.6912 274.029 23.9273C269.343 24.422 264.522 25.0965 259.869 25.8497C261.568 21.6227 263.312 17.3506 263.312 17.3506C263.312 17.3506 271.086 18.1039 280.938 23.4551Z" fill="black"/>
<path id="Vector_56" opacity="0.1" d="M294.187 33.0559C294.01 33.5169 293.821 33.9778 293.632 34.4275C291.333 39.5764 288.557 44.0508 285.191 48.3565L279.927 44.804C282.037 40.4533 284.081 35.8103 285.391 31.3246C285.835 29.7845 286.202 28.233 286.402 26.794C288.967 28.5366 291.589 30.6051 294.187 33.0559Z" fill="black"/>
</g>
<g id="Group_19">
<path id="Vector_57" d="M223.205 22.7829C223.509 23.1718 223.551 23.6496 223.3 23.8497C223.049 24.051 222.599 23.8981 222.296 23.5091C221.993 23.1201 221.95 22.6423 222.201 22.4422C222.452 22.2421 222.902 22.3939 223.205 22.7829Z" fill="#263238"/>
<path id="Vector_58" d="M223.586 23.6215C223.586 23.6215 224.463 26.5625 224.346 28.4129C225.527 28.5119 226.452 27.2943 226.452 27.2943L223.586 23.6215Z" fill="#DE5753"/>
<path id="Vector_59" d="M222.927 19.5002C222.971 19.4462 222.998 19.3754 222.994 19.2989C222.988 19.1382 222.853 19.0145 222.694 19.0212C221.106 19.0921 220.42 20.2399 220.39 20.2905C220.309 20.4288 220.354 20.6075 220.491 20.6885C220.628 20.7694 220.804 20.7222 220.884 20.5873C220.906 20.5491 221.453 19.6598 222.72 19.6025C222.803 19.5991 222.877 19.5597 222.927 19.5002Z" fill="#263238"/>
<path id="Vector_60" d="M234.266 16.7683C237.936 19.4451 244.963 23.6811 248.95 22.0757C248.95 22.0757 252.534 25.0954 249.091 32.6805C245.305 41.0211 243.191 34.7637 243.191 34.7637C244.184 29.7126 240.795 28.2769 237.301 27.6125L234.266 16.7683Z" fill="#E4897B"/>
<path id="Vector_61" d="M235.37 11.7183C238.807 16.7233 241.068 19.4765 240.598 23.8306C239.892 30.3814 232.365 32.8491 227.52 28.984C223.16 25.5046 218.274 17.9037 221.407 12.313C224.495 6.80545 231.934 6.71214 235.37 11.7183Z" fill="#E4897B"/>
<path id="Vector_62" d="M240.89 19.979C240.375 22.8154 230.943 26.6962 226.663 20.5805C226.663 20.5805 221.292 20.5367 218.061 17.2596C214.83 13.9825 215.523 10.4277 218.419 8.49404C220.971 6.78973 227.568 -5.76554 235.251 3.19447C243.592 2.85046 241.533 16.4389 240.89 19.979Z" fill="#263238"/>
<path id="Vector_63" d="M224.955 7.14271C224.955 7.14271 220.001 6.89988 217.146 9.19778C214.29 11.4957 215.096 18.5445 216.194 19.8756C217.292 21.2056 218.464 21.2055 218.464 21.2055C218.464 21.2055 216.78 20.3219 216.78 19.0212C216.78 19.0212 217.512 20.7604 220.881 21.2055C220.881 21.2055 219.92 20.4287 220.071 19.4461C220.071 19.4461 221.896 21.8374 226.112 19.4461C230.326 17.0549 224.955 7.14271 224.955 7.14271Z" fill="#263238"/>
<path id="Vector_64" d="M229.168 19.5271C230.079 20.8312 230.435 22.4636 230.352 23.7857C230.23 25.7733 228.586 25.9296 227.294 24.6761C226.131 23.5473 224.792 21.1528 225.552 19.4945C226.303 17.861 228.128 18.0364 229.168 19.5271Z" fill="#E4897B"/>
</g>
<g id="Group_20">
<path id="Vector_65" d="M239.03 36.1419C239.03 36.1419 238.107 24.8233 245.408 18.467L254.102 19.273C254.102 19.273 249.092 31.6496 239.03 36.1419Z" fill="#407BFF"/>
<path id="Vector_66" opacity="0.6" d="M239.03 36.1419C239.03 36.1419 238.107 24.8233 245.408 18.467L254.102 19.273C254.102 19.273 249.092 31.6496 239.03 36.1419Z" fill="white"/>
</g>
<path id="Vector_67" d="M264.097 61.5999C264.097 61.5999 250.948 48.5319 236.413 39.3842C236.413 39.3842 246.097 16.3759 258.355 14.322C258.355 14.322 290.046 24.0094 299.241 50.2621L264.097 61.5999Z" fill="#407BFF"/>
<path id="Vector_68" d="M265.767 141.314L260.093 143.75L253.953 130.694L259.627 128.257L265.767 141.314Z" fill="#E4897B"/>
<path id="Vector_69" d="M299.24 50.2621L295.892 86.1989C294.053 87.5772 291.122 88.6485 287.585 89.4838C280.658 91.1162 271.415 91.8571 263.433 92.2899C254.468 92.7845 247.105 92.879 246.44 93.4006C244.881 94.6282 264.62 135.896 264.62 135.896L255.199 137.084C255.199 137.084 230.438 102.71 227.233 90.7677C226.052 86.3596 224.863 80.8386 232.859 75.6795C239.898 71.1377 266.112 67.7291 266.112 67.7291L264.095 61.5987L299.24 50.2621Z" fill="#263238"/>
<path id="Vector_70" opacity="0.2" d="M287.586 89.4838C280.659 91.1162 271.416 91.857 263.434 92.2899C262.353 79.0286 268.946 66.3036 268.946 66.3036L278.321 63.8685L287.586 89.4838Z" fill="black"/>
<path id="Vector_71" d="M348.385 136.021L349.389 142.176L335.406 145.142L334.403 138.987L348.385 136.021Z" fill="#E4897B"/>
<path id="Vector_72" d="M349.687 142.402C349.646 142.357 349.582 142.342 349.525 142.366C349.468 142.389 349.433 142.446 349.435 142.508C349.439 142.614 349.523 145.122 350.298 145.858C350.457 146.008 350.637 146.081 350.831 146.075C351.179 146.063 351.322 145.89 351.381 145.746C351.549 145.337 351.241 144.621 350.827 143.939C350.439 143.305 349.961 142.699 349.687 142.402ZM349.752 142.925C350.49 143.826 351.3 145.174 351.111 145.633C351.087 145.692 351.03 145.772 350.821 145.78C350.706 145.784 350.599 145.739 350.497 145.642C350.434 145.581 350.375 145.505 350.32 145.416C349.943 144.795 349.802 143.573 349.752 142.925Z" fill="#407BFF"/>
<path id="Vector_73" d="M349.636 142.366C349.588 142.346 349.533 142.352 349.492 142.384C349.435 142.428 348.109 143.452 347.973 144.469C347.931 144.78 348.001 145.058 348.184 145.3C348.429 145.624 348.662 145.616 348.817 145.552C349.469 145.279 349.832 143.301 349.725 142.483C349.722 142.461 349.715 142.442 349.705 142.424C349.688 142.4 349.665 142.378 349.636 142.366ZM348.261 144.51C348.351 143.842 349.082 143.125 349.453 142.8C349.463 143.696 349.095 145.115 348.704 145.279C348.672 145.292 348.576 145.333 348.416 145.12C348.398 145.097 348.381 145.072 348.366 145.047C348.269 144.888 348.235 144.711 348.261 144.51Z" fill="#407BFF"/>
<path id="Vector_74" d="M348.629 142.318L345.099 136.517C344.967 136.3 345.002 136.019 345.183 135.841L349.209 131.884C349.626 131.473 350.31 131.56 350.607 132.066C351.845 134.18 353.563 137.28 355.164 139.909C357.035 142.985 358.817 145.537 361.011 149.144C362.339 151.325 360.528 153.288 359.776 152.497C356.35 148.902 354.189 145.569 349.817 143.342C349.342 143.1 348.909 142.776 348.629 142.318Z" fill="#263238"/>
<path id="Vector_75" d="M299.24 50.2621C299.24 50.2621 310.529 79.6402 291.482 91.0397C291.482 91.0397 291.24 124.986 296.055 128.964C301.913 133.805 344.822 136.268 344.822 136.268L344.448 147.054C344.448 147.054 298.512 150.859 284.605 145.809C268.32 139.895 264.693 62.1102 264.693 62.1102L299.24 50.2621Z" fill="#263238"/>
<path id="Vector_76" opacity="0.2" d="M286.188 68.2968L293.045 66.1968C293.045 66.1968 293.988 72.1686 293.974 75.3648L290.795 78.1292L287.786 77.159C287.786 77.159 286.964 70.7757 286.188 68.2968Z" fill="black"/>
<g id="Group_21">
<path id="Vector_77" d="M266.357 61.6235L267.245 64.479L264.709 65.2749L263.816 62.4441L266.357 61.6235Z" fill="#263238"/>
<path id="Vector_78" d="M278.059 57.8236L279.014 60.7859L268.513 64.081L267.585 61.221L278.059 57.8236Z" fill="#263238"/>
<path id="Vector_79" d="M291.128 53.5842L292.081 56.6837L280.342 60.3643L279.41 57.3852L291.128 53.5842Z" fill="#263238"/>
<path id="Vector_80" d="M300.678 53.981L293.449 56.2497L293.441 56.2508L292.472 53.1457L299.647 50.8175L300.678 53.981Z" fill="#263238"/>
<g id="Group_22" opacity="0.2">
<path id="Vector_81" d="M266.357 61.6235L267.245 64.479L264.709 65.2749L263.816 62.4441L266.357 61.6235Z" fill="white"/>
<path id="Vector_82" d="M278.059 57.8236L279.014 60.7859L268.513 64.081L267.585 61.221L278.059 57.8236Z" fill="white"/>
<path id="Vector_83" d="M291.128 53.5842L292.081 56.6837L280.342 60.3643L279.41 57.3852L291.128 53.5842Z" fill="white"/>
<path id="Vector_84" d="M300.678 53.981L293.449 56.2497L293.441 56.2508L292.472 53.1457L299.647 50.8175L300.678 53.981Z" fill="white"/>
</g>
</g>
<path id="Vector_85" d="M258.352 141.926C258.41 141.913 258.456 141.863 258.464 141.803C258.473 141.742 258.443 141.682 258.389 141.652C258.297 141.601 256.115 140.411 255.095 140.718C254.886 140.781 254.733 140.901 254.641 141.074C254.475 141.383 254.551 141.597 254.644 141.721C254.909 142.074 255.675 142.166 256.466 142.147C257.203 142.13 257.961 142.015 258.352 141.926ZM257.873 141.719C256.731 141.911 255.174 141.939 254.877 141.543C254.839 141.491 254.8 141.401 254.899 141.216C254.954 141.112 255.045 141.043 255.18 141.002C255.264 140.978 255.358 140.964 255.461 140.962C256.18 140.944 257.294 141.436 257.873 141.719Z" fill="#407BFF"/>
<path id="Vector_86" d="M258.408 141.9C258.449 141.869 258.472 141.817 258.465 141.766C258.456 141.695 258.251 140.019 257.452 139.386C257.208 139.192 256.936 139.114 256.637 139.152C256.237 139.202 256.126 139.411 256.103 139.578C256.006 140.286 257.511 141.599 258.263 141.92C258.282 141.927 258.303 141.932 258.323 141.931C258.353 141.93 258.383 141.92 258.408 141.9ZM257.272 139.618C257.797 140.033 258.04 141.034 258.131 141.522C257.361 141.079 256.336 140.042 256.394 139.617C256.398 139.582 256.412 139.478 256.675 139.444C256.703 139.441 256.733 139.438 256.762 139.437C256.946 139.434 257.114 139.492 257.272 139.618Z" fill="#407BFF"/>
<path id="Vector_87" d="M258.957 141.045L265.685 140.884C265.937 140.879 266.159 141.049 266.219 141.298L267.567 146.812C267.707 147.383 267.288 147.939 266.706 147.943C264.278 147.96 260.767 147.899 257.716 147.972C254.149 148.058 251.072 148.329 246.89 148.429C244.361 148.489 243.598 145.917 244.651 145.658C249.446 144.475 253.379 144.266 257.483 141.567C257.931 141.273 258.426 141.057 258.957 141.045Z" fill="#263238"/>
<path id="Vector_88" opacity="0.7" d="M299.241 50.2677L264.1 61.5998C264.1 61.5998 257.903 55.4503 249.318 48.6263C247.685 47.3335 245.975 46.0182 244.198 44.7141C241.699 42.8703 239.078 41.0604 236.412 39.3853C236.412 39.3853 246.097 16.3725 258.358 14.3264C258.358 14.3264 290.045 24.006 299.241 50.2677Z" fill="white"/>
<path id="Vector_89" opacity="0.1" d="M249.318 48.6264C247.685 47.3335 245.975 46.0182 244.198 44.7141L244.886 42.6118C244.886 42.6118 247.84 45.13 249.318 48.6264Z" fill="black"/>
<path id="Vector_90" d="M198.542 72.1001L196.12 72.6846C195.516 72.8308 195.057 73.3299 194.958 73.9505L194.411 77.3648C194.295 78.0854 194.69 78.7903 195.359 79.0612L197.13 79.7762C197.13 79.7762 202.241 83.5086 206.562 81.0983L204.695 76.0944L201.041 72.7476C200.365 72.1281 199.43 71.8865 198.542 72.1001Z" fill="#E4897B"/>
<path id="Vector_91" d="M242.646 40.2925C245.751 42.179 246.022 46.0688 246.022 46.0688C246.022 46.0688 243.582 52.7702 242.166 56.1047C241.204 58.3677 240.206 60.6386 239.044 62.8972C237.844 65.1749 236.69 67.4075 234.729 69.8741L234.347 70.3406L233.892 70.8364C233.618 71.1489 233.211 71.5211 232.816 71.8662C232.648 72.0258 232.34 72.2439 232.082 72.4272C231.83 72.6026 231.479 72.8387 231.376 72.878L230.437 73.3715C229.214 73.9955 228.069 74.4823 226.919 74.9612C224.637 75.9078 222.378 76.7307 220.112 77.5188C215.568 79.0578 211.046 80.4642 206.405 81.648L204.201 75.6357C208.365 73.4761 212.609 71.4311 216.751 69.3232C218.826 68.2822 220.892 67.2344 222.876 66.1777C223.853 65.6437 224.827 65.0973 225.668 64.5801L226.265 64.1979C226.426 64.1046 226.303 64.1484 226.292 64.1552C226.267 64.1586 226.215 64.2238 226.252 64.1687C226.286 64.108 226.323 64.0889 226.424 63.9416L226.557 63.773L226.717 63.5358C227.616 62.2137 228.634 60.1912 229.513 58.2081C230.393 56.1789 231.274 54.0856 232.085 51.9394C233.698 47.6652 235.247 43.2076 236.691 38.8895C236.689 38.8906 239.351 38.2914 242.646 40.2925Z" fill="#407BFF"/>
<path id="Vector_92" opacity="0.7" d="M242.646 40.2925C245.751 42.179 246.022 46.0688 246.022 46.0688C246.022 46.0688 243.582 52.7702 242.166 56.1047C241.204 58.3677 240.206 60.6386 239.044 62.8972C237.844 65.1749 236.69 67.4075 234.729 69.8741L234.347 70.3406L233.892 70.8364C233.618 71.1489 233.211 71.5211 232.816 71.8662C232.648 72.0258 232.34 72.2439 232.082 72.4272C231.83 72.6026 231.479 72.8387 231.376 72.878L230.437 73.3715C229.214 73.9955 228.069 74.4823 226.919 74.9612C224.637 75.9078 222.378 76.7307 220.112 77.5188C215.568 79.0578 211.046 80.4642 206.405 81.648L204.201 75.6357C208.365 73.4761 212.609 71.4311 216.751 69.3232C218.826 68.2822 220.892 67.2344 222.876 66.1777C223.853 65.6437 224.827 65.0973 225.668 64.5801L226.265 64.1979C226.426 64.1046 226.303 64.1484 226.292 64.1552C226.267 64.1586 226.215 64.2238 226.252 64.1687C226.286 64.108 226.323 64.0889 226.424 63.9416L226.557 63.773L226.717 63.5358C227.616 62.2137 228.634 60.1912 229.513 58.2081C230.393 56.1789 231.274 54.0856 232.085 51.9394C233.698 47.6652 235.247 43.2076 236.691 38.8895C236.689 38.8906 239.351 38.2914 242.646 40.2925Z" fill="white"/>
</g>
</g>
<g id="Arrow_2">
<g id="Group_23">
<g id="Group_24">
<path id="Vector_93" d="M39.531 338.606H227.099L326.365 257.441L330.718 262.896H355.167L380.074 146.841L355.615 146.891L355.626 146.841L238.298 147.077L252.305 164.629L39.531 338.606Z" fill="#407BFF"/>
<path id="Vector_94" opacity="0.2" d="M39.531 338.606H202.651L316.711 245.344L330.718 262.896L355.626 146.841L238.298 147.077L252.305 164.629L39.531 338.606Z" fill="white"/>
</g>
<path id="Vector_95" d="M35.7126 331.908H170.388C170.324 331.331 170.287 330.745 170.287 330.152C170.287 321.399 177.297 314.304 185.943 314.304C186.136 314.304 186.322 314.326 186.513 314.333C188.476 309.003 193.534 305.2 199.482 305.2C207.132 305.2 213.334 311.477 213.334 319.221C213.334 319.232 213.333 319.242 213.333 319.253C220.116 319.573 225.55 325.051 225.903 331.908H226.533C230.361 331.908 233.494 335.078 233.494 338.955C233.494 342.83 230.362 346 226.533 346H35.7126C31.8843 346 28.7523 342.83 28.7523 338.955C28.7523 335.078 31.8843 331.908 35.7126 331.908Z" fill="#407BFF"/>
<path id="Vector_96" opacity="0.7" d="M35.7126 331.908H170.388C170.324 331.331 170.287 330.745 170.287 330.152C170.287 321.399 177.297 314.304 185.943 314.304C186.136 314.304 186.322 314.326 186.513 314.333C188.476 309.003 193.534 305.2 199.482 305.2C207.132 305.2 213.334 311.477 213.334 319.221C213.334 319.232 213.333 319.242 213.333 319.253C220.116 319.573 225.55 325.051 225.903 331.908H226.533C230.361 331.908 233.494 335.078 233.494 338.955C233.494 342.83 230.362 346 226.533 346H35.7126C31.8843 346 28.7523 342.83 28.7523 338.955C28.7523 335.078 31.8843 331.908 35.7126 331.908Z" fill="#212529"/>
</g>
</g>
</g>
</svg>
